<?xml version="1.0" encoding="UTF-8" standalone="no"?>
<svg
   xmlns:dc="http://purl.org/dc/elements/1.1/"
   xmlns:cc="http://creativecommons.org/ns#"
   xmlns:rdf="http://www.w3.org/1999/02/22-rdf-syntax-ns#"
   xmlns:svg="http://www.w3.org/2000/svg"
   xmlns="http://www.w3.org/2000/svg"
   xmlns:xlink="http://www.w3.org/1999/xlink"
   xmlns:sodipodi="http://sodipodi.sourceforge.net/DTD/sodipodi-0.dtd"
   xmlns:inkscape="http://www.inkscape.org/namespaces/inkscape"
   width="128px"
   height="128px"
   viewBox="0 0 128 128"
   version="1.1"
   id="svg59"
   sodipodi:docname="archive-manager.svg"
   inkscape:version="0.92.1 r15371">
  <metadata
     id="metadata63">
    <rdf:RDF>
      <cc:Work
         rdf:about="">
        <dc:format>image/svg+xml</dc:format>
        <dc:type
           rdf:resource="http://purl.org/dc/dcmitype/StillImage" />
        <dc:title>application-x-gzip</dc:title>
      </cc:Work>
    </rdf:RDF>
  </metadata>
  <sodipodi:namedview
     pagecolor="#ffffff"
     bordercolor="#666666"
     borderopacity="1"
     objecttolerance="10"
     gridtolerance="10"
     guidetolerance="10"
     inkscape:pageopacity="0"
     inkscape:pageshadow="2"
     inkscape:window-width="1920"
     inkscape:window-height="1040"
     id="namedview61"
     showgrid="false"
     inkscape:zoom="3.6875"
     inkscape:cx="16.002504"
     inkscape:cy="50.75896"
     inkscape:window-x="0"
     inkscape:window-y="0"
     inkscape:window-maximized="1"
     inkscape:current-layer="svg59" />
  <!-- Generator: Sketch 49.1 (51147) - http://www.bohemiancoding.com/sketch -->
  <title
     id="title2">application-x-gzip</title>
  <desc
     id="desc4">Created with Sketch.</desc>
  <defs
     id="defs31">
    <path
       d="M28,14 C28,12.3431458 29.3431458,11 31,11 L53,11 C54.6568542,11 56,12.3431458 56,14 L56,3 C56,1.34314575 57.3431458,-1.39730022e-16 59,-4.4408921e-16 L81,-4.4408921e-16 C82.6568542,7.23133791e-16 84,1.34314575 84,3 L84,101 C84,102.656854 82.6568542,104 81,104 L59,104 C57.3431458,104 56,102.656854 56,101 C56,102.656854 54.6568542,104 53,104 L31,104 C29.3431458,104 28,102.656854 28,101 C28,102.656854 26.6568542,104 25,104 L2.5,104 C1.11928813,104 3.55271368e-15,102.694164 3.55271368e-15,101.083333 L0,8.91666667 C0,7.30583615 1.11928813,6 2.5,6 L25,6 C26.6568542,6 28,7.34314575 28,9 L28,14 Z"
       id="path-1" />
    <filter
       x="-11.9%"
       y="-7.7%"
       width="123.8%"
       height="119.2%"
       filterUnits="objectBoundingBox"
       id="filter-2">
      <feOffset
         dx="0"
         dy="2"
         in="SourceAlpha"
         result="shadowOffsetOuter1"
         id="feOffset7" />
      <feGaussianBlur
         stdDeviation="3"
         in="shadowOffsetOuter1"
         result="shadowBlurOuter1"
         id="feGaussianBlur9" />
      <feComposite
         in="shadowBlurOuter1"
         in2="SourceAlpha"
         operator="out"
         result="shadowBlurOuter1"
         id="feComposite11" />
      <feColorMatrix
         values="0 0 0 0 0   0 0 0 0 0   0 0 0 0 0  0 0 0 0.2 0"
         type="matrix"
         in="shadowBlurOuter1"
         id="feColorMatrix13" />
    </filter>
    <linearGradient
       x1="98.4747561%"
       y1="48.4747561%"
       x2="1.52524386%"
       y2="48.4747561%"
       id="linearGradient-3">
      <stop
         stop-color="#C926EA"
         offset="0%"
         id="stop16" />
      <stop
         stop-color="#B505C3"
         offset="100%"
         id="stop18" />
    </linearGradient>
    <linearGradient
       x1="99.4549187%"
       y1="50.5450813%"
       x2="3.99781362%"
       y2="50.5450813%"
       id="linearGradient-4">
      <stop
         stop-color="#628FFF"
         offset="0%"
         id="stop21" />
      <stop
         stop-color="#4084FF"
         offset="100%"
         id="stop23" />
    </linearGradient>
    <linearGradient
       x1="100%"
       y1="50%"
       x2="6.53071043%"
       y2="50%"
       id="linearGradient-5">
      <stop
         stop-color="#6DBD00"
         offset="0%"
         id="stop26" />
      <stop
         stop-color="#8FBF12"
         offset="100%"
         id="stop28" />
    </linearGradient>
  </defs>
  <g
     id="application-x-gzip"
     stroke="none"
     stroke-width="1"
     fill="none"
     fill-rule="evenodd">
    <g
       id="Group"
       transform="translate(22.000000, 14.000000)">
      <g
         id="Combined-Shape">
        <use
           fill="black"
           fill-opacity="1"
           filter="url(#filter-2)"
           xlink:href="#path-1"
           id="use33" />
        <use
           fill-opacity="0.1"
           fill="#000000"
           fill-rule="evenodd"
           xlink:href="#path-1"
           id="use35" />
      </g>
      <path
         d="M84,3 L84,101 C84,102.656854 82.6568542,104 81,104 L59,104 C57.3431458,104 56,102.656854 56,101 L56,3 C56,1.34314575 57.3431458,3.04359188e-16 59,0 L81,0 C82.6568542,-3.04359188e-16 84,1.34314575 84,3 Z"
         id="Rectangle-43"
         fill="url(#linearGradient-3)" />
      <path
         d="M56,14 L56,101 C56,102.656854 54.6568542,104 53,104 L31,104 C29.3431458,104 28,102.656854 28,101 L28,14 C28,12.3431458 29.3431458,11 31,11 L53,11 C54.6568542,11 56,12.3431458 56,14 Z"
         id="path39"
         fill="url(#linearGradient-4)" />
      <path
         d="M28,9 L28,101 C28,102.656854 26.6568542,104 25,104 L2.5,104 C1.11928813,104 3.55271368e-15,102.694164 3.55271368e-15,101.083333 L0,8.91666667 C0,7.30583615 1.11928813,6 2.5,6 L25,6 C26.6568542,6 28,7.34314575 28,9 Z"
         id="path41"
         fill="url(#linearGradient-5)" />
      <path
         d="M3.85466222e-17,9.91666667 L0,8.91666667 C0,7.30583615 1.11928813,6 2.5,6 L25,6 C26.6568542,6 28,7.34314575 28,9 L28,10 C28,8.34314575 26.6568542,7 25,7 L2.5,7 C1.11928813,7 0,8.30583615 0,9.91666667 Z M28,14 C28,12.3431458 29.3431458,11 31,11 L53,11 C54.6568542,11 56,12.3431458 56,14 L56,15 C56,13.3431458 54.6568542,12 53,12 L31,12 C29.3431458,12 28,13.3431458 28,15 L28,14 Z M56,4 L56,3 C56,1.34314575 57.3431458,-1.39730022e-16 59,-4.4408921e-16 L81,-4.4408921e-16 C82.6568542,7.23133791e-16 84,1.34314575 84,3 L84,4 C84,2.34314575 82.6568542,1 81,1 L59,1 C57.3431458,1 56,2.34314575 56,4 Z"
         id="path43"
         fill-opacity="0.2"
         fill="#FFFFFF" />
      <path
         d="M37,53 L46,53 L46,47 L37,47 L37,44 L49,44 L49,56 L37,56 L37,53 Z M31,44 L31,56 L1,56 L1,44 L31,44 Z M55,44 L83,44 L83,56 L55,56 L55,44 Z"
         id="path45"
         fill-opacity="0.5"
         fill="#FFF8F8" />
      <path
         d="M1,56 L31,56 L31,57 L1,57 L1,56 Z M83,56 L83,57 L55,57 L55,56 L83,56 Z M37,47 L46,47 L46,48 L37,48 L37,47 Z M37,56 L49,56 L49,57 L37,57 L37,56 Z M35,51 L44,51 L44,52 L35,52 L35,51 Z M35,42 L51,42 L51,43 L35,43 L35,42 Z M33,58 L53,58 L53,59 C53,60.1045695 52.1045695,61 51,61 L35,61 C33.8954305,61 33,60.1045695 33,59 L33,58 Z"
         id="path47"
         fill-opacity="0.2"
         fill="#000000" />
      <path
         d="M35,40 L51,40 C52.1045695,40 53,40.8954305 53,42 L53,58 C53,59.1045695 52.1045695,60 51,60 L35,60 C33.8954305,60 33,59.1045695 33,58 L33,42 C33,40.8954305 33.8954305,40 35,40 Z M35,42 L35,58 L51,58 L51,42 L35,42 Z M35,49 L44,49 L44,51 L35,51 L35,49 Z"
         id="path49"
         fill="#F4F4F4" />
      <path
         d="M3.55271368e-15,100.083333 C3.55271368e-15,101.694164 1.11928813,103 2.5,103 L25,103 C26.6568542,103 28,101.656854 28,100 C28,101.656854 29.3431458,103 31,103 L53,103 C54.6568542,103 56,101.656854 56,100 C56,101.656854 57.3431458,103 59,103 L81,103 C82.6568542,103 84,101.656854 84,100 L84,101 C84,102.656854 82.6568542,104 81,104 L59,104 C57.3431458,104 56,102.656854 56,101 C56,102.656854 54.6568542,104 53,104 L31,104 C29.3431458,104 28,102.656854 28,101 C28,102.656854 26.6568542,104 25,104 L2.5,104 C1.11928813,104 3.55271368e-15,102.694164 3.55271368e-15,101.083333 L3.51416706e-15,100.083333 Z"
         id="path51"
         fill-opacity="0.2"
         fill="#000000" />
    </g>
  </g>
</svg>
