<?xml version="1.0" encoding="UTF-8" standalone="no"?>
<!-- Created with Inkscape (http://www.inkscape.org/) -->

<svg
   xmlns:dc="http://purl.org/dc/elements/1.1/"
   xmlns:cc="http://creativecommons.org/ns#"
   xmlns:rdf="http://www.w3.org/1999/02/22-rdf-syntax-ns#"
   xmlns:svg="http://www.w3.org/2000/svg"
   xmlns="http://www.w3.org/2000/svg"
   xmlns:xlink="http://www.w3.org/1999/xlink"
   xmlns:sodipodi="http://sodipodi.sourceforge.net/DTD/sodipodi-0.dtd"
   xmlns:inkscape="http://www.inkscape.org/namespaces/inkscape"
   width="128"
   height="128"
   viewBox="0 0 33.866666 33.866668"
   version="1.1"
   id="svg8"
   inkscape:version="0.92.3 (2405546, 2018-03-11)"
   sodipodi:docname="atom.svg">
  <defs
     id="defs2">
    <linearGradient
       id="linearGradient906"
       inkscape:collect="always">
      <stop
         id="stop914"
         offset="0"
         style="stop-color:#070707;stop-opacity:0.37254903" />
      <stop
         id="stop916"
         offset="1"
         style="stop-color:#ffffff;stop-opacity:0" />
    </linearGradient>
    <linearGradient
       inkscape:collect="always"
       id="linearGradient906-4">
      <stop
         style="stop-color:#ffffff;stop-opacity:0.37172776"
         offset="0"
         id="stop902" />
      <stop
         style="stop-color:#ffffff;stop-opacity:0.0104712"
         offset="1"
         id="stop904" />
    </linearGradient>
    <linearGradient
       id="linearGradient884"
       inkscape:collect="always">
      <stop
         id="stop890"
         offset="0"
         style="stop-color:#ff2990;stop-opacity:0" />
      <stop
         id="stop892"
         offset="1"
         style="stop-color:#e4fdde;stop-opacity:1" />
    </linearGradient>
    <linearGradient
       inkscape:collect="always"
       id="linearGradient884-5">
      <stop
         style="stop-color:#8cd9b0;stop-opacity:1"
         offset="0"
         id="stop880" />
      <stop
         style="stop-color:#3cd491;stop-opacity:1"
         offset="1"
         id="stop882" />
    </linearGradient>
    <linearGradient
       inkscape:collect="always"
       xlink:href="#linearGradient884-5"
       id="linearGradient886"
       x1="17.197916"
       y1="267.89581"
       x2="17.197916"
       y2="293.03125"
       gradientUnits="userSpaceOnUse" />
    <linearGradient
       inkscape:collect="always"
       xlink:href="#linearGradient884"
       id="linearGradient895"
       gradientUnits="userSpaceOnUse"
       x1="21.166666"
       y1="269.21875"
       x2="21.166666"
       y2="265.25" />
    <linearGradient
       inkscape:collect="always"
       xlink:href="#linearGradient906-4"
       id="linearGradient910"
       gradientUnits="userSpaceOnUse"
       x1="70"
       y1="-32"
       x2="70"
       y2="48" />
    <linearGradient
       inkscape:collect="always"
       xlink:href="#linearGradient906"
       id="linearGradient919"
       gradientUnits="userSpaceOnUse"
       x1="65"
       y1="143"
       x2="65"
       y2="68" />
    <filter
       inkscape:collect="always"
       style="color-interpolation-filters:sRGB"
       id="filter947"
       x="-0.0324"
       width="1.0648"
       y="-0.0324"
       height="1.0648">
      <feGaussianBlur
         inkscape:collect="always"
         stdDeviation="0.41076561"
         id="feGaussianBlur949" />
    </filter>
    <linearGradient
       id="b">
      <stop
         id="stop1013"
         stop-color="#ff053c"
         offset="0" />
      <stop
         id="stop1015"
         stop-opacity=".974"
         stop-color="#0b31ff"
         offset="1" />
    </linearGradient>
    <linearGradient
       id="a">
      <stop
         id="stop1018"
         stop-color="#20c686"
         offset="0" />
      <stop
         id="stop1020"
         stop-color="#259d68"
         offset="1" />
    </linearGradient>
    <linearGradient
       gradientTransform="matrix(2.81122 0 0 2.81122 204.301 200.148)"
       gradientUnits="userSpaceOnUse"
       y2="38.25"
       x2="24.705"
       y1="7.996"
       x1="24.535"
       id="c"
       xlink:href="#a" />
    <linearGradient
       gradientUnits="userSpaceOnUse"
       y2="142"
       x2="196"
       y1="183"
       x1="122"
       id="d"
       xlink:href="#b"
       gradientTransform="matrix(1.31915 0 0 1.31915 60.936 60.936)" />
    <filter
       inkscape:collect="always"
       style="color-interpolation-filters:sRGB"
       id="filter1096"
       x="-0.081457323"
       width="1.1629146"
       y="-0.089303166"
       height="1.1786063">
      <feGaussianBlur
         inkscape:collect="always"
         stdDeviation="0.78640849"
         id="feGaussianBlur1098" />
    </filter>
  </defs>
  <sodipodi:namedview
     id="base"
     pagecolor="#ffffff"
     bordercolor="#666666"
     borderopacity="1.0"
     inkscape:pageopacity="0.0"
     inkscape:pageshadow="2"
     inkscape:zoom="1.979899"
     inkscape:cx="25.101238"
     inkscape:cy="69.640015"
     inkscape:document-units="mm"
     inkscape:current-layer="layer1"
     showgrid="true"
     units="px"
     inkscape:window-width="1360"
     inkscape:window-height="732"
     inkscape:window-x="0"
     inkscape:window-y="0"
     inkscape:window-maximized="1"
     showguides="false">
    <inkscape:grid
       type="xygrid"
       id="grid815" />
  </sodipodi:namedview>
  <metadata
     id="metadata5">
    <rdf:RDF>
      <cc:Work
         rdf:about="">
        <dc:format>image/svg+xml</dc:format>
        <dc:type
           rdf:resource="http://purl.org/dc/dcmitype/StillImage" />
        <dc:title></dc:title>
      </cc:Work>
    </rdf:RDF>
  </metadata>
  <g
     inkscape:label="Capa 1"
     inkscape:groupmode="layer"
     id="layer1"
     transform="translate(0,-263.13332)">
    <circle
       style="opacity:0.461;fill:#000000;fill-opacity:1;stroke:none;stroke-width:2;stroke-linecap:square;stroke-linejoin:round;stroke-miterlimit:4;stroke-dasharray:none;stroke-dashoffset:0;stroke-opacity:1;filter:url(#filter947)"
       id="circle921"
       cx="16.536459"
       cy="280.04919"
       r="15.213541" />
    <circle
       style="opacity:1;fill:url(#linearGradient886);fill-opacity:1;stroke:none;stroke-width:2;stroke-linecap:square;stroke-linejoin:round;stroke-miterlimit:4;stroke-dasharray:none;stroke-dashoffset:0;stroke-opacity:1"
       id="path827"
       cx="16.536459"
       cy="280.04919"
       r="15.213541" />
    <circle
       r="15.213541"
       cy="280.04919"
       cx="16.536459"
       id="circle888"
       style="opacity:0.173;fill:url(#linearGradient895);fill-opacity:1;stroke:none;stroke-width:2;stroke-linecap:square;stroke-linejoin:round;stroke-miterlimit:4;stroke-dasharray:none;stroke-dashoffset:0;stroke-opacity:1" />
    <path
       id="path912"
       d="M 62.5 6.4335938 A 57.499998 57.499998 0 0 0 5 63.933594 A 57.499998 57.499998 0 0 0 62.5 121.43359 A 57.499998 57.499998 0 0 0 120 63.933594 A 57.499998 57.499998 0 0 0 62.5 6.4335938 z M 62.5 8.7070312 A 55.227154 55.227154 0 0 1 117.72656 63.933594 A 55.227154 55.227154 0 0 1 62.5 119.16211 A 55.227154 55.227154 0 0 1 7.2734375 63.933594 A 55.227154 55.227154 0 0 1 62.5 8.7070312 z "
       style="opacity:1;fill:url(#linearGradient919);fill-opacity:1;stroke:none;stroke-width:7.55905533;stroke-linecap:square;stroke-linejoin:round;stroke-miterlimit:4;stroke-dasharray:none;stroke-dashoffset:0;stroke-opacity:1"
       transform="matrix(0.26458333,0,0,0.26458333,0,263.13332)" />
    <path
       style="opacity:1;fill:url(#linearGradient910);fill-opacity:1;stroke:none;stroke-width:7.55905533;stroke-linecap:square;stroke-linejoin:round;stroke-miterlimit:4;stroke-dasharray:none;stroke-dashoffset:0;stroke-opacity:1"
       d="M 62.5 6.4335938 A 57.499998 57.499998 0 0 0 5 63.933594 A 57.499998 57.499998 0 0 0 62.5 121.43359 A 57.499998 57.499998 0 0 0 120 63.933594 A 57.499998 57.499998 0 0 0 62.5 6.4335938 z M 62.5 8.7070312 A 55.227154 55.227154 0 0 1 117.72656 63.933594 A 55.227154 55.227154 0 0 1 62.5 119.16211 A 55.227154 55.227154 0 0 1 7.2734375 63.933594 A 55.227154 55.227154 0 0 1 62.5 8.7070312 z "
       id="circle897"
       transform="matrix(0.26458333,0,0,0.26458333,0,263.13332)" />
    <path
       style="fill:#1d7c20;stroke:none;stroke-width:0.154;fill-opacity:1;stroke-miterlimit:4;stroke-dasharray:none;filter:url(#filter1096);opacity:0.454"
       inkscape:connector-curvature="0"
       d="m 20.153312,290.37826 c -1.758421,-0.2921 -4.04151,-2.30452 -6.126427,-5.40014 -0.874448,-1.29858 -1.769269,-2.90248 -2.353469,-4.21799 -0.11721,-0.26379 -0.160073,-0.32729 -0.195527,-0.28945 -0.07091,0.0757 -0.579702,1.18215 -0.847725,1.84361 -0.451114,1.11258 -0.769144,2.17303 -0.951177,3.17342 -0.1166813,0.64082 -0.127,1.88251 -0.018521,2.26695 0.252148,0.89402 0.798513,1.2655 1.650736,1.12262 0.614362,-0.10319 1.358106,-0.43947 2.147093,-0.97155 0.350573,-0.23627 0.442648,-0.28125 0.578115,-0.28204 0.207433,-0.001 0.36195,0.11139 0.434446,0.3167 0.04815,0.13573 0.04789,0.17542 -0.0013,0.30533 -0.0471,0.12462 -0.129117,0.19844 -0.499005,0.44926 -0.51091,0.34661 -1.384829,0.79296 -1.831975,0.93584 -1.171575,0.37491 -2.083064,0.23759 -2.7257371,-0.41064 -0.589227,-0.59452 -0.843227,-1.55654 -0.7649104,-2.89824 0.1018646,-1.74599 0.8694209,-4.12936 2.0822705,-6.46616 l 0.304007,-0.58578 -0.229659,-0.62177 c -0.219868,-0.59452 -0.654843,-1.9738 -0.654843,-2.07619 0,-0.0754 -0.132821,-0.0598 -0.7162276,0.0836 -1.3361458,0.32888 -2.3291271,0.74718 -3.0411208,1.28164 -1.3996458,1.0504 -1.0289646,2.2352 1.0683875,3.41498 0.3341688,0.18785 0.4111625,0.28919 0.4111625,0.53922 0,0.1307 -0.023813,0.18441 -0.1312333,0.29157 -0.2293938,0.22939 -0.4429125,0.1815 -1.1509376,-0.2577 -1.0239375,-0.635 -1.6716374,-1.35785 -1.8997083,-2.12064 -0.083344,-0.27834 -0.083608,-0.83952 -2.646e-4,-1.11945 0.1209146,-0.40852 0.3246438,-0.7329 0.69215,-1.10252 0.8239125,-0.82868 2.1902209,-1.465 4.0640001,-1.89257 0.3815291,-0.0873 0.4696351,-0.11959 0.4553481,-0.16827 -0.0098,-0.0333 -0.05345,-0.25135 -0.09684,-0.48498 -0.2545294,-1.36684 -0.2624669,-2.93397 -0.01878,-3.80286 0.280723,-1.00198 0.789252,-1.59835 1.599935,-1.87669 0.330994,-0.11377 0.993511,-0.0958 1.4478,0.0394 0.456671,0.13573 1.023938,0.41486 1.525059,0.75088 0.597164,0.40032 0.773112,0.56806 0.798512,0.76147 0.05821,0.4445 -0.401108,0.68422 -0.776023,0.40508 -1.175279,-0.87498 -2.014273,-1.20809 -2.686579,-1.06627 -0.488421,0.10319 -0.861748,0.60537 -1.050396,1.41287 -0.07488,0.32094 -0.0852,0.47361 -0.08546,1.27186 -2.64e-4,0.90646 0.0127,1.05224 0.178065,2.00263 l 0.08308,0.47757 0.196056,-0.0238 c 0.899848,-0.10875 1.675342,-0.18442 2.153708,-0.21008 l 0.567267,-0.0304 0.08864,-0.11377 c 0.958586,-1.23243 2.35294,-2.67203 3.409157,-3.51949 2.023004,-1.62348 3.758141,-2.18731 4.951677,-1.60893 0.674423,0.3265 1.100666,0.99404 1.265766,1.98226 0.107686,0.64532 0.02249,2.17223 -0.14552,2.60271 -0.05768,0.14843 -0.243946,0.25558 -0.4445,0.25585 -0.125942,0 -0.192088,-0.0257 -0.289455,-0.11245 -0.115358,-0.10319 -0.125941,-0.13176 -0.125147,-0.33787 2.64e-4,-0.12383 0.03307,-0.47705 0.07223,-0.78502 0.114035,-0.89509 0.03572,-1.72244 -0.208492,-2.20133 -0.118533,-0.23231 -0.361156,-0.48049 -0.570971,-0.58394 -0.157162,-0.0775 -0.238125,-0.0892 -0.60616,-0.0881 -0.386556,10e-4 -0.462227,0.0143 -0.844021,0.14447 -1.180306,0.40243 -2.532856,1.37027 -3.984625,2.85115 a 28.124944,28.124944 0 0 0 -0.925512,0.99748 l -0.420688,0.48233 0.365654,0.009 c 5.117042,0.12145 9.42975,1.29646 11.462279,3.12314 0.45773,0.41117 0.851959,1.02368 0.966259,1.50125 0.05821,0.24209 0.05927,0.71226 0.0021,0.96388 -0.209814,0.92869 -1.231106,1.84176 -2.719916,2.43205 -0.235215,0.0931 -0.284957,0.10054 -0.411957,0.0627 -0.208227,-0.0624 -0.343429,-0.23839 -0.343429,-0.44741 0,-0.24553 0.118269,-0.36353 0.543454,-0.5416 0.924719,-0.38788 1.64174,-0.93133 1.913996,-1.45124 0.09472,-0.18044 0.109009,-0.25082 0.108744,-0.53604 0,-0.29634 -0.01243,-0.35216 -0.129646,-0.57891 -0.164835,-0.32015 -0.710141,-0.86678 -1.162579,-1.16602 -2.2225,-1.47003 -6.410325,-2.42438 -10.638896,-2.42438 h -0.697164 l -0.262996,0.35719 c -0.393171,0.53393 -1.246187,1.8325 -1.585912,2.41353 l -0.299509,0.51223 0.205846,0.47228 c 2.06375,4.73684 5.267854,8.73602 7.631377,9.525 0.513821,0.17172 0.902494,0.17992 1.217084,0.0265 0.587904,-0.28787 0.895879,-1.03452 0.943239,-2.28759 0.07885,-2.09126 -0.674158,-4.98131 -2.078566,-7.97665 -0.145521,-0.31036 -0.233098,-0.54743 -0.233098,-0.63156 0,-0.25348 0.207962,-0.45244 0.468841,-0.449 0.231511,0.003 0.333111,0.0958 0.509588,0.4654 1.139031,2.38204 1.898121,4.76858 2.181754,6.85747 0.09525,0.70247 0.09578,2.13228 0.0013,2.64319 -0.151606,0.81703 -0.421481,1.40599 -0.834496,1.82033 -0.503237,0.50536 -1.156229,0.69797 -1.928812,0.56991 z m -8.170333,-12.71587 c 0.143933,-0.23389 0.424656,-0.66305 0.623358,-0.95382 0.198967,-0.29105 0.361685,-0.54081 0.361685,-0.5551 0,-0.0497 -1.824302,0.13494 -1.879335,0.19024 -0.03334,0.0331 0.07593,0.43947 0.318823,1.18639 0.176742,0.54319 0.224631,0.65352 0.264583,0.60986 0.02646,-0.0291 0.166688,-0.24421 0.310621,-0.47784 z m 3.892021,3.4626 c -0.579967,-0.2069 -0.918898,-0.69083 -0.911225,-1.30096 0.0045,-0.31935 0.07673,-0.53816 0.263525,-0.79269 0.473339,-0.64452 1.439333,-0.71781 2.021416,-0.15346 0.668073,0.6485 0.470165,1.80552 -0.374914,2.19261 -0.291042,0.13308 -0.714375,0.1561 -0.998802,0.0545 z"
       id="path1086" />
    <path
       id="path1039-0"
       d="m 20.153312,290.37826 c -1.758421,-0.2921 -4.04151,-2.30452 -6.126427,-5.40014 -0.874448,-1.29858 -1.769269,-2.90248 -2.353469,-4.21799 -0.11721,-0.26379 -0.160073,-0.32729 -0.195527,-0.28945 -0.07091,0.0757 -0.579702,1.18215 -0.847725,1.84361 -0.451114,1.11258 -0.769144,2.17303 -0.951177,3.17342 -0.1166813,0.64082 -0.127,1.88251 -0.018521,2.26695 0.252148,0.89402 0.798513,1.2655 1.650736,1.12262 0.614362,-0.10319 1.358106,-0.43947 2.147093,-0.97155 0.350573,-0.23627 0.442648,-0.28125 0.578115,-0.28204 0.207433,-0.001 0.36195,0.11139 0.434446,0.3167 0.04815,0.13573 0.04789,0.17542 -0.0013,0.30533 -0.0471,0.12462 -0.129117,0.19844 -0.499005,0.44926 -0.51091,0.34661 -1.384829,0.79296 -1.831975,0.93584 -1.171575,0.37491 -2.083064,0.23759 -2.7257371,-0.41064 -0.589227,-0.59452 -0.843227,-1.55654 -0.7649104,-2.89824 0.1018646,-1.74599 0.8694209,-4.12936 2.0822705,-6.46616 l 0.304007,-0.58578 -0.229659,-0.62177 c -0.219868,-0.59452 -0.654843,-1.9738 -0.654843,-2.07619 0,-0.0754 -0.132821,-0.0598 -0.7162276,0.0836 -1.3361458,0.32888 -2.3291271,0.74718 -3.0411208,1.28164 -1.3996458,1.0504 -1.0289646,2.2352 1.0683875,3.41498 0.3341688,0.18785 0.4111625,0.28919 0.4111625,0.53922 0,0.1307 -0.023813,0.18441 -0.1312333,0.29157 -0.2293938,0.22939 -0.4429125,0.1815 -1.1509376,-0.2577 -1.0239375,-0.635 -1.6716374,-1.35785 -1.8997083,-2.12064 -0.083344,-0.27834 -0.083608,-0.83952 -2.646e-4,-1.11945 0.1209146,-0.40852 0.3246438,-0.7329 0.69215,-1.10252 0.8239125,-0.82868 2.1902209,-1.465 4.0640001,-1.89257 0.3815291,-0.0873 0.4696351,-0.11959 0.4553481,-0.16827 -0.0098,-0.0333 -0.05345,-0.25135 -0.09684,-0.48498 -0.2545294,-1.36684 -0.2624669,-2.93397 -0.01878,-3.80286 0.280723,-1.00198 0.789252,-1.59835 1.599935,-1.87669 0.330994,-0.11377 0.993511,-0.0958 1.4478,0.0394 0.456671,0.13573 1.023938,0.41486 1.525059,0.75088 0.597164,0.40032 0.773112,0.56806 0.798512,0.76147 0.05821,0.4445 -0.401108,0.68422 -0.776023,0.40508 -1.175279,-0.87498 -2.014273,-1.20809 -2.686579,-1.06627 -0.488421,0.10319 -0.861748,0.60537 -1.050396,1.41287 -0.07488,0.32094 -0.0852,0.47361 -0.08546,1.27186 -2.64e-4,0.90646 0.0127,1.05224 0.178065,2.00263 l 0.08308,0.47757 0.196056,-0.0238 c 0.899848,-0.10875 1.675342,-0.18442 2.153708,-0.21008 l 0.567267,-0.0304 0.08864,-0.11377 c 0.958586,-1.23243 2.35294,-2.67203 3.409157,-3.51949 2.023004,-1.62348 3.758141,-2.18731 4.951677,-1.60893 0.674423,0.3265 1.100666,0.99404 1.265766,1.98226 0.107686,0.64532 0.02249,2.17223 -0.14552,2.60271 -0.05768,0.14843 -0.243946,0.25558 -0.4445,0.25585 -0.125942,0 -0.192088,-0.0257 -0.289455,-0.11245 -0.115358,-0.10319 -0.125941,-0.13176 -0.125147,-0.33787 2.64e-4,-0.12383 0.03307,-0.47705 0.07223,-0.78502 0.114035,-0.89509 0.03572,-1.72244 -0.208492,-2.20133 -0.118533,-0.23231 -0.361156,-0.48049 -0.570971,-0.58394 -0.157162,-0.0775 -0.238125,-0.0892 -0.60616,-0.0881 -0.386556,10e-4 -0.462227,0.0143 -0.844021,0.14447 -1.180306,0.40243 -2.532856,1.37027 -3.984625,2.85115 a 28.124944,28.124944 0 0 0 -0.925512,0.99748 l -0.420688,0.48233 0.365654,0.009 c 5.117042,0.12145 9.42975,1.29646 11.462279,3.12314 0.45773,0.41117 0.851959,1.02368 0.966259,1.50125 0.05821,0.24209 0.05927,0.71226 0.0021,0.96388 -0.209814,0.92869 -1.231106,1.84176 -2.719916,2.43205 -0.235215,0.0931 -0.284957,0.10054 -0.411957,0.0627 -0.208227,-0.0624 -0.343429,-0.23839 -0.343429,-0.44741 0,-0.24553 0.118269,-0.36353 0.543454,-0.5416 0.924719,-0.38788 1.64174,-0.93133 1.913996,-1.45124 0.09472,-0.18044 0.109009,-0.25082 0.108744,-0.53604 0,-0.29634 -0.01243,-0.35216 -0.129646,-0.57891 -0.164835,-0.32015 -0.710141,-0.86678 -1.162579,-1.16602 -2.2225,-1.47003 -6.410325,-2.42438 -10.638896,-2.42438 h -0.697164 l -0.262996,0.35719 c -0.393171,0.53393 -1.246187,1.8325 -1.585912,2.41353 l -0.299509,0.51223 0.205846,0.47228 c 2.06375,4.73684 5.267854,8.73602 7.631377,9.525 0.513821,0.17172 0.902494,0.17992 1.217084,0.0265 0.587904,-0.28787 0.895879,-1.03452 0.943239,-2.28759 0.07885,-2.09126 -0.674158,-4.98131 -2.078566,-7.97665 -0.145521,-0.31036 -0.233098,-0.54743 -0.233098,-0.63156 0,-0.25348 0.207962,-0.45244 0.468841,-0.449 0.231511,0.003 0.333111,0.0958 0.509588,0.4654 1.139031,2.38204 1.898121,4.76858 2.181754,6.85747 0.09525,0.70247 0.09578,2.13228 0.0013,2.64319 -0.151606,0.81703 -0.421481,1.40599 -0.834496,1.82033 -0.503237,0.50536 -1.156229,0.69797 -1.928812,0.56991 z m -8.170333,-12.71587 c 0.143933,-0.23389 0.424656,-0.66305 0.623358,-0.95382 0.198967,-0.29105 0.361685,-0.54081 0.361685,-0.5551 0,-0.0497 -1.824302,0.13494 -1.879335,0.19024 -0.03334,0.0331 0.07593,0.43947 0.318823,1.18639 0.176742,0.54319 0.224631,0.65352 0.264583,0.60986 0.02646,-0.0291 0.166688,-0.24421 0.310621,-0.47784 z m 3.892021,3.4626 c -0.579967,-0.2069 -0.918898,-0.69083 -0.911225,-1.30096 0.0045,-0.31935 0.07673,-0.53816 0.263525,-0.79269 0.473339,-0.64452 1.439333,-0.71781 2.021416,-0.15346 0.668073,0.6485 0.470165,1.80552 -0.374914,2.19261 -0.291042,0.13308 -0.714375,0.1561 -0.998802,0.0545 z"
       inkscape:connector-curvature="0"
       style="fill:#ffffff;stroke:#ffffff;stroke-width:0.15372291" />
  </g>
</svg>
