<?xml version="1.0" encoding="UTF-8" standalone="no"?>
<!-- Created with Inkscape (http://www.inkscape.org/) -->

<svg
   xmlns:dc="http://purl.org/dc/elements/1.1/"
   xmlns:cc="http://creativecommons.org/ns#"
   xmlns:rdf="http://www.w3.org/1999/02/22-rdf-syntax-ns#"
   xmlns:svg="http://www.w3.org/2000/svg"
   xmlns="http://www.w3.org/2000/svg"
   xmlns:xlink="http://www.w3.org/1999/xlink"
   xmlns:sodipodi="http://sodipodi.sourceforge.net/DTD/sodipodi-0.dtd"
   xmlns:inkscape="http://www.inkscape.org/namespaces/inkscape"
   id="svg2"
   version="1.1"
   inkscape:version="0.92.1 r15371"
   width="64"
   height="64"
   sodipodi:docname="google-chrome.svg"
   viewBox="0 0 64 64"
   inkscape:export-filename="/home/silerio/Imágenes/chrome12.png"
   inkscape:export-xdpi="90"
   inkscape:export-ydpi="90">
  <metadata
     id="metadata8">
    <rdf:RDF>
      <cc:Work
         rdf:about="">
        <dc:format>image/svg+xml</dc:format>
        <dc:type
           rdf:resource="http://purl.org/dc/dcmitype/StillImage" />
        <dc:title />
      </cc:Work>
    </rdf:RDF>
  </metadata>
  <defs
     id="defs6">
    <linearGradient
       inkscape:collect="always"
       id="linearGradient4589">
      <stop
         style="stop-color:#64d7c5;stop-opacity:1;"
         offset="0"
         id="stop4585" />
      <stop
         style="stop-color:#64d7c5;stop-opacity:0;"
         offset="1"
         id="stop4587" />
    </linearGradient>
    <linearGradient
       id="linearGradient4579"
       inkscape:collect="always">
      <stop
         style="stop-color:#f3546e;stop-opacity:1"
         offset="0"
         id="stop4575" />
      <stop
         id="stop4577"
         offset="1"
         style="stop-color:#f9a957;stop-opacity:1" />
    </linearGradient>
    <linearGradient
       inkscape:collect="always"
       id="linearGradient877">
      <stop
         id="stop881"
         offset="0"
         style="stop-color:#f9a653;stop-opacity:1" />
      <stop
         style="stop-color:#fbd78f;stop-opacity:1"
         offset="1"
         id="stop875" />
    </linearGradient>
    <linearGradient
       inkscape:collect="always"
       id="linearGradient865">
      <stop
         id="stop871"
         offset="0"
         style="stop-color:#63d2bf;stop-opacity:1" />
      <stop
         style="stop-color:#67e9dc;stop-opacity:1"
         offset="1"
         id="stop863" />
    </linearGradient>
    <linearGradient
       inkscape:collect="always"
       id="linearGradient853">
      <stop
         id="stop859"
         offset="0"
         style="stop-color:#f3546e;stop-opacity:1" />
      <stop
         style="stop-color:#f8807b;stop-opacity:1"
         offset="1"
         id="stop851" />
    </linearGradient>
    <clipPath
       id="clipPath3947"
       clipPathUnits="userSpaceOnUse">
      <ellipse
         ry="212.23589"
         rx="203.24309"
         cy="256.47083"
         cx="256.52075"
         id="ellipse3949"
         style="opacity:1;fill:#ffc82d;fill-opacity:1;stroke:none;stroke-width:0;stroke-linecap:butt;stroke-linejoin:miter;stroke-miterlimit:4;stroke-dasharray:none;stroke-dashoffset:0;stroke-opacity:1" />
    </clipPath>
    <clipPath
       id="clipPath4806"
       clipPathUnits="userSpaceOnUse">
      <circle
         r="211.62711"
         cy="248.91539"
         cx="249.4608"
         id="circle4808"
         style="opacity:1;fill:#f6c439;fill-opacity:1;stroke:none;stroke-width:0;stroke-linecap:butt;stroke-linejoin:miter;stroke-miterlimit:4;stroke-dasharray:none;stroke-dashoffset:0;stroke-opacity:1" />
    </clipPath>
    <clipPath
       id="clipPath4837"
       clipPathUnits="userSpaceOnUse">
      <circle
         r="207.13615"
         cy="256"
         cx="256"
         id="circle4839"
         style="opacity:1;fill:#0fa15f;fill-opacity:1;stroke:none;stroke-width:0;stroke-linecap:butt;stroke-linejoin:miter;stroke-miterlimit:4;stroke-dasharray:none;stroke-dashoffset:0;stroke-opacity:1" />
    </clipPath>
    <clipPath
       id="clipPath5050"
       clipPathUnits="userSpaceOnUse">
      <path
         inkscape:connector-curvature="0"
         id="path5052"
         d="M 255.99999,45.26758 A 210.73167,210.73167 0 0 0 45.267565,256 210.73167,210.73167 0 0 0 255.99999,466.73242 210.73167,210.73167 0 0 0 466.73244,256 210.73167,210.73167 0 0 0 255.99999,45.26758 Z m 0,111.84375 A 98.888542,98.888542 0 0 1 354.88866,256 98.888542,98.888542 0 0 1 255.99999,354.88867 98.888542,98.888542 0 0 1 157.11132,256 98.888542,98.888542 0 0 1 255.99999,157.11133 Z"
         style="opacity:1;fill:#f9f9f9;fill-opacity:1;stroke:none;stroke-width:0;stroke-linecap:butt;stroke-linejoin:miter;stroke-miterlimit:4;stroke-dasharray:none;stroke-dashoffset:0;stroke-opacity:1" />
    </clipPath>
    <clipPath
       id="clipPath5127"
       clipPathUnits="userSpaceOnUse">
      <path
         inkscape:connector-curvature="0"
         id="path5129"
         d="M 255.99999,45.26758 A 210.73167,210.73167 0 0 0 45.26756,256 210.73167,210.73167 0 0 0 255.99999,466.73242 210.73167,210.73167 0 0 0 466.73244,256 210.73167,210.73167 0 0 0 255.99999,45.26758 Z m 0,111.84375 A 98.888542,98.888542 0 0 1 354.88864,256 98.888542,98.888542 0 0 1 255.99999,354.88867 98.888542,98.888542 0 0 1 157.11132,256 98.888542,98.888542 0 0 1 255.99999,157.11133 Z"
         style="opacity:1;fill:#f9f9f9;fill-opacity:1;stroke:none;stroke-width:0;stroke-linecap:butt;stroke-linejoin:miter;stroke-miterlimit:4;stroke-dasharray:none;stroke-dashoffset:0;stroke-opacity:1" />
    </clipPath>
    <clipPath
       clipPathUnits="userSpaceOnUse"
       id="clipPath3898">
      <path
         id="path3900"
         d="m 55.90625,146.625 c -0.555933,0.96227 -1.114024,1.93481 -1.65625,2.90625 0.540984,-0.96928 1.10151,-1.94581 1.65625,-2.90625 z M 396.5,150.21875 c -56.55187,0 -108.27154,20.73776 -147.96875,55 66.86748,43.61442 108.61716,121.31077 102.34375,206.5625 -1.47296,20.01658 -5.50471,39.25363 -11.75,57.375 14.32657,-5.96432 27.91857,-13.39232 40.625,-22.0625 1.02458,-0.69989 2.04619,-1.40613 3.0625,-2.125 27.24965,-19.25151 50.15857,-44.38032 66.75,-73.75 0.6351,-1.12664 1.26035,-2.27059 1.875,-3.40625 0.75104,-1.38473 1.49572,-2.78494 2.21875,-4.1875 0.46981,-0.9135 0.91822,-1.83116 1.375,-2.75 2.32135,-4.65763 4.49475,-9.4093 6.5,-14.25 0.37449,-0.90613 0.73135,-1.80852 1.09375,-2.71875 7.89969,-19.79999 13.11659,-41.04611 15.15625,-63.3125 0.12138,-1.32236 0.24549,-2.64439 0.34375,-3.96875 0.004,-0.0518 -0.004,-0.10442 0,-0.15625 0.45621,-6.19965 0.6366,-12.35925 0.59375,-18.46875 -0.01,-1.29335 -0.0304,-2.58152 -0.0625,-3.875 -0.82814,-34.44372 -9.44198,-67.1926 -24.25,-96.4375 -18.48497,-4.87247 -37.89075,-7.46875 -57.90625,-7.46875 z m -365.75,61.6875 c -0.246006,1.1397 -0.49035,2.2945 -0.71875,3.4375 0.228672,-1.14963 0.472754,-2.29421 0.71875,-3.4375 z m -1.4375,7.21875 c -0.178427,0.9786 -0.334436,1.95682 -0.5,2.9375 0.164559,-0.98169 0.32286,-1.96014 0.5,-2.9375 z"
         style="fill:#f8d544;fill-opacity:1;fill-rule:evenodd;stroke:none"
         inkscape:connector-curvature="0" />
    </clipPath>
    <clipPath
       clipPathUnits="userSpaceOnUse"
       id="clipPath3915">
      <path
         id="path3917"
         d="m 55.90625,146.625 c -0.555933,0.96227 -1.114024,1.93481 -1.65625,2.90625 0.540984,-0.96928 1.10151,-1.94581 1.65625,-2.90625 z M 396.5,150.21875 c -56.55187,0 -108.27154,20.73776 -147.96875,55 66.86748,43.61442 108.61716,121.31077 102.34375,206.5625 -1.47296,20.01658 -5.50471,39.25363 -11.75,57.375 14.32657,-5.96432 27.91857,-13.39232 40.625,-22.0625 1.02458,-0.69989 2.04619,-1.40613 3.0625,-2.125 27.24965,-19.25151 50.15857,-44.38032 66.75,-73.75 0.6351,-1.12664 1.26035,-2.27059 1.875,-3.40625 0.75104,-1.38473 1.49572,-2.78494 2.21875,-4.1875 0.46981,-0.9135 0.91822,-1.83116 1.375,-2.75 2.32135,-4.65763 4.49475,-9.4093 6.5,-14.25 0.37449,-0.90613 0.73135,-1.80852 1.09375,-2.71875 7.89969,-19.79999 13.11659,-41.04611 15.15625,-63.3125 0.12138,-1.32236 0.24549,-2.64439 0.34375,-3.96875 0.004,-0.0518 -0.004,-0.10442 0,-0.15625 0.45621,-6.19965 0.6366,-12.35925 0.59375,-18.46875 -0.01,-1.29335 -0.0304,-2.58152 -0.0625,-3.875 -0.82814,-34.44372 -9.44198,-67.1926 -24.25,-96.4375 -18.48497,-4.87247 -37.89075,-7.46875 -57.90625,-7.46875 z m -365.75,61.6875 c -0.246006,1.1397 -0.49035,2.2945 -0.71875,3.4375 0.228672,-1.14963 0.472754,-2.29421 0.71875,-3.4375 z m -1.4375,7.21875 c -0.178427,0.9786 -0.334436,1.95682 -0.5,2.9375 0.164559,-0.98169 0.32286,-1.96014 0.5,-2.9375 z"
         style="fill:#f8d544;fill-opacity:1;fill-rule:evenodd;stroke:none"
         inkscape:connector-curvature="0" />
    </clipPath>
    <clipPath
       clipPathUnits="userSpaceOnUse"
       id="clipPath3924">
      <path
         id="path3926"
         d="m 45.1875,167.625 c -33.629633,75.62504 -24.433208,166.99318 31.46875,235.5 64.8405,79.46081 172.39314,103.49563 262.46875,66.03125 6.24529,-18.12137 10.27704,-37.35842 11.75,-57.375 3.26386,-44.35382 -6.49375,-86.65669 -26,-123.1875 C 237.79159,318.32207 137.64904,292.84817 76.0625,217.375 63.373255,201.82456 53.107889,185.07938 45.1875,167.625 Z m 433.46875,86.5 c 0.031,1.29038 0.0534,2.58002 0.0625,3.875 -0.01,-1.29335 -0.0304,-2.58152 -0.0625,-3.875 z m -0.53125,22.5 c -0.0985,1.32574 -0.22296,2.65012 -0.34375,3.96875 0.12138,-1.32236 0.24549,-2.64439 0.34375,-3.96875 z m -15.5,67.28125 c -0.36422,0.91289 -0.71814,1.81203 -1.09375,2.71875 0.37449,-0.90613 0.73135,-1.80852 1.09375,-2.71875 z m -7.59375,16.96875 c -0.45598,0.91489 -0.90716,1.84246 -1.375,2.75 0.46981,-0.9135 0.91822,-1.83116 1.375,-2.75 z m -3.59375,6.9375 c -0.61851,1.14036 -1.23775,2.2782 -1.875,3.40625 0.6351,-1.12664 1.26035,-2.27059 1.875,-3.40625 z m -3.8125,6.75 c -1.31156,2.23109 -2.67818,4.4451 -4.0625,6.625 1.39037,-2.19282 2.75345,-4.39333 4.0625,-6.625 z m -4.0625,6.625 c -0.69216,1.08995 -1.38374,2.17313 -2.09375,3.25 0.70979,-1.07796 1.40394,-2.16206 2.09375,-3.25 z m -4.25,6.46875 c -3.6382,5.31793 -7.50034,10.46606 -11.5625,15.4375 4.0935,-5.0076 7.95449,-10.15863 11.5625,-15.4375 z m -11.5625,15.4375 c -0.81243,0.99429 -1.64003,1.9889 -2.46875,2.96875 0.8345,-0.98582 1.65343,-1.97137 2.46875,-2.96875 z m -2.46875,2.96875 c -2.48616,2.93955 -5.02754,5.78764 -7.65625,8.59375 2.63807,-2.81243 5.18579,-5.67531 7.65625,-8.59375 z m -7.65625,8.59375 c -0.87624,0.93537 -1.76462,1.89234 -2.65625,2.8125 0.89872,-0.92597 1.77613,-1.87421 2.65625,-2.8125 z m -2.65625,2.8125 c -0.89163,0.92016 -1.7807,1.814 -2.6875,2.71875 0.9037,-0.90031 1.80184,-1.80624 2.6875,-2.71875 z M 403.78125,428.25 c -0.90779,0.81718 -1.82923,1.6038 -2.75,2.40625 0.91932,-0.8004 1.84662,-1.59412 2.75,-2.40625 z m -2.75,2.40625 c -0.96523,0.84119 -1.92697,1.67518 -2.90625,2.5 0.97937,-0.82445 1.9443,-1.66248 2.90625,-2.5 z m -18.21875,14.3125 c -1.00914,0.71295 -2.04155,1.42836 -3.0625,2.125 1.02458,-0.69989 2.04619,-1.40613 3.0625,-2.125 z m -12.90625,8.5 c -2.06861,1.26035 -4.13972,2.49268 -6.25,3.6875 2.10283,-1.19151 4.17541,-2.42223 6.25,-3.6875 z m -6.5625,3.875 c -1.08671,0.61298 -2.18384,1.1859 -3.28125,1.78125 1.09181,-0.59272 2.19657,-1.16897 3.28125,-1.78125 z m -3.28125,1.78125 c -1.1304,0.61325 -2.26471,1.21814 -3.40625,1.8125 1.13498,-0.59132 2.27862,-1.20033 3.40625,-1.8125 z m -6.875,3.59375 c -1.15246,0.57528 -2.3056,1.13149 -3.46875,1.6875 1.15981,-0.55435 2.31589,-1.11197 3.46875,-1.6875 z m -3.46875,1.6875 c -1.16315,0.55601 -2.32638,1.08846 -3.5,1.625 1.1708,-0.53508 2.33593,-1.06861 3.5,-1.625 z"
         style="fill:#53b7af;fill-opacity:1;fill-rule:evenodd;stroke:none"
         inkscape:connector-curvature="0" />
    </clipPath>
    <clipPath
       clipPathUnits="userSpaceOnUse"
       id="clipPath3933">
      <path
         id="path3935"
         d="m 252.21875,33.21875 c -92.31738,0 -171.726889,55.205633 -207.03125,134.40625 7.920389,17.45438 18.185755,34.19956 30.875,49.75 29.79273,36.51045 68.59862,61.29251 110.59375,73.8125 C 220.4331,208.49848 301.65937,150.21875 396.5,150.21875 c 20.0707,0 39.53166,2.60145 58.0625,7.5 -37.33141,-73.867881 -113.9231,-124.5 -202.34375,-124.5 z M 38.09375,185.625 c -0.420007,1.21295 -0.81887,2.43404 -1.21875,3.65625 0.399463,-1.22246 0.798213,-2.43986 1.21875,-3.65625 z m -1.21875,3.65625 c -0.40202,1.22875 -0.806023,2.4496 -1.1875,3.6875 0.37836,-1.22823 0.788037,-2.46504 1.1875,-3.6875 z m -2.28125,7.375 c -0.354411,1.22416 -0.697028,2.4549 -1.03125,3.6875 0.336064,-1.2389 0.674023,-2.45379 1.03125,-3.6875 z m -1.03125,3.6875 c -0.337962,1.2464 -0.682877,2.49517 -1,3.75 0.314872,-1.24379 0.663936,-2.5111 1,-3.75 z m -2.8125,11.5625 c -0.245996,1.14329 -0.490078,2.28787 -0.71875,3.4375 0.2284,-1.143 0.472744,-2.2978 0.71875,-3.4375 z m -1.4375,7.21875 c -0.17714,0.97736 -0.335441,1.95581 -0.5,2.9375 0.165564,-0.98068 0.321573,-1.9589 0.5,-2.9375 z m 449.34375,35 c 0.0321,1.29348 0.0525,2.58165 0.0625,3.875 -0.009,-1.29498 -0.0315,-2.58462 -0.0625,-3.875 z m -0.53125,22.5 c -0.0983,1.32436 -0.22237,2.64639 -0.34375,3.96875 0.12079,-1.31863 0.2453,-2.64301 0.34375,-3.96875 z m -15.5,67.28125 c -0.3624,0.91023 -0.71926,1.81262 -1.09375,2.71875 0.37561,-0.90672 0.72953,-1.80586 1.09375,-2.71875 z m -7.59375,16.96875 c -0.45678,0.91884 -0.90519,1.8365 -1.375,2.75 0.46784,-0.90754 0.91902,-1.83511 1.375,-2.75 z m -3.59375,6.9375 c -0.61465,1.13566 -1.2399,2.27961 -1.875,3.40625 0.63725,-1.12805 1.25649,-2.26589 1.875,-3.40625 z m -68.625,77.15625 c -1.01631,0.71887 -2.03792,1.42511 -3.0625,2.125 1.02095,-0.69664 2.05336,-1.41205 3.0625,-2.125 z"
         style="fill:#f15852;fill-opacity:1;fill-rule:evenodd;stroke:none"
         inkscape:connector-curvature="0" />
    </clipPath>
    <clipPath
       clipPathUnits="userSpaceOnUse"
       id="clipPath4054">
      <path
         id="path4056"
         d="m 55.90625,146.625 c -0.555933,0.96227 -1.114024,1.93481 -1.65625,2.90625 0.540984,-0.96928 1.10151,-1.94581 1.65625,-2.90625 z M 396.5,150.21875 c -56.55187,0 -108.27154,20.73776 -147.96875,55 66.86748,43.61442 108.61716,121.31077 102.34375,206.5625 -1.47296,20.01658 -5.50471,39.25363 -11.75,57.375 14.32657,-5.96432 27.91857,-13.39232 40.625,-22.0625 1.02458,-0.69989 2.04619,-1.40613 3.0625,-2.125 27.24965,-19.25151 50.15857,-44.38032 66.75,-73.75 0.6351,-1.12664 1.26035,-2.27059 1.875,-3.40625 0.75104,-1.38473 1.49572,-2.78494 2.21875,-4.1875 0.46981,-0.9135 0.91822,-1.83116 1.375,-2.75 2.32135,-4.65763 4.49475,-9.4093 6.5,-14.25 0.37449,-0.90613 0.73135,-1.80852 1.09375,-2.71875 7.89969,-19.79999 13.11659,-41.04611 15.15625,-63.3125 0.12138,-1.32236 0.24549,-2.64439 0.34375,-3.96875 0.004,-0.0518 -0.004,-0.10442 0,-0.15625 0.45621,-6.19965 0.6366,-12.35925 0.59375,-18.46875 -0.01,-1.29335 -0.0304,-2.58152 -0.0625,-3.875 -0.82814,-34.44372 -9.44198,-67.1926 -24.25,-96.4375 -18.48497,-4.87247 -37.89075,-7.46875 -57.90625,-7.46875 z m -365.75,61.6875 c -0.246006,1.1397 -0.49035,2.2945 -0.71875,3.4375 0.228672,-1.14963 0.472754,-2.29421 0.71875,-3.4375 z m -1.4375,7.21875 c -0.178427,0.9786 -0.334436,1.95682 -0.5,2.9375 0.164559,-0.98169 0.32286,-1.96014 0.5,-2.9375 z"
         style="fill:#f8d544;fill-opacity:1;fill-rule:evenodd;stroke:none"
         inkscape:connector-curvature="0" />
    </clipPath>
    <clipPath
       clipPathUnits="userSpaceOnUse"
       id="clipPath4068">
      <path
         id="path4070"
         d="m 45.1875,167.625 c -33.629633,75.62504 -24.433208,166.99318 31.46875,235.5 64.8405,79.46081 172.39314,103.49563 262.46875,66.03125 6.24529,-18.12137 10.27704,-37.35842 11.75,-57.375 3.26386,-44.35382 -6.49375,-86.65669 -26,-123.1875 C 237.79159,318.32207 137.64904,292.84817 76.0625,217.375 63.373255,201.82456 53.107889,185.07938 45.1875,167.625 Z m 433.46875,86.5 c 0.031,1.29038 0.0534,2.58002 0.0625,3.875 -0.01,-1.29335 -0.0304,-2.58152 -0.0625,-3.875 z m -0.53125,22.5 c -0.0985,1.32574 -0.22296,2.65012 -0.34375,3.96875 0.12138,-1.32236 0.24549,-2.64439 0.34375,-3.96875 z m -15.5,67.28125 c -0.36422,0.91289 -0.71814,1.81203 -1.09375,2.71875 0.37449,-0.90613 0.73135,-1.80852 1.09375,-2.71875 z m -7.59375,16.96875 c -0.45598,0.91489 -0.90716,1.84246 -1.375,2.75 0.46981,-0.9135 0.91822,-1.83116 1.375,-2.75 z m -3.59375,6.9375 c -0.61851,1.14036 -1.23775,2.2782 -1.875,3.40625 0.6351,-1.12664 1.26035,-2.27059 1.875,-3.40625 z m -3.8125,6.75 c -1.31156,2.23109 -2.67818,4.4451 -4.0625,6.625 1.39037,-2.19282 2.75345,-4.39333 4.0625,-6.625 z m -4.0625,6.625 c -0.69216,1.08995 -1.38374,2.17313 -2.09375,3.25 0.70979,-1.07796 1.40394,-2.16206 2.09375,-3.25 z m -4.25,6.46875 c -3.6382,5.31793 -7.50034,10.46606 -11.5625,15.4375 4.0935,-5.0076 7.95449,-10.15863 11.5625,-15.4375 z m -11.5625,15.4375 c -0.81243,0.99429 -1.64003,1.9889 -2.46875,2.96875 0.8345,-0.98582 1.65343,-1.97137 2.46875,-2.96875 z m -2.46875,2.96875 c -2.48616,2.93955 -5.02754,5.78764 -7.65625,8.59375 2.63807,-2.81243 5.18579,-5.67531 7.65625,-8.59375 z m -7.65625,8.59375 c -0.87624,0.93537 -1.76462,1.89234 -2.65625,2.8125 0.89872,-0.92597 1.77613,-1.87421 2.65625,-2.8125 z m -2.65625,2.8125 c -0.89163,0.92016 -1.7807,1.814 -2.6875,2.71875 0.9037,-0.90031 1.80184,-1.80624 2.6875,-2.71875 z M 403.78125,428.25 c -0.90779,0.81718 -1.82923,1.6038 -2.75,2.40625 0.91932,-0.8004 1.84662,-1.59412 2.75,-2.40625 z m -2.75,2.40625 c -0.96523,0.84119 -1.92697,1.67518 -2.90625,2.5 0.97937,-0.82445 1.9443,-1.66248 2.90625,-2.5 z m -18.21875,14.3125 c -1.00914,0.71295 -2.04155,1.42836 -3.0625,2.125 1.02458,-0.69989 2.04619,-1.40613 3.0625,-2.125 z m -12.90625,8.5 c -2.06861,1.26035 -4.13972,2.49268 -6.25,3.6875 2.10283,-1.19151 4.17541,-2.42223 6.25,-3.6875 z m -6.5625,3.875 c -1.08671,0.61298 -2.18384,1.1859 -3.28125,1.78125 1.09181,-0.59272 2.19657,-1.16897 3.28125,-1.78125 z m -3.28125,1.78125 c -1.1304,0.61325 -2.26471,1.21814 -3.40625,1.8125 1.13498,-0.59132 2.27862,-1.20033 3.40625,-1.8125 z m -6.875,3.59375 c -1.15246,0.57528 -2.3056,1.13149 -3.46875,1.6875 1.15981,-0.55435 2.31589,-1.11197 3.46875,-1.6875 z m -3.46875,1.6875 c -1.16315,0.55601 -2.32638,1.08846 -3.5,1.625 1.1708,-0.53508 2.33593,-1.06861 3.5,-1.625 z"
         style="fill:#53b7af;fill-opacity:1;fill-rule:evenodd;stroke:none"
         inkscape:connector-curvature="0" />
    </clipPath>
    <clipPath
       clipPathUnits="userSpaceOnUse"
       id="clipPath4077">
      <path
         id="path4079"
         d="m 252.21875,33.21875 c -92.31738,0 -171.726889,55.205633 -207.03125,134.40625 7.920389,17.45438 18.185755,34.19956 30.875,49.75 29.79273,36.51045 68.59862,61.29251 110.59375,73.8125 C 220.4331,208.49848 301.65937,150.21875 396.5,150.21875 c 20.0707,0 39.53166,2.60145 58.0625,7.5 -37.33141,-73.867881 -113.9231,-124.5 -202.34375,-124.5 z M 38.09375,185.625 c -0.420007,1.21295 -0.81887,2.43404 -1.21875,3.65625 0.399463,-1.22246 0.798213,-2.43986 1.21875,-3.65625 z m -1.21875,3.65625 c -0.40202,1.22875 -0.806023,2.4496 -1.1875,3.6875 0.37836,-1.22823 0.788037,-2.46504 1.1875,-3.6875 z m -2.28125,7.375 c -0.354411,1.22416 -0.697028,2.4549 -1.03125,3.6875 0.336064,-1.2389 0.674023,-2.45379 1.03125,-3.6875 z m -1.03125,3.6875 c -0.337962,1.2464 -0.682877,2.49517 -1,3.75 0.314872,-1.24379 0.663936,-2.5111 1,-3.75 z m -2.8125,11.5625 c -0.245996,1.14329 -0.490078,2.28787 -0.71875,3.4375 0.2284,-1.143 0.472744,-2.2978 0.71875,-3.4375 z m -1.4375,7.21875 c -0.17714,0.97736 -0.335441,1.95581 -0.5,2.9375 0.165564,-0.98068 0.321573,-1.9589 0.5,-2.9375 z m 449.34375,35 c 0.0321,1.29348 0.0525,2.58165 0.0625,3.875 -0.009,-1.29498 -0.0315,-2.58462 -0.0625,-3.875 z m -0.53125,22.5 c -0.0983,1.32436 -0.22237,2.64639 -0.34375,3.96875 0.12079,-1.31863 0.2453,-2.64301 0.34375,-3.96875 z m -15.5,67.28125 c -0.3624,0.91023 -0.71926,1.81262 -1.09375,2.71875 0.37561,-0.90672 0.72953,-1.80586 1.09375,-2.71875 z m -7.59375,16.96875 c -0.45678,0.91884 -0.90519,1.8365 -1.375,2.75 0.46784,-0.90754 0.91902,-1.83511 1.375,-2.75 z m -3.59375,6.9375 c -0.61465,1.13566 -1.2399,2.27961 -1.875,3.40625 0.63725,-1.12805 1.25649,-2.26589 1.875,-3.40625 z m -68.625,77.15625 c -1.01631,0.71887 -2.03792,1.42511 -3.0625,2.125 1.02095,-0.69664 2.05336,-1.41205 3.0625,-2.125 z"
         style="fill:#f15852;fill-opacity:1;fill-rule:evenodd;stroke:none"
         inkscape:connector-curvature="0" />
    </clipPath>
    <linearGradient
       inkscape:collect="always"
       xlink:href="#linearGradient853"
       id="linearGradient857"
       gradientUnits="userSpaceOnUse"
       x1="118.50412"
       y1="261.57184"
       x2="326.66562"
       y2="78.918694" />
    <linearGradient
       inkscape:collect="always"
       xlink:href="#linearGradient865"
       id="linearGradient869"
       gradientUnits="userSpaceOnUse"
       x1="340.66394"
       y1="378.9382"
       x2="122.25031"
       y2="397.75336" />
    <linearGradient
       inkscape:collect="always"
       xlink:href="#linearGradient877"
       id="linearGradient879"
       x1="325.20157"
       y1="169.60646"
       x2="410.89487"
       y2="369.94788"
       gradientUnits="userSpaceOnUse" />
    <linearGradient
       gradientTransform="matrix(0.1355011,0,0,0.1355011,80.02359,-1.334404)"
       inkscape:collect="always"
       xlink:href="#linearGradient4579"
       id="linearGradient857-6"
       gradientUnits="userSpaceOnUse"
       x1="118.50412"
       y1="261.57184"
       x2="276.07443"
       y2="161.46222" />
    <linearGradient
       inkscape:collect="always"
       xlink:href="#linearGradient4589"
       id="linearGradient4591"
       x1="120.29501"
       y1="41.629925"
       x2="113.68248"
       y2="30.264784"
       gradientUnits="userSpaceOnUse" />
  </defs>
  <sodipodi:namedview
     pagecolor="#ffffff"
     bordercolor="#666666"
     borderopacity="1"
     objecttolerance="10"
     gridtolerance="10"
     guidetolerance="10"
     inkscape:pageopacity="0"
     inkscape:pageshadow="2"
     inkscape:window-width="1920"
     inkscape:window-height="1040"
     id="namedview4"
     showgrid="false"
     inkscape:zoom="5.5432678"
     inkscape:cx="130.46964"
     inkscape:cy="37.8282"
     inkscape:window-x="0"
     inkscape:window-y="0"
     inkscape:window-maximized="1"
     inkscape:current-layer="svg2"
     inkscape:document-units="px"
     showguides="true"
     inkscape:guide-bbox="true" />
  <g
     id="g4595"
     transform="translate(-82.619156,-1.9622651)">
    <path
       sodipodi:nodetypes="scscccccccccccccccccscccccccccc"
       inkscape:connector-curvature="0"
       id="path3847-1"
       d="m 114.19922,3.1660156 c -12.50911,0 -23.268956,7.4811194 -28.052736,18.2128904 -4.556852,10.247276 -3.311104,22.627406 4.263672,31.910156 8.785959,10.767027 23.359114,14.02373 35.564454,8.947266 1.94127,-0.808172 3.78413,-1.813462 5.50586,-2.988281 0.13883,-0.09484 0.27634,-0.191655 0.41406,-0.289063 3.69235,-2.608601 6.79677,-6.012563 9.04492,-9.992187 0.0861,-0.152661 0.17062,-0.309008 0.25391,-0.462891 0.10177,-0.187632 0.20281,-0.376357 0.30078,-0.566406 0.0637,-0.12378 0.1256,-0.248543 0.1875,-0.373047 0.31454,-0.631114 0.60915,-1.27572 0.88086,-1.931641 0.0507,-0.122782 0.0974,-0.24385 0.14648,-0.367187 1.07041,-2.68292 1.77831,-5.562958 2.05469,-8.580078 0.0165,-0.179182 0.0336,-0.357658 0.0469,-0.537109 5.4e-4,-0.007 -5.5e-4,-0.01447 0,-0.02148 0.0618,-0.84006 0.0859,-1.674109 0.0801,-2.501953 -0.001,-0.175251 -0.004,-0.350123 -0.008,-0.525391 -0.11222,-4.667162 -1.2806,-9.10369 -3.28711,-13.066406 -4.58789,-0.881696 -3.99753,-0.975144 0,0 0.007,0.0018 0.0145,0.0021 0.0215,0.0039 C 136.55874,10.02793 126.18031,3.1660156 114.19922,3.1660156 Z M 87.599609,18.533203 c -0.07533,0.130388 -0.151137,0.2629 -0.224609,0.394531 0.0733,-0.131339 0.149441,-0.264391 0.224609,-0.394531 z m 26.117191,7.951172 c 4.33734,2.833308 7.8804,6.733079 10.31445,11.289063 -6.08779,2.075052 -12.64093,2.14496 -18.70898,0.335937 1.84828,-4.519232 4.75496,-8.484271 8.39453,-11.625 z m 16.42968,33.626953 c -0.2803,0.170779 -0.56171,0.3381 -0.84765,0.5 0.28493,-0.161451 0.56654,-0.328554 0.84765,-0.5 z"
       style="fill:url(#linearGradient857-6);fill-opacity:1;fill-rule:evenodd;stroke:none;stroke-width:0.1355011" />
    <path
       style="fill:url(#linearGradient4591);fill-opacity:1;fill-rule:evenodd;stroke:none;stroke-width:0.1355011"
       d="m 114.19922,3.1660156 c -12.50911,0 -23.268956,7.4811194 -28.052736,18.2128904 -4.556852,10.247276 -3.311104,22.627406 4.263672,31.910156 8.785959,10.767027 23.359114,14.02373 35.564454,8.947266 1.94127,-0.808172 3.78413,-1.813462 5.50586,-2.988281 0.13883,-0.09484 0.27634,-0.191655 0.41406,-0.289063 3.69235,-2.608601 6.79677,-6.012563 9.04492,-9.992187 0.0861,-0.152661 0.17062,-0.309008 0.25391,-0.462891 0.10177,-0.187632 0.20281,-0.376357 0.30078,-0.566406 0.0637,-0.12378 0.1256,-0.248543 0.1875,-0.373047 0.31454,-0.631114 0.60915,-1.27572 0.88086,-1.931641 0.0507,-0.122782 0.0974,-0.24385 0.14648,-0.367187 1.07041,-2.68292 1.77831,-5.562958 2.05469,-8.580078 0.0165,-0.179182 0.0336,-0.357658 0.0469,-0.537109 5.4e-4,-0.007 -5.5e-4,-0.01447 0,-0.02148 0.0618,-0.84006 0.0859,-1.674109 0.0801,-2.501953 -0.001,-0.175251 -0.004,-0.350123 -0.008,-0.525391 -0.11222,-4.667162 -1.2806,-9.10369 -3.28711,-13.066406 -4.58789,-0.881696 -3.99753,-0.975144 0,0 0.007,0.0018 0.0145,0.0021 0.0215,0.0039 C 136.55874,10.02793 126.18031,3.1660156 114.19922,3.1660156 Z M 87.599609,18.533203 c -0.07533,0.130388 -0.151137,0.2629 -0.224609,0.394531 0.0733,-0.131339 0.149441,-0.264391 0.224609,-0.394531 z m 26.117191,7.951172 c 4.33734,2.833308 7.8804,6.733079 10.31445,11.289063 -6.08779,2.075052 -12.64093,2.14496 -18.70898,0.335937 1.84828,-4.519232 4.75496,-8.484271 8.39453,-11.625 z m 16.42968,33.626953 c -0.2803,0.170779 -0.56171,0.3381 -0.84765,0.5 0.28493,-0.161451 0.56654,-0.328554 0.84765,-0.5 z"
       id="path4581"
       inkscape:connector-curvature="0"
       sodipodi:nodetypes="scscccccccccccccccccscccccccccc" />
  </g>
  <g
     id="g3851"
     transform="translate(-188.82406,-446.89523)" />
  <g
     id="g886"
     transform="matrix(0.1355011,0,0,0.1355011,-2.5746424,-3.2919868)">
    <path
       id="path3847"
       d="m 252.21875,33.21875 c -92.31738,0 -171.726889,55.205633 -207.03125,134.40625 7.920389,17.45438 18.185755,34.19956 30.875,49.75 29.79273,36.51045 68.59862,61.29251 110.59375,73.8125 C 220.4331,208.49848 301.65937,150.21875 396.5,150.21875 c 20.0707,0 39.53166,2.60145 58.0625,7.5 -37.33141,-73.867881 -113.9231,-124.5 -202.34375,-124.5 z M 38.09375,185.625 c -0.420007,1.21295 -0.81887,2.43404 -1.21875,3.65625 0.399463,-1.22246 0.798213,-2.43986 1.21875,-3.65625 z m -1.21875,3.65625 c -0.40202,1.22875 -0.806023,2.4496 -1.1875,3.6875 0.37836,-1.22823 0.788037,-2.46504 1.1875,-3.6875 z m -2.28125,7.375 c -0.354411,1.22416 -0.697028,2.4549 -1.03125,3.6875 0.336064,-1.2389 0.674023,-2.45379 1.03125,-3.6875 z m -1.03125,3.6875 c -0.337962,1.2464 -0.682877,2.49517 -1,3.75 0.314872,-1.24379 0.663936,-2.5111 1,-3.75 z m -2.8125,11.5625 c -0.245996,1.14329 -0.490078,2.28787 -0.71875,3.4375 0.2284,-1.143 0.472744,-2.2978 0.71875,-3.4375 z m -1.4375,7.21875 c -0.17714,0.97736 -0.335441,1.95581 -0.5,2.9375 0.165564,-0.98068 0.321573,-1.9589 0.5,-2.9375 z m 449.34375,35 c 0.0321,1.29348 0.0525,2.58165 0.0625,3.875 -0.009,-1.29498 -0.0315,-2.58462 -0.0625,-3.875 z m -0.53125,22.5 c -0.0983,1.32436 -0.22237,2.64639 -0.34375,3.96875 0.12079,-1.31863 0.2453,-2.64301 0.34375,-3.96875 z m -15.5,67.28125 c -0.3624,0.91023 -0.71926,1.81262 -1.09375,2.71875 0.37561,-0.90672 0.72953,-1.80586 1.09375,-2.71875 z m -7.59375,16.96875 c -0.45678,0.91884 -0.90519,1.8365 -1.375,2.75 0.46784,-0.90754 0.91902,-1.83511 1.375,-2.75 z m -3.59375,6.9375 c -0.61465,1.13566 -1.2399,2.27961 -1.875,3.40625 0.63725,-1.12805 1.25649,-2.26589 1.875,-3.40625 z m -68.625,77.15625 c -1.01631,0.71887 -2.03792,1.42511 -3.0625,2.125 1.02095,-0.69664 2.05336,-1.41205 3.0625,-2.125 z"
       style="fill:url(#linearGradient857);fill-opacity:1;fill-rule:evenodd;stroke:none"
       inkscape:connector-curvature="0" />
    <path
       id="path3857"
       d="m 45.1875,167.625 c -33.629633,75.62504 -24.433208,166.99318 31.46875,235.5 64.8405,79.46081 172.39314,103.49563 262.46875,66.03125 6.24529,-18.12137 10.27704,-37.35842 11.75,-57.375 3.26386,-44.35382 -6.49375,-86.65669 -26,-123.1875 C 237.79159,318.32207 137.64904,292.84817 76.0625,217.375 63.373255,201.82456 53.107889,185.07938 45.1875,167.625 Z m 433.46875,86.5 c 0.031,1.29038 0.0534,2.58002 0.0625,3.875 -0.01,-1.29335 -0.0304,-2.58152 -0.0625,-3.875 z m -0.53125,22.5 c -0.0985,1.32574 -0.22296,2.65012 -0.34375,3.96875 0.12138,-1.32236 0.24549,-2.64439 0.34375,-3.96875 z m -15.5,67.28125 c -0.36422,0.91289 -0.71814,1.81203 -1.09375,2.71875 0.37449,-0.90613 0.73135,-1.80852 1.09375,-2.71875 z m -7.59375,16.96875 c -0.45598,0.91489 -0.90716,1.84246 -1.375,2.75 0.46981,-0.9135 0.91822,-1.83116 1.375,-2.75 z m -3.59375,6.9375 c -0.61851,1.14036 -1.23775,2.2782 -1.875,3.40625 0.6351,-1.12664 1.26035,-2.27059 1.875,-3.40625 z m -3.8125,6.75 c -1.31156,2.23109 -2.67818,4.4451 -4.0625,6.625 1.39037,-2.19282 2.75345,-4.39333 4.0625,-6.625 z m -4.0625,6.625 c -0.69216,1.08995 -1.38374,2.17313 -2.09375,3.25 0.70979,-1.07796 1.40394,-2.16206 2.09375,-3.25 z m -4.25,6.46875 c -3.6382,5.31793 -7.50034,10.46606 -11.5625,15.4375 4.0935,-5.0076 7.95449,-10.15863 11.5625,-15.4375 z m -11.5625,15.4375 c -0.81243,0.99429 -1.64003,1.9889 -2.46875,2.96875 0.8345,-0.98582 1.65343,-1.97137 2.46875,-2.96875 z m -2.46875,2.96875 c -2.48616,2.93955 -5.02754,5.78764 -7.65625,8.59375 2.63807,-2.81243 5.18579,-5.67531 7.65625,-8.59375 z m -7.65625,8.59375 c -0.87624,0.93537 -1.76462,1.89234 -2.65625,2.8125 0.89872,-0.92597 1.77613,-1.87421 2.65625,-2.8125 z m -2.65625,2.8125 c -0.89163,0.92016 -1.7807,1.814 -2.6875,2.71875 0.9037,-0.90031 1.80184,-1.80624 2.6875,-2.71875 z M 403.78125,428.25 c -0.90779,0.81718 -1.82923,1.6038 -2.75,2.40625 0.91932,-0.8004 1.84662,-1.59412 2.75,-2.40625 z m -2.75,2.40625 c -0.96523,0.84119 -1.92697,1.67518 -2.90625,2.5 0.97937,-0.82445 1.9443,-1.66248 2.90625,-2.5 z m -18.21875,14.3125 c -1.00914,0.71295 -2.04155,1.42836 -3.0625,2.125 1.02458,-0.69989 2.04619,-1.40613 3.0625,-2.125 z m -12.90625,8.5 c -2.06861,1.26035 -4.13972,2.49268 -6.25,3.6875 2.10283,-1.19151 4.17541,-2.42223 6.25,-3.6875 z m -6.5625,3.875 c -1.08671,0.61298 -2.18384,1.1859 -3.28125,1.78125 1.09181,-0.59272 2.19657,-1.16897 3.28125,-1.78125 z m -3.28125,1.78125 c -1.1304,0.61325 -2.26471,1.21814 -3.40625,1.8125 1.13498,-0.59132 2.27862,-1.20033 3.40625,-1.8125 z m -6.875,3.59375 c -1.15246,0.57528 -2.3056,1.13149 -3.46875,1.6875 1.15981,-0.55435 2.31589,-1.11197 3.46875,-1.6875 z m -3.46875,1.6875 c -1.16315,0.55601 -2.32638,1.08846 -3.5,1.625 1.1708,-0.53508 2.33593,-1.06861 3.5,-1.625 z"
       style="fill:url(#linearGradient869);fill-opacity:1;fill-rule:evenodd;stroke:none"
       inkscape:connector-curvature="0" />
    <path
       id="path3855"
       d="m 55.90625,146.625 c -0.555933,0.96227 -1.114024,1.93481 -1.65625,2.90625 0.540984,-0.96928 1.10151,-1.94581 1.65625,-2.90625 z M 396.5,150.21875 c -56.55187,0 -108.27154,20.73776 -147.96875,55 66.86748,43.61442 108.61716,121.31077 102.34375,206.5625 -1.47296,20.01658 -5.50471,39.25363 -11.75,57.375 14.32657,-5.96432 27.91857,-13.39232 40.625,-22.0625 1.02458,-0.69989 2.04619,-1.40613 3.0625,-2.125 27.24965,-19.25151 50.15857,-44.38032 66.75,-73.75 0.6351,-1.12664 1.26035,-2.27059 1.875,-3.40625 0.75104,-1.38473 1.49572,-2.78494 2.21875,-4.1875 0.46981,-0.9135 0.91822,-1.83116 1.375,-2.75 2.32135,-4.65763 4.49475,-9.4093 6.5,-14.25 0.37449,-0.90613 0.73135,-1.80852 1.09375,-2.71875 7.89969,-19.79999 13.11659,-41.04611 15.15625,-63.3125 0.12138,-1.32236 0.24549,-2.64439 0.34375,-3.96875 0.004,-0.0518 -0.004,-0.10442 0,-0.15625 0.45621,-6.19965 0.6366,-12.35925 0.59375,-18.46875 -0.01,-1.29335 -0.0304,-2.58152 -0.0625,-3.875 -0.82814,-34.44372 -9.44198,-67.1926 -24.25,-96.4375 -18.48497,-4.87247 -37.89075,-7.46875 -57.90625,-7.46875 z m -365.75,61.6875 c -0.246006,1.1397 -0.49035,2.2945 -0.71875,3.4375 0.228672,-1.14963 0.472754,-2.29421 0.71875,-3.4375 z m -1.4375,7.21875 c -0.178427,0.9786 -0.334436,1.95682 -0.5,2.9375 0.164559,-0.98169 0.32286,-1.96014 0.5,-2.9375 z"
       style="fill:url(#linearGradient879);fill-opacity:1;fill-rule:evenodd;stroke:none"
       inkscape:connector-curvature="0" />
  </g>
</svg>
