<?xml version="1.0" encoding="UTF-8" standalone="no"?>
<!-- Created with Inkscape (http://www.inkscape.org/) -->

<svg
   xmlns:dc="http://purl.org/dc/elements/1.1/"
   xmlns:cc="http://creativecommons.org/ns#"
   xmlns:rdf="http://www.w3.org/1999/02/22-rdf-syntax-ns#"
   xmlns:svg="http://www.w3.org/2000/svg"
   xmlns="http://www.w3.org/2000/svg"
   xmlns:xlink="http://www.w3.org/1999/xlink"
   xmlns:sodipodi="http://sodipodi.sourceforge.net/DTD/sodipodi-0.dtd"
   xmlns:inkscape="http://www.inkscape.org/namespaces/inkscape"
   width="64"
   height="64"
   viewBox="0 0 16.933333 16.933334"
   version="1.1"
   id="svg8"
   sodipodi:docname="openshot.svg"
   inkscape:version="0.92.1 r15371">
  <defs
     id="defs2">
    <linearGradient
       inkscape:collect="always"
       id="linearGradient826">
      <stop
         style="stop-color:#0f65a2;stop-opacity:1"
         offset="0"
         id="stop822" />
      <stop
         style="stop-color:#7cf7f1;stop-opacity:1"
         offset="1"
         id="stop824" />
    </linearGradient>
    <linearGradient
       inkscape:collect="always"
       id="linearGradient818">
      <stop
         style="stop-color:#0098c9;stop-opacity:1"
         offset="0"
         id="stop814" />
      <stop
         style="stop-color:#7cf7f1;stop-opacity:1"
         offset="1"
         id="stop816" />
    </linearGradient>
    <linearGradient
       inkscape:collect="always"
       xlink:href="#linearGradient818"
       id="linearGradient820"
       x1="8.385582"
       y1="296.68262"
       x2="8.385582"
       y2="280.71326"
       gradientUnits="userSpaceOnUse" />
    <linearGradient
       inkscape:collect="always"
       xlink:href="#linearGradient826"
       id="linearGradient828"
       x1="8.5188627"
       y1="297.07675"
       x2="8.5188627"
       y2="280.2793"
       gradientUnits="userSpaceOnUse" />
    <style
       type="text/css"
       id="current-color-scheme">
   .ColorScheme-Text { color:#5c616c; } .ColorScheme-Highlight { color:#5294e2; }
  </style>
    <style
       type="text/css"
       id="current-color-scheme-3">
   .ColorScheme-Text { color:#5c616c; } .ColorScheme-Highlight { color:#5294e2; }
  </style>
    <style
       type="text/css"
       id="current-color-scheme-7">
   .ColorScheme-Text { color:#5c616c; } .ColorScheme-Highlight { color:#5294e2; }
  </style>
    <style
       type="text/css"
       id="current-color-scheme-35">
   .ColorScheme-Text { color:#5c616c; } .ColorScheme-Highlight { color:#5294e2; }
  </style>
    <style
       type="text/css"
       id="current-color-scheme-9">
   .ColorScheme-Text { color:#5c616c; } .ColorScheme-Highlight { color:#5294e2; }
  </style>
    <style
       type="text/css"
       id="current-color-scheme-2">
   .ColorScheme-Text { color:#5c616c; } .ColorScheme-Highlight { color:#5294e2; }
  </style>
    <style
       type="text/css"
       id="current-color-scheme-0">
   .ColorScheme-Text { color:#5c616c; } .ColorScheme-Highlight { color:#5294e2; }
  </style>
    <style
       type="text/css"
       id="current-color-scheme-36">
   .ColorScheme-Text { color:#5c616c; } .ColorScheme-Highlight { color:#5294e2; }
  </style>
    <style
       type="text/css"
       id="current-color-scheme-6">
   .ColorScheme-Text { color:#5c616c; } .ColorScheme-Highlight { color:#5294e2; }
  </style>
    <style
       type="text/css"
       id="current-color-scheme-61">
   .ColorScheme-Text { color:#5c616c; } .ColorScheme-Highlight { color:#5294e2; }
  </style>
    <style
       type="text/css"
       id="current-color-scheme-79">
   .ColorScheme-Text { color:#5c616c; } .ColorScheme-Highlight { color:#5294e2; }
  </style>
    <style
       type="text/css"
       id="current-color-scheme-23">
   .ColorScheme-Text { color:#5c616c; } .ColorScheme-Highlight { color:#5294e2; }
  </style>
    <style
       type="text/css"
       id="current-color-scheme-92">
   .ColorScheme-Text { color:#5c616c; } .ColorScheme-Highlight { color:#5294e2; }
  </style>
    <style
       type="text/css"
       id="current-color-scheme-97">
   .ColorScheme-Text { color:#5c616c; } .ColorScheme-Highlight { color:#5294e2; }
  </style>
    <style
       type="text/css"
       id="current-color-scheme-612">
   .ColorScheme-Text { color:#5c616c; } .ColorScheme-Highlight { color:#5294e2; }
  </style>
    <style
       id="current-color-scheme-1"
       type="text/css">
   .ColorScheme-Text { color:#5c616c; } .ColorScheme-Highlight { color:#5294e2; }
  </style>
    <style
       id="current-color-scheme-3-0"
       type="text/css">
   .ColorScheme-Text { color:#5c616c; } .ColorScheme-Highlight { color:#5294e2; }
  </style>
    <style
       id="current-color-scheme-7-6"
       type="text/css">
   .ColorScheme-Text { color:#5c616c; } .ColorScheme-Highlight { color:#5294e2; }
  </style>
    <style
       id="current-color-scheme-35-3"
       type="text/css">
   .ColorScheme-Text { color:#5c616c; } .ColorScheme-Highlight { color:#5294e2; }
  </style>
    <style
       id="current-color-scheme-9-2"
       type="text/css">
   .ColorScheme-Text { color:#5c616c; } .ColorScheme-Highlight { color:#5294e2; }
  </style>
    <style
       id="current-color-scheme-2-0"
       type="text/css">
   .ColorScheme-Text { color:#5c616c; } .ColorScheme-Highlight { color:#5294e2; }
  </style>
    <style
       id="current-color-scheme-0-6"
       type="text/css">
   .ColorScheme-Text { color:#5c616c; } .ColorScheme-Highlight { color:#5294e2; }
  </style>
    <style
       id="current-color-scheme-36-1"
       type="text/css">
   .ColorScheme-Text { color:#5c616c; } .ColorScheme-Highlight { color:#5294e2; }
  </style>
    <style
       id="current-color-scheme-6-5"
       type="text/css">
   .ColorScheme-Text { color:#5c616c; } .ColorScheme-Highlight { color:#5294e2; }
  </style>
    <style
       id="current-color-scheme-61-5"
       type="text/css">
   .ColorScheme-Text { color:#5c616c; } .ColorScheme-Highlight { color:#5294e2; }
  </style>
    <style
       id="current-color-scheme-79-4"
       type="text/css">
   .ColorScheme-Text { color:#5c616c; } .ColorScheme-Highlight { color:#5294e2; }
  </style>
    <style
       id="current-color-scheme-23-7"
       type="text/css">
   .ColorScheme-Text { color:#5c616c; } .ColorScheme-Highlight { color:#5294e2; }
  </style>
    <style
       id="current-color-scheme-92-6"
       type="text/css">
   .ColorScheme-Text { color:#5c616c; } .ColorScheme-Highlight { color:#5294e2; }
  </style>
    <style
       id="current-color-scheme-97-5"
       type="text/css">
   .ColorScheme-Text { color:#5c616c; } .ColorScheme-Highlight { color:#5294e2; }
  </style>
    <style
       id="current-color-scheme-612-6"
       type="text/css">
   .ColorScheme-Text { color:#5c616c; } .ColorScheme-Highlight { color:#5294e2; }
  </style>
  </defs>
  <sodipodi:namedview
     id="base"
     pagecolor="#ffffff"
     bordercolor="#666666"
     borderopacity="1.0"
     inkscape:pageopacity="0.0"
     inkscape:pageshadow="2"
     inkscape:zoom="1.4142136"
     inkscape:cx="49.904842"
     inkscape:cy="35.326302"
     inkscape:document-units="mm"
     inkscape:current-layer="layer1"
     showgrid="false"
     units="px"
     inkscape:window-width="1920"
     inkscape:window-height="1040"
     inkscape:window-x="0"
     inkscape:window-y="0"
     inkscape:window-maximized="1" />
  <metadata
     id="metadata5">
    <rdf:RDF>
      <cc:Work
         rdf:about="">
        <dc:format>image/svg+xml</dc:format>
        <dc:type
           rdf:resource="http://purl.org/dc/dcmitype/StillImage" />
        <dc:title></dc:title>
      </cc:Work>
    </rdf:RDF>
  </metadata>
  <g
     inkscape:label="Capa 1"
     inkscape:groupmode="layer"
     id="layer1"
     transform="translate(0,-280.06665)">
    <circle
       style="opacity:1;fill:url(#linearGradient820);fill-opacity:1;stroke:none;stroke-width:0.185;stroke-linecap:round;stroke-linejoin:round;stroke-miterlimit:4;stroke-dasharray:none;stroke-opacity:1"
       id="path815"
       cx="8.4691038"
       cy="288.53088"
       r="8.2018337" />
    <path
       style="color:#000000;font-style:normal;font-variant:normal;font-weight:normal;font-stretch:normal;font-size:medium;line-height:normal;font-family:sans-serif;font-variant-ligatures:normal;font-variant-position:normal;font-variant-caps:normal;font-variant-numeric:normal;font-variant-alternates:normal;font-feature-settings:normal;text-indent:0;text-align:start;text-decoration:none;text-decoration-line:none;text-decoration-style:solid;text-decoration-color:#000000;letter-spacing:normal;word-spacing:normal;text-transform:none;writing-mode:lr-tb;direction:ltr;text-orientation:mixed;dominant-baseline:auto;baseline-shift:baseline;text-anchor:start;white-space:normal;shape-padding:0;clip-rule:nonzero;display:inline;overflow:visible;visibility:visible;opacity:1;isolation:auto;mix-blend-mode:normal;color-interpolation:sRGB;color-interpolation-filters:linearRGB;solid-color:#000000;solid-opacity:1;vector-effect:none;fill:url(#linearGradient828);fill-opacity:1;fill-rule:nonzero;stroke:none;stroke-width:0.185;stroke-linecap:round;stroke-linejoin:round;stroke-miterlimit:4;stroke-dasharray:none;stroke-dashoffset:0;stroke-opacity:1;color-rendering:auto;image-rendering:auto;shape-rendering:auto;text-rendering:auto;enable-background:accumulate"
       d="m 8.46875,280.23633 c -4.5797384,0 -8.29492188,3.71518 -8.29492188,8.29492 10e-9,4.57974 3.71518348,8.29492 8.29492188,8.29492 4.579738,0 8.294922,-3.71518 8.294922,-8.29492 0,-4.09915 -2.976364,-7.50567 -6.8850044,-8.17548 -0.4582559,-0.0785 -0.9293264,-0.11944 -1.4099176,-0.11944 z m 0,0.18555 c 4.479757,0 8.109375,3.62961 8.109375,8.10937 0,4.47976 -3.629618,8.10937 -8.109375,8.10937 -4.479757,0 -8.109375,-3.62961 -8.109375,-8.10937 0,-4.47976 3.629618,-8.10937 8.109375,-8.10937 z"
       id="circle821"
       inkscape:connector-curvature="0"
       sodipodi:nodetypes="sssssssssss" />
    <g
       aria-label="hip-hip"
       style="font-style:normal;font-variant:normal;font-weight:normal;font-stretch:normal;font-size:2.46166945px;line-height:1.25;font-family:Sawasdee;-inkscape-font-specification:Sawasdee;letter-spacing:0px;word-spacing:0px;fill:#000000;fill-opacity:1;stroke:none;stroke-width:0.06154174"
       id="text891" />
    <g
       id="g4672"
       transform="translate(-22.21678)"
       style="opacity:0.81">
      <path
         style="opacity:1;fill:none;fill-opacity:1;stroke:#000000;stroke-width:0.05;stroke-linecap:round;stroke-linejoin:round;stroke-miterlimit:4;stroke-dasharray:none;stroke-dashoffset:0;stroke-opacity:0.00784314"
         d="m 26.270649,285.37243 c -0.274836,0 -0.496094,0.22125 -0.496094,0.49609 v 1.1653 l 0.959632,-1.66139 z m 1.617989,0 -0.974617,1.68672 h -1.139466 v 4.13411 c 0,0.27484 0.221258,0.49609 0.496094,0.49609 h 1.238684 v -2.05155 a 0.61184895,0.61184895 0 0 1 -0.411861,-0.57774 0.61184895,0.61184895 0 0 1 0.611849,-0.61185 0.61184895,0.61184895 0 0 1 0.611849,0.61185 0.61184895,0.61184895 0 0 1 -0.411862,0.57774 v 2.05155 h 7.191809 c 0.274836,0 0.496094,-0.22125 0.496094,-0.49609 v -5.32474 c 0,-0.0294 -0.0034,-0.0578 -0.0083,-0.0858 l -0.737423,1.27641 h -1.153935 l 0.974101,-1.68672 H 33.84173 l -0.974617,1.68672 h -1.153902 l 0.9741,-1.68672 h -0.829923 l -0.974617,1.68672 h -1.153935 l 0.9741,-1.6867 h -0.829923 l -0.974617,1.68672 h -1.153935 l 0.9741,-1.68672 z m 7.305497,0.009 c 0.01528,0.003 0.02971,0.008 0.04444,0.0119 -0.01479,-0.004 -0.02911,-0.009 -0.04444,-0.0119 z m 0.08888,0.0258 c 0.0125,0.005 0.0242,0.0112 0.03617,0.017 -0.01199,-0.006 -0.02366,-0.0121 -0.03617,-0.017 z m 0.08423,0.0434 c 0.01031,0.007 0.0202,0.0139 0.02997,0.0212 -0.0098,-0.007 -0.0196,-0.0146 -0.02997,-0.0212 z m 0.06925,0.0537 c 0.01034,0.01 0.01997,0.0196 0.02946,0.03 -0.0095,-0.0104 -0.0191,-0.0204 -0.02946,-0.03 z m 0.05943,0.0661 c 0.0091,0.0121 0.01788,0.0243 0.02584,0.0372 -0.008,-0.0129 -0.01672,-0.0251 -0.02584,-0.0372 z m 0.04392,0.0708 c 0.0087,0.0169 0.01755,0.0337 0.02429,0.0517 -0.0068,-0.018 -0.01554,-0.0348 -0.02429,-0.0517 z m 0.03049,0.0724 c 0.0072,0.0221 0.0145,0.0444 0.0186,0.0677 -0.0041,-0.0234 -0.01133,-0.0455 -0.0186,-0.0677 z"
         id="path4600"
         inkscape:connector-curvature="0" />
      <path
         inkscape:connector-curvature="0"
         id="path4602"
         d="m 26.270649,285.37243 c -0.274836,0 -0.496094,0.22125 -0.496094,0.49609 v 1.1653 l 0.959632,-1.66139 z m 1.617989,0 -0.974617,1.68672 h -1.139466 v 4.13411 c 0,0.27484 0.221258,0.49609 0.496094,0.49609 h 1.238684 v -2.05155 a 0.61184895,0.61184895 0 0 1 -0.411861,-0.57774 0.61184895,0.61184895 0 0 1 0.611849,-0.61185 0.61184895,0.61184895 0 0 1 0.611849,0.61185 0.61184895,0.61184895 0 0 1 -0.411862,0.57774 v 2.05155 h 7.191809 c 0.274836,0 0.496094,-0.22125 0.496094,-0.49609 v -5.32474 c 0,-0.0294 -0.0034,-0.0578 -0.0083,-0.0858 l -0.737423,1.27641 h -1.153935 l 0.974101,-1.68672 H 33.84173 l -0.974617,1.68672 h -1.153902 l 0.9741,-1.68672 h -0.829923 l -0.974617,1.68672 h -1.153935 l 0.9741,-1.6867 h -0.829923 l -0.974617,1.68672 h -1.153935 l 0.9741,-1.68672 z m 7.305497,0.009 c 0.01528,0.003 0.02971,0.008 0.04444,0.0119 -0.01479,-0.004 -0.02911,-0.009 -0.04444,-0.0119 z m 0.08888,0.0258 c 0.0125,0.005 0.0242,0.0112 0.03617,0.017 -0.01199,-0.006 -0.02366,-0.0121 -0.03617,-0.017 z m 0.08423,0.0434 c 0.01031,0.007 0.0202,0.0139 0.02997,0.0212 -0.0098,-0.007 -0.0196,-0.0146 -0.02997,-0.0212 z m 0.06925,0.0537 c 0.01034,0.01 0.01997,0.0196 0.02946,0.03 -0.0095,-0.0104 -0.0191,-0.0204 -0.02946,-0.03 z m 0.05943,0.0661 c 0.0091,0.0121 0.01788,0.0243 0.02584,0.0372 -0.008,-0.0129 -0.01672,-0.0251 -0.02584,-0.0372 z m 0.04392,0.0708 c 0.0087,0.0169 0.01755,0.0337 0.02429,0.0517 -0.0068,-0.018 -0.01554,-0.0348 -0.02429,-0.0517 z m 0.03049,0.0724 c 0.0072,0.0221 0.0145,0.0444 0.0186,0.0677 -0.0041,-0.0234 -0.01133,-0.0455 -0.0186,-0.0677 z"
         style="opacity:1;fill:none;fill-opacity:1;stroke:#000000;stroke-width:0.1;stroke-linecap:round;stroke-linejoin:round;stroke-miterlimit:4;stroke-dasharray:none;stroke-dashoffset:0;stroke-opacity:0.00784314" />
      <path
         style="opacity:1;fill:none;fill-opacity:1;stroke:#000000;stroke-width:0.15000001;stroke-linecap:round;stroke-linejoin:round;stroke-miterlimit:4;stroke-dasharray:none;stroke-dashoffset:0;stroke-opacity:0.00784314"
         d="m 26.270649,285.37243 c -0.274836,0 -0.496094,0.22125 -0.496094,0.49609 v 1.1653 l 0.959632,-1.66139 z m 1.617989,0 -0.974617,1.68672 h -1.139466 v 4.13411 c 0,0.27484 0.221258,0.49609 0.496094,0.49609 h 1.238684 v -2.05155 a 0.61184895,0.61184895 0 0 1 -0.411861,-0.57774 0.61184895,0.61184895 0 0 1 0.611849,-0.61185 0.61184895,0.61184895 0 0 1 0.611849,0.61185 0.61184895,0.61184895 0 0 1 -0.411862,0.57774 v 2.05155 h 7.191809 c 0.274836,0 0.496094,-0.22125 0.496094,-0.49609 v -5.32474 c 0,-0.0294 -0.0034,-0.0578 -0.0083,-0.0858 l -0.737423,1.27641 h -1.153935 l 0.974101,-1.68672 H 33.84173 l -0.974617,1.68672 h -1.153902 l 0.9741,-1.68672 h -0.829923 l -0.974617,1.68672 h -1.153935 l 0.9741,-1.6867 h -0.829923 l -0.974617,1.68672 h -1.153935 l 0.9741,-1.68672 z m 7.305497,0.009 c 0.01528,0.003 0.02971,0.008 0.04444,0.0119 -0.01479,-0.004 -0.02911,-0.009 -0.04444,-0.0119 z m 0.08888,0.0258 c 0.0125,0.005 0.0242,0.0112 0.03617,0.017 -0.01199,-0.006 -0.02366,-0.0121 -0.03617,-0.017 z m 0.08423,0.0434 c 0.01031,0.007 0.0202,0.0139 0.02997,0.0212 -0.0098,-0.007 -0.0196,-0.0146 -0.02997,-0.0212 z m 0.06925,0.0537 c 0.01034,0.01 0.01997,0.0196 0.02946,0.03 -0.0095,-0.0104 -0.0191,-0.0204 -0.02946,-0.03 z m 0.05943,0.0661 c 0.0091,0.0121 0.01788,0.0243 0.02584,0.0372 -0.008,-0.0129 -0.01672,-0.0251 -0.02584,-0.0372 z m 0.04392,0.0708 c 0.0087,0.0169 0.01755,0.0337 0.02429,0.0517 -0.0068,-0.018 -0.01554,-0.0348 -0.02429,-0.0517 z m 0.03049,0.0724 c 0.0072,0.0221 0.0145,0.0444 0.0186,0.0677 -0.0041,-0.0234 -0.01133,-0.0455 -0.0186,-0.0677 z"
         id="path4604"
         inkscape:connector-curvature="0" />
      <path
         inkscape:connector-curvature="0"
         id="path4606"
         d="m 26.270649,285.37243 c -0.274836,0 -0.496094,0.22125 -0.496094,0.49609 v 1.1653 l 0.959632,-1.66139 z m 1.617989,0 -0.974617,1.68672 h -1.139466 v 4.13411 c 0,0.27484 0.221258,0.49609 0.496094,0.49609 h 1.238684 v -2.05155 a 0.61184895,0.61184895 0 0 1 -0.411861,-0.57774 0.61184895,0.61184895 0 0 1 0.611849,-0.61185 0.61184895,0.61184895 0 0 1 0.611849,0.61185 0.61184895,0.61184895 0 0 1 -0.411862,0.57774 v 2.05155 h 7.191809 c 0.274836,0 0.496094,-0.22125 0.496094,-0.49609 v -5.32474 c 0,-0.0294 -0.0034,-0.0578 -0.0083,-0.0858 l -0.737423,1.27641 h -1.153935 l 0.974101,-1.68672 H 33.84173 l -0.974617,1.68672 h -1.153902 l 0.9741,-1.68672 h -0.829923 l -0.974617,1.68672 h -1.153935 l 0.9741,-1.6867 h -0.829923 l -0.974617,1.68672 h -1.153935 l 0.9741,-1.68672 z m 7.305497,0.009 c 0.01528,0.003 0.02971,0.008 0.04444,0.0119 -0.01479,-0.004 -0.02911,-0.009 -0.04444,-0.0119 z m 0.08888,0.0258 c 0.0125,0.005 0.0242,0.0112 0.03617,0.017 -0.01199,-0.006 -0.02366,-0.0121 -0.03617,-0.017 z m 0.08423,0.0434 c 0.01031,0.007 0.0202,0.0139 0.02997,0.0212 -0.0098,-0.007 -0.0196,-0.0146 -0.02997,-0.0212 z m 0.06925,0.0537 c 0.01034,0.01 0.01997,0.0196 0.02946,0.03 -0.0095,-0.0104 -0.0191,-0.0204 -0.02946,-0.03 z m 0.05943,0.0661 c 0.0091,0.0121 0.01788,0.0243 0.02584,0.0372 -0.008,-0.0129 -0.01672,-0.0251 -0.02584,-0.0372 z m 0.04392,0.0708 c 0.0087,0.0169 0.01755,0.0337 0.02429,0.0517 -0.0068,-0.018 -0.01554,-0.0348 -0.02429,-0.0517 z m 0.03049,0.0724 c 0.0072,0.0221 0.0145,0.0444 0.0186,0.0677 -0.0041,-0.0234 -0.01133,-0.0455 -0.0186,-0.0677 z"
         style="opacity:1;fill:none;fill-opacity:1;stroke:#000000;stroke-width:0.2;stroke-linecap:round;stroke-linejoin:round;stroke-miterlimit:4;stroke-dasharray:none;stroke-dashoffset:0;stroke-opacity:0.00784314" />
      <path
         style="opacity:1;fill:none;fill-opacity:1;stroke:#000000;stroke-width:0.25;stroke-linecap:round;stroke-linejoin:round;stroke-miterlimit:4;stroke-dasharray:none;stroke-dashoffset:0;stroke-opacity:0.00784314"
         d="m 26.270649,285.37243 c -0.274836,0 -0.496094,0.22125 -0.496094,0.49609 v 1.1653 l 0.959632,-1.66139 z m 1.617989,0 -0.974617,1.68672 h -1.139466 v 4.13411 c 0,0.27484 0.221258,0.49609 0.496094,0.49609 h 1.238684 v -2.05155 a 0.61184895,0.61184895 0 0 1 -0.411861,-0.57774 0.61184895,0.61184895 0 0 1 0.611849,-0.61185 0.61184895,0.61184895 0 0 1 0.611849,0.61185 0.61184895,0.61184895 0 0 1 -0.411862,0.57774 v 2.05155 h 7.191809 c 0.274836,0 0.496094,-0.22125 0.496094,-0.49609 v -5.32474 c 0,-0.0294 -0.0034,-0.0578 -0.0083,-0.0858 l -0.737423,1.27641 h -1.153935 l 0.974101,-1.68672 H 33.84173 l -0.974617,1.68672 h -1.153902 l 0.9741,-1.68672 h -0.829923 l -0.974617,1.68672 h -1.153935 l 0.9741,-1.6867 h -0.829923 l -0.974617,1.68672 h -1.153935 l 0.9741,-1.68672 z m 7.305497,0.009 c 0.01528,0.003 0.02971,0.008 0.04444,0.0119 -0.01479,-0.004 -0.02911,-0.009 -0.04444,-0.0119 z m 0.08888,0.0258 c 0.0125,0.005 0.0242,0.0112 0.03617,0.017 -0.01199,-0.006 -0.02366,-0.0121 -0.03617,-0.017 z m 0.08423,0.0434 c 0.01031,0.007 0.0202,0.0139 0.02997,0.0212 -0.0098,-0.007 -0.0196,-0.0146 -0.02997,-0.0212 z m 0.06925,0.0537 c 0.01034,0.01 0.01997,0.0196 0.02946,0.03 -0.0095,-0.0104 -0.0191,-0.0204 -0.02946,-0.03 z m 0.05943,0.0661 c 0.0091,0.0121 0.01788,0.0243 0.02584,0.0372 -0.008,-0.0129 -0.01672,-0.0251 -0.02584,-0.0372 z m 0.04392,0.0708 c 0.0087,0.0169 0.01755,0.0337 0.02429,0.0517 -0.0068,-0.018 -0.01554,-0.0348 -0.02429,-0.0517 z m 0.03049,0.0724 c 0.0072,0.0221 0.0145,0.0444 0.0186,0.0677 -0.0041,-0.0234 -0.01133,-0.0455 -0.0186,-0.0677 z"
         id="path4608"
         inkscape:connector-curvature="0" />
      <path
         inkscape:connector-curvature="0"
         id="path4610"
         d="m 26.270649,285.37243 c -0.274836,0 -0.496094,0.22125 -0.496094,0.49609 v 1.1653 l 0.959632,-1.66139 z m 1.617989,0 -0.974617,1.68672 h -1.139466 v 4.13411 c 0,0.27484 0.221258,0.49609 0.496094,0.49609 h 1.238684 v -2.05155 a 0.61184895,0.61184895 0 0 1 -0.411861,-0.57774 0.61184895,0.61184895 0 0 1 0.611849,-0.61185 0.61184895,0.61184895 0 0 1 0.611849,0.61185 0.61184895,0.61184895 0 0 1 -0.411862,0.57774 v 2.05155 h 7.191809 c 0.274836,0 0.496094,-0.22125 0.496094,-0.49609 v -5.32474 c 0,-0.0294 -0.0034,-0.0578 -0.0083,-0.0858 l -0.737423,1.27641 h -1.153935 l 0.974101,-1.68672 H 33.84173 l -0.974617,1.68672 h -1.153902 l 0.9741,-1.68672 h -0.829923 l -0.974617,1.68672 h -1.153935 l 0.9741,-1.6867 h -0.829923 l -0.974617,1.68672 h -1.153935 l 0.9741,-1.68672 z m 7.305497,0.009 c 0.01528,0.003 0.02971,0.008 0.04444,0.0119 -0.01479,-0.004 -0.02911,-0.009 -0.04444,-0.0119 z m 0.08888,0.0258 c 0.0125,0.005 0.0242,0.0112 0.03617,0.017 -0.01199,-0.006 -0.02366,-0.0121 -0.03617,-0.017 z m 0.08423,0.0434 c 0.01031,0.007 0.0202,0.0139 0.02997,0.0212 -0.0098,-0.007 -0.0196,-0.0146 -0.02997,-0.0212 z m 0.06925,0.0537 c 0.01034,0.01 0.01997,0.0196 0.02946,0.03 -0.0095,-0.0104 -0.0191,-0.0204 -0.02946,-0.03 z m 0.05943,0.0661 c 0.0091,0.0121 0.01788,0.0243 0.02584,0.0372 -0.008,-0.0129 -0.01672,-0.0251 -0.02584,-0.0372 z m 0.04392,0.0708 c 0.0087,0.0169 0.01755,0.0337 0.02429,0.0517 -0.0068,-0.018 -0.01554,-0.0348 -0.02429,-0.0517 z m 0.03049,0.0724 c 0.0072,0.0221 0.0145,0.0444 0.0186,0.0677 -0.0041,-0.0234 -0.01133,-0.0455 -0.0186,-0.0677 z"
         style="opacity:1;fill:none;fill-opacity:1;stroke:#000000;stroke-width:0.30000001;stroke-linecap:round;stroke-linejoin:round;stroke-miterlimit:4;stroke-dasharray:none;stroke-dashoffset:0;stroke-opacity:0.00784314" />
      <path
         style="opacity:1;fill:none;fill-opacity:1;stroke:#000000;stroke-width:0.34999999;stroke-linecap:round;stroke-linejoin:round;stroke-miterlimit:4;stroke-dasharray:none;stroke-dashoffset:0;stroke-opacity:0.00784314"
         d="m 26.270649,285.37243 c -0.274836,0 -0.496094,0.22125 -0.496094,0.49609 v 1.1653 l 0.959632,-1.66139 z m 1.617989,0 -0.974617,1.68672 h -1.139466 v 4.13411 c 0,0.27484 0.221258,0.49609 0.496094,0.49609 h 1.238684 v -2.05155 a 0.61184895,0.61184895 0 0 1 -0.411861,-0.57774 0.61184895,0.61184895 0 0 1 0.611849,-0.61185 0.61184895,0.61184895 0 0 1 0.611849,0.61185 0.61184895,0.61184895 0 0 1 -0.411862,0.57774 v 2.05155 h 7.191809 c 0.274836,0 0.496094,-0.22125 0.496094,-0.49609 v -5.32474 c 0,-0.0294 -0.0034,-0.0578 -0.0083,-0.0858 l -0.737423,1.27641 h -1.153935 l 0.974101,-1.68672 H 33.84173 l -0.974617,1.68672 h -1.153902 l 0.9741,-1.68672 h -0.829923 l -0.974617,1.68672 h -1.153935 l 0.9741,-1.6867 h -0.829923 l -0.974617,1.68672 h -1.153935 l 0.9741,-1.68672 z m 7.305497,0.009 c 0.01528,0.003 0.02971,0.008 0.04444,0.0119 -0.01479,-0.004 -0.02911,-0.009 -0.04444,-0.0119 z m 0.08888,0.0258 c 0.0125,0.005 0.0242,0.0112 0.03617,0.017 -0.01199,-0.006 -0.02366,-0.0121 -0.03617,-0.017 z m 0.08423,0.0434 c 0.01031,0.007 0.0202,0.0139 0.02997,0.0212 -0.0098,-0.007 -0.0196,-0.0146 -0.02997,-0.0212 z m 0.06925,0.0537 c 0.01034,0.01 0.01997,0.0196 0.02946,0.03 -0.0095,-0.0104 -0.0191,-0.0204 -0.02946,-0.03 z m 0.05943,0.0661 c 0.0091,0.0121 0.01788,0.0243 0.02584,0.0372 -0.008,-0.0129 -0.01672,-0.0251 -0.02584,-0.0372 z m 0.04392,0.0708 c 0.0087,0.0169 0.01755,0.0337 0.02429,0.0517 -0.0068,-0.018 -0.01554,-0.0348 -0.02429,-0.0517 z m 0.03049,0.0724 c 0.0072,0.0221 0.0145,0.0444 0.0186,0.0677 -0.0041,-0.0234 -0.01133,-0.0455 -0.0186,-0.0677 z"
         id="path4612"
         inkscape:connector-curvature="0" />
      <path
         inkscape:connector-curvature="0"
         id="path4614"
         d="m 26.270649,285.37243 c -0.274836,0 -0.496094,0.22125 -0.496094,0.49609 v 1.1653 l 0.959632,-1.66139 z m 1.617989,0 -0.974617,1.68672 h -1.139466 v 4.13411 c 0,0.27484 0.221258,0.49609 0.496094,0.49609 h 1.238684 v -2.05155 a 0.61184895,0.61184895 0 0 1 -0.411861,-0.57774 0.61184895,0.61184895 0 0 1 0.611849,-0.61185 0.61184895,0.61184895 0 0 1 0.611849,0.61185 0.61184895,0.61184895 0 0 1 -0.411862,0.57774 v 2.05155 h 7.191809 c 0.274836,0 0.496094,-0.22125 0.496094,-0.49609 v -5.32474 c 0,-0.0294 -0.0034,-0.0578 -0.0083,-0.0858 l -0.737423,1.27641 h -1.153935 l 0.974101,-1.68672 H 33.84173 l -0.974617,1.68672 h -1.153902 l 0.9741,-1.68672 h -0.829923 l -0.974617,1.68672 h -1.153935 l 0.9741,-1.6867 h -0.829923 l -0.974617,1.68672 h -1.153935 l 0.9741,-1.68672 z m 7.305497,0.009 c 0.01528,0.003 0.02971,0.008 0.04444,0.0119 -0.01479,-0.004 -0.02911,-0.009 -0.04444,-0.0119 z m 0.08888,0.0258 c 0.0125,0.005 0.0242,0.0112 0.03617,0.017 -0.01199,-0.006 -0.02366,-0.0121 -0.03617,-0.017 z m 0.08423,0.0434 c 0.01031,0.007 0.0202,0.0139 0.02997,0.0212 -0.0098,-0.007 -0.0196,-0.0146 -0.02997,-0.0212 z m 0.06925,0.0537 c 0.01034,0.01 0.01997,0.0196 0.02946,0.03 -0.0095,-0.0104 -0.0191,-0.0204 -0.02946,-0.03 z m 0.05943,0.0661 c 0.0091,0.0121 0.01788,0.0243 0.02584,0.0372 -0.008,-0.0129 -0.01672,-0.0251 -0.02584,-0.0372 z m 0.04392,0.0708 c 0.0087,0.0169 0.01755,0.0337 0.02429,0.0517 -0.0068,-0.018 -0.01554,-0.0348 -0.02429,-0.0517 z m 0.03049,0.0724 c 0.0072,0.0221 0.0145,0.0444 0.0186,0.0677 -0.0041,-0.0234 -0.01133,-0.0455 -0.0186,-0.0677 z"
         style="opacity:1;fill:none;fill-opacity:1;stroke:#000000;stroke-width:0.40000001;stroke-linecap:round;stroke-linejoin:round;stroke-miterlimit:4;stroke-dasharray:none;stroke-dashoffset:0;stroke-opacity:0.00784314" />
      <path
         style="opacity:1;fill:none;fill-opacity:1;stroke:#000000;stroke-width:0.44999999;stroke-linecap:round;stroke-linejoin:round;stroke-miterlimit:4;stroke-dasharray:none;stroke-dashoffset:0;stroke-opacity:0.00784314"
         d="m 26.270649,285.37243 c -0.274836,0 -0.496094,0.22125 -0.496094,0.49609 v 1.1653 l 0.959632,-1.66139 z m 1.617989,0 -0.974617,1.68672 h -1.139466 v 4.13411 c 0,0.27484 0.221258,0.49609 0.496094,0.49609 h 1.238684 v -2.05155 a 0.61184895,0.61184895 0 0 1 -0.411861,-0.57774 0.61184895,0.61184895 0 0 1 0.611849,-0.61185 0.61184895,0.61184895 0 0 1 0.611849,0.61185 0.61184895,0.61184895 0 0 1 -0.411862,0.57774 v 2.05155 h 7.191809 c 0.274836,0 0.496094,-0.22125 0.496094,-0.49609 v -5.32474 c 0,-0.0294 -0.0034,-0.0578 -0.0083,-0.0858 l -0.737423,1.27641 h -1.153935 l 0.974101,-1.68672 H 33.84173 l -0.974617,1.68672 h -1.153902 l 0.9741,-1.68672 h -0.829923 l -0.974617,1.68672 h -1.153935 l 0.9741,-1.6867 h -0.829923 l -0.974617,1.68672 h -1.153935 l 0.9741,-1.68672 z m 7.305497,0.009 c 0.01528,0.003 0.02971,0.008 0.04444,0.0119 -0.01479,-0.004 -0.02911,-0.009 -0.04444,-0.0119 z m 0.08888,0.0258 c 0.0125,0.005 0.0242,0.0112 0.03617,0.017 -0.01199,-0.006 -0.02366,-0.0121 -0.03617,-0.017 z m 0.08423,0.0434 c 0.01031,0.007 0.0202,0.0139 0.02997,0.0212 -0.0098,-0.007 -0.0196,-0.0146 -0.02997,-0.0212 z m 0.06925,0.0537 c 0.01034,0.01 0.01997,0.0196 0.02946,0.03 -0.0095,-0.0104 -0.0191,-0.0204 -0.02946,-0.03 z m 0.05943,0.0661 c 0.0091,0.0121 0.01788,0.0243 0.02584,0.0372 -0.008,-0.0129 -0.01672,-0.0251 -0.02584,-0.0372 z m 0.04392,0.0708 c 0.0087,0.0169 0.01755,0.0337 0.02429,0.0517 -0.0068,-0.018 -0.01554,-0.0348 -0.02429,-0.0517 z m 0.03049,0.0724 c 0.0072,0.0221 0.0145,0.0444 0.0186,0.0677 -0.0041,-0.0234 -0.01133,-0.0455 -0.0186,-0.0677 z"
         id="path4616"
         inkscape:connector-curvature="0" />
      <path
         inkscape:connector-curvature="0"
         id="path4618"
         d="m 26.270649,285.37243 c -0.274836,0 -0.496094,0.22125 -0.496094,0.49609 v 1.1653 l 0.959632,-1.66139 z m 1.617989,0 -0.974617,1.68672 h -1.139466 v 4.13411 c 0,0.27484 0.221258,0.49609 0.496094,0.49609 h 1.238684 v -2.05155 a 0.61184895,0.61184895 0 0 1 -0.411861,-0.57774 0.61184895,0.61184895 0 0 1 0.611849,-0.61185 0.61184895,0.61184895 0 0 1 0.611849,0.61185 0.61184895,0.61184895 0 0 1 -0.411862,0.57774 v 2.05155 h 7.191809 c 0.274836,0 0.496094,-0.22125 0.496094,-0.49609 v -5.32474 c 0,-0.0294 -0.0034,-0.0578 -0.0083,-0.0858 l -0.737423,1.27641 h -1.153935 l 0.974101,-1.68672 H 33.84173 l -0.974617,1.68672 h -1.153902 l 0.9741,-1.68672 h -0.829923 l -0.974617,1.68672 h -1.153935 l 0.9741,-1.6867 h -0.829923 l -0.974617,1.68672 h -1.153935 l 0.9741,-1.68672 z m 7.305497,0.009 c 0.01528,0.003 0.02971,0.008 0.04444,0.0119 -0.01479,-0.004 -0.02911,-0.009 -0.04444,-0.0119 z m 0.08888,0.0258 c 0.0125,0.005 0.0242,0.0112 0.03617,0.017 -0.01199,-0.006 -0.02366,-0.0121 -0.03617,-0.017 z m 0.08423,0.0434 c 0.01031,0.007 0.0202,0.0139 0.02997,0.0212 -0.0098,-0.007 -0.0196,-0.0146 -0.02997,-0.0212 z m 0.06925,0.0537 c 0.01034,0.01 0.01997,0.0196 0.02946,0.03 -0.0095,-0.0104 -0.0191,-0.0204 -0.02946,-0.03 z m 0.05943,0.0661 c 0.0091,0.0121 0.01788,0.0243 0.02584,0.0372 -0.008,-0.0129 -0.01672,-0.0251 -0.02584,-0.0372 z m 0.04392,0.0708 c 0.0087,0.0169 0.01755,0.0337 0.02429,0.0517 -0.0068,-0.018 -0.01554,-0.0348 -0.02429,-0.0517 z m 0.03049,0.0724 c 0.0072,0.0221 0.0145,0.0444 0.0186,0.0677 -0.0041,-0.0234 -0.01133,-0.0455 -0.0186,-0.0677 z"
         style="opacity:1;fill:none;fill-opacity:1;stroke:#000000;stroke-width:0.5;stroke-linecap:round;stroke-linejoin:round;stroke-miterlimit:4;stroke-dasharray:none;stroke-dashoffset:0;stroke-opacity:0.00784314" />
      <path
         style="opacity:1;fill:none;fill-opacity:1;stroke:#000000;stroke-width:0.60000002;stroke-linecap:round;stroke-linejoin:round;stroke-miterlimit:4;stroke-dasharray:none;stroke-dashoffset:0;stroke-opacity:0.00784314"
         d="m 26.270649,285.37243 c -0.274836,0 -0.496094,0.22125 -0.496094,0.49609 v 1.1653 l 0.959632,-1.66139 z m 1.617989,0 -0.974617,1.68672 h -1.139466 v 4.13411 c 0,0.27484 0.221258,0.49609 0.496094,0.49609 h 1.238684 v -2.05155 a 0.61184895,0.61184895 0 0 1 -0.411861,-0.57774 0.61184895,0.61184895 0 0 1 0.611849,-0.61185 0.61184895,0.61184895 0 0 1 0.611849,0.61185 0.61184895,0.61184895 0 0 1 -0.411862,0.57774 v 2.05155 h 7.191809 c 0.274836,0 0.496094,-0.22125 0.496094,-0.49609 v -5.32474 c 0,-0.0294 -0.0034,-0.0578 -0.0083,-0.0858 l -0.737423,1.27641 h -1.153935 l 0.974101,-1.68672 H 33.84173 l -0.974617,1.68672 h -1.153902 l 0.9741,-1.68672 h -0.829923 l -0.974617,1.68672 h -1.153935 l 0.9741,-1.6867 h -0.829923 l -0.974617,1.68672 h -1.153935 l 0.9741,-1.68672 z m 7.305497,0.009 c 0.01528,0.003 0.02971,0.008 0.04444,0.0119 -0.01479,-0.004 -0.02911,-0.009 -0.04444,-0.0119 z m 0.08888,0.0258 c 0.0125,0.005 0.0242,0.0112 0.03617,0.017 -0.01199,-0.006 -0.02366,-0.0121 -0.03617,-0.017 z m 0.08423,0.0434 c 0.01031,0.007 0.0202,0.0139 0.02997,0.0212 -0.0098,-0.007 -0.0196,-0.0146 -0.02997,-0.0212 z m 0.06925,0.0537 c 0.01034,0.01 0.01997,0.0196 0.02946,0.03 -0.0095,-0.0104 -0.0191,-0.0204 -0.02946,-0.03 z m 0.05943,0.0661 c 0.0091,0.0121 0.01788,0.0243 0.02584,0.0372 -0.008,-0.0129 -0.01672,-0.0251 -0.02584,-0.0372 z m 0.04392,0.0708 c 0.0087,0.0169 0.01755,0.0337 0.02429,0.0517 -0.0068,-0.018 -0.01554,-0.0348 -0.02429,-0.0517 z m 0.03049,0.0724 c 0.0072,0.0221 0.0145,0.0444 0.0186,0.0677 -0.0041,-0.0234 -0.01133,-0.0455 -0.0186,-0.0677 z"
         id="path4620"
         inkscape:connector-curvature="0" />
      <path
         inkscape:connector-curvature="0"
         id="path4622"
         d="m 26.270649,285.37243 c -0.274836,0 -0.496094,0.22125 -0.496094,0.49609 v 1.1653 l 0.959632,-1.66139 z m 1.617989,0 -0.974617,1.68672 h -1.139466 v 4.13411 c 0,0.27484 0.221258,0.49609 0.496094,0.49609 h 1.238684 v -2.05155 a 0.61184895,0.61184895 0 0 1 -0.411861,-0.57774 0.61184895,0.61184895 0 0 1 0.611849,-0.61185 0.61184895,0.61184895 0 0 1 0.611849,0.61185 0.61184895,0.61184895 0 0 1 -0.411862,0.57774 v 2.05155 h 7.191809 c 0.274836,0 0.496094,-0.22125 0.496094,-0.49609 v -5.32474 c 0,-0.0294 -0.0034,-0.0578 -0.0083,-0.0858 l -0.737423,1.27641 h -1.153935 l 0.974101,-1.68672 H 33.84173 l -0.974617,1.68672 h -1.153902 l 0.9741,-1.68672 h -0.829923 l -0.974617,1.68672 h -1.153935 l 0.9741,-1.6867 h -0.829923 l -0.974617,1.68672 h -1.153935 l 0.9741,-1.68672 z m 7.305497,0.009 c 0.01528,0.003 0.02971,0.008 0.04444,0.0119 -0.01479,-0.004 -0.02911,-0.009 -0.04444,-0.0119 z m 0.08888,0.0258 c 0.0125,0.005 0.0242,0.0112 0.03617,0.017 -0.01199,-0.006 -0.02366,-0.0121 -0.03617,-0.017 z m 0.08423,0.0434 c 0.01031,0.007 0.0202,0.0139 0.02997,0.0212 -0.0098,-0.007 -0.0196,-0.0146 -0.02997,-0.0212 z m 0.06925,0.0537 c 0.01034,0.01 0.01997,0.0196 0.02946,0.03 -0.0095,-0.0104 -0.0191,-0.0204 -0.02946,-0.03 z m 0.05943,0.0661 c 0.0091,0.0121 0.01788,0.0243 0.02584,0.0372 -0.008,-0.0129 -0.01672,-0.0251 -0.02584,-0.0372 z m 0.04392,0.0708 c 0.0087,0.0169 0.01755,0.0337 0.02429,0.0517 -0.0068,-0.018 -0.01554,-0.0348 -0.02429,-0.0517 z m 0.03049,0.0724 c 0.0072,0.0221 0.0145,0.0444 0.0186,0.0677 -0.0041,-0.0234 -0.01133,-0.0455 -0.0186,-0.0677 z"
         style="opacity:1;fill:none;fill-opacity:1;stroke:#000000;stroke-width:0.69999999;stroke-linecap:round;stroke-linejoin:round;stroke-miterlimit:4;stroke-dasharray:none;stroke-dashoffset:0;stroke-opacity:0.00784314" />
      <path
         style="opacity:1;fill:none;fill-opacity:1;stroke:#000000;stroke-width:0.80000001;stroke-linecap:round;stroke-linejoin:round;stroke-miterlimit:4;stroke-dasharray:none;stroke-dashoffset:0;stroke-opacity:0.00784314"
         d="m 26.270649,285.37243 c -0.274836,0 -0.496094,0.22125 -0.496094,0.49609 v 1.1653 l 0.959632,-1.66139 z m 1.617989,0 -0.974617,1.68672 h -1.139466 v 4.13411 c 0,0.27484 0.221258,0.49609 0.496094,0.49609 h 1.238684 v -2.05155 a 0.61184895,0.61184895 0 0 1 -0.411861,-0.57774 0.61184895,0.61184895 0 0 1 0.611849,-0.61185 0.61184895,0.61184895 0 0 1 0.611849,0.61185 0.61184895,0.61184895 0 0 1 -0.411862,0.57774 v 2.05155 h 7.191809 c 0.274836,0 0.496094,-0.22125 0.496094,-0.49609 v -5.32474 c 0,-0.0294 -0.0034,-0.0578 -0.0083,-0.0858 l -0.737423,1.27641 h -1.153935 l 0.974101,-1.68672 H 33.84173 l -0.974617,1.68672 h -1.153902 l 0.9741,-1.68672 h -0.829923 l -0.974617,1.68672 h -1.153935 l 0.9741,-1.6867 h -0.829923 l -0.974617,1.68672 h -1.153935 l 0.9741,-1.68672 z m 7.305497,0.009 c 0.01528,0.003 0.02971,0.008 0.04444,0.0119 -0.01479,-0.004 -0.02911,-0.009 -0.04444,-0.0119 z m 0.08888,0.0258 c 0.0125,0.005 0.0242,0.0112 0.03617,0.017 -0.01199,-0.006 -0.02366,-0.0121 -0.03617,-0.017 z m 0.08423,0.0434 c 0.01031,0.007 0.0202,0.0139 0.02997,0.0212 -0.0098,-0.007 -0.0196,-0.0146 -0.02997,-0.0212 z m 0.06925,0.0537 c 0.01034,0.01 0.01997,0.0196 0.02946,0.03 -0.0095,-0.0104 -0.0191,-0.0204 -0.02946,-0.03 z m 0.05943,0.0661 c 0.0091,0.0121 0.01788,0.0243 0.02584,0.0372 -0.008,-0.0129 -0.01672,-0.0251 -0.02584,-0.0372 z m 0.04392,0.0708 c 0.0087,0.0169 0.01755,0.0337 0.02429,0.0517 -0.0068,-0.018 -0.01554,-0.0348 -0.02429,-0.0517 z m 0.03049,0.0724 c 0.0072,0.0221 0.0145,0.0444 0.0186,0.0677 -0.0041,-0.0234 -0.01133,-0.0455 -0.0186,-0.0677 z"
         id="path4624"
         inkscape:connector-curvature="0" />
      <path
         inkscape:connector-curvature="0"
         id="path4626"
         d="m 26.270649,285.37243 c -0.274836,0 -0.496094,0.22125 -0.496094,0.49609 v 1.1653 l 0.959632,-1.66139 z m 1.617989,0 -0.974617,1.68672 h -1.139466 v 4.13411 c 0,0.27484 0.221258,0.49609 0.496094,0.49609 h 1.238684 v -2.05155 a 0.61184895,0.61184895 0 0 1 -0.411861,-0.57774 0.61184895,0.61184895 0 0 1 0.611849,-0.61185 0.61184895,0.61184895 0 0 1 0.611849,0.61185 0.61184895,0.61184895 0 0 1 -0.411862,0.57774 v 2.05155 h 7.191809 c 0.274836,0 0.496094,-0.22125 0.496094,-0.49609 v -5.32474 c 0,-0.0294 -0.0034,-0.0578 -0.0083,-0.0858 l -0.737423,1.27641 h -1.153935 l 0.974101,-1.68672 H 33.84173 l -0.974617,1.68672 h -1.153902 l 0.9741,-1.68672 h -0.829923 l -0.974617,1.68672 h -1.153935 l 0.9741,-1.6867 h -0.829923 l -0.974617,1.68672 h -1.153935 l 0.9741,-1.68672 z m 7.305497,0.009 c 0.01528,0.003 0.02971,0.008 0.04444,0.0119 -0.01479,-0.004 -0.02911,-0.009 -0.04444,-0.0119 z m 0.08888,0.0258 c 0.0125,0.005 0.0242,0.0112 0.03617,0.017 -0.01199,-0.006 -0.02366,-0.0121 -0.03617,-0.017 z m 0.08423,0.0434 c 0.01031,0.007 0.0202,0.0139 0.02997,0.0212 -0.0098,-0.007 -0.0196,-0.0146 -0.02997,-0.0212 z m 0.06925,0.0537 c 0.01034,0.01 0.01997,0.0196 0.02946,0.03 -0.0095,-0.0104 -0.0191,-0.0204 -0.02946,-0.03 z m 0.05943,0.0661 c 0.0091,0.0121 0.01788,0.0243 0.02584,0.0372 -0.008,-0.0129 -0.01672,-0.0251 -0.02584,-0.0372 z m 0.04392,0.0708 c 0.0087,0.0169 0.01755,0.0337 0.02429,0.0517 -0.0068,-0.018 -0.01554,-0.0348 -0.02429,-0.0517 z m 0.03049,0.0724 c 0.0072,0.0221 0.0145,0.0444 0.0186,0.0677 -0.0041,-0.0234 -0.01133,-0.0455 -0.0186,-0.0677 z"
         style="opacity:1;fill:none;fill-opacity:1;stroke:#000000;stroke-width:0.89999998;stroke-linecap:round;stroke-linejoin:round;stroke-miterlimit:4;stroke-dasharray:none;stroke-dashoffset:0;stroke-opacity:0.00784314" />
      <path
         style="opacity:1;fill:none;fill-opacity:1;stroke:#000000;stroke-width:0.1;stroke-linecap:round;stroke-linejoin:round;stroke-miterlimit:4;stroke-dasharray:none;stroke-dashoffset:0;stroke-opacity:0.00784314"
         d="m 26.270649,285.37243 c -0.274836,0 -0.496094,0.22125 -0.496094,0.49609 v 1.1653 l 0.959632,-1.66139 z m 1.617989,0 -0.974617,1.68672 h -1.139466 v 4.13411 c 0,0.27484 0.221258,0.49609 0.496094,0.49609 h 1.238684 v -2.05155 a 0.61184895,0.61184895 0 0 1 -0.411861,-0.57774 0.61184895,0.61184895 0 0 1 0.611849,-0.61185 0.61184895,0.61184895 0 0 1 0.611849,0.61185 0.61184895,0.61184895 0 0 1 -0.411862,0.57774 v 2.05155 h 7.191809 c 0.274836,0 0.496094,-0.22125 0.496094,-0.49609 v -5.32474 c 0,-0.0294 -0.0034,-0.0578 -0.0083,-0.0858 l -0.737423,1.27641 h -1.153935 l 0.974101,-1.68672 H 33.84173 l -0.974617,1.68672 h -1.153902 l 0.9741,-1.68672 h -0.829923 l -0.974617,1.68672 h -1.153935 l 0.9741,-1.6867 h -0.829923 l -0.974617,1.68672 h -1.153935 l 0.9741,-1.68672 z m 7.305497,0.009 c 0.01528,0.003 0.02971,0.008 0.04444,0.0119 -0.01479,-0.004 -0.02911,-0.009 -0.04444,-0.0119 z m 0.08888,0.0258 c 0.0125,0.005 0.0242,0.0112 0.03617,0.017 -0.01199,-0.006 -0.02366,-0.0121 -0.03617,-0.017 z m 0.08423,0.0434 c 0.01031,0.007 0.0202,0.0139 0.02997,0.0212 -0.0098,-0.007 -0.0196,-0.0146 -0.02997,-0.0212 z m 0.06925,0.0537 c 0.01034,0.01 0.01997,0.0196 0.02946,0.03 -0.0095,-0.0104 -0.0191,-0.0204 -0.02946,-0.03 z m 0.05943,0.0661 c 0.0091,0.0121 0.01788,0.0243 0.02584,0.0372 -0.008,-0.0129 -0.01672,-0.0251 -0.02584,-0.0372 z m 0.04392,0.0708 c 0.0087,0.0169 0.01755,0.0337 0.02429,0.0517 -0.0068,-0.018 -0.01554,-0.0348 -0.02429,-0.0517 z m 0.03049,0.0724 c 0.0072,0.0221 0.0145,0.0444 0.0186,0.0677 -0.0041,-0.0234 -0.01133,-0.0455 -0.0186,-0.0677 z"
         id="path4628"
         inkscape:connector-curvature="0" />
      <path
         inkscape:connector-curvature="0"
         id="path4630"
         d="m 26.270649,285.37243 c -0.274836,0 -0.496094,0.22125 -0.496094,0.49609 v 1.1653 l 0.959632,-1.66139 z m 1.617989,0 -0.974617,1.68672 h -1.139466 v 4.13411 c 0,0.27484 0.221258,0.49609 0.496094,0.49609 h 1.238684 v -2.05155 a 0.61184895,0.61184895 0 0 1 -0.411861,-0.57774 0.61184895,0.61184895 0 0 1 0.611849,-0.61185 0.61184895,0.61184895 0 0 1 0.611849,0.61185 0.61184895,0.61184895 0 0 1 -0.411862,0.57774 v 2.05155 h 7.191809 c 0.274836,0 0.496094,-0.22125 0.496094,-0.49609 v -5.32474 c 0,-0.0294 -0.0034,-0.0578 -0.0083,-0.0858 l -0.737423,1.27641 h -1.153935 l 0.974101,-1.68672 H 33.84173 l -0.974617,1.68672 h -1.153902 l 0.9741,-1.68672 h -0.829923 l -0.974617,1.68672 h -1.153935 l 0.9741,-1.6867 h -0.829923 l -0.974617,1.68672 h -1.153935 l 0.9741,-1.68672 z m 7.305497,0.009 c 0.01528,0.003 0.02971,0.008 0.04444,0.0119 -0.01479,-0.004 -0.02911,-0.009 -0.04444,-0.0119 z m 0.08888,0.0258 c 0.0125,0.005 0.0242,0.0112 0.03617,0.017 -0.01199,-0.006 -0.02366,-0.0121 -0.03617,-0.017 z m 0.08423,0.0434 c 0.01031,0.007 0.0202,0.0139 0.02997,0.0212 -0.0098,-0.007 -0.0196,-0.0146 -0.02997,-0.0212 z m 0.06925,0.0537 c 0.01034,0.01 0.01997,0.0196 0.02946,0.03 -0.0095,-0.0104 -0.0191,-0.0204 -0.02946,-0.03 z m 0.05943,0.0661 c 0.0091,0.0121 0.01788,0.0243 0.02584,0.0372 -0.008,-0.0129 -0.01672,-0.0251 -0.02584,-0.0372 z m 0.04392,0.0708 c 0.0087,0.0169 0.01755,0.0337 0.02429,0.0517 -0.0068,-0.018 -0.01554,-0.0348 -0.02429,-0.0517 z m 0.03049,0.0724 c 0.0072,0.0221 0.0145,0.0444 0.0186,0.0677 -0.0041,-0.0234 -0.01133,-0.0455 -0.0186,-0.0677 z"
         style="opacity:1;fill:none;fill-opacity:1;stroke:#000000;stroke-width:1;stroke-linecap:round;stroke-linejoin:round;stroke-miterlimit:4;stroke-dasharray:none;stroke-dashoffset:0;stroke-opacity:0.00784314" />
      <path
         style="opacity:1;fill:none;fill-opacity:1;stroke:#000000;stroke-width:1.20000005;stroke-linecap:round;stroke-linejoin:round;stroke-miterlimit:4;stroke-dasharray:none;stroke-dashoffset:0;stroke-opacity:0.00784314"
         d="m 26.270649,285.37243 c -0.274836,0 -0.496094,0.22125 -0.496094,0.49609 v 1.1653 l 0.959632,-1.66139 z m 1.617989,0 -0.974617,1.68672 h -1.139466 v 4.13411 c 0,0.27484 0.221258,0.49609 0.496094,0.49609 h 1.238684 v -2.05155 a 0.61184895,0.61184895 0 0 1 -0.411861,-0.57774 0.61184895,0.61184895 0 0 1 0.611849,-0.61185 0.61184895,0.61184895 0 0 1 0.611849,0.61185 0.61184895,0.61184895 0 0 1 -0.411862,0.57774 v 2.05155 h 7.191809 c 0.274836,0 0.496094,-0.22125 0.496094,-0.49609 v -5.32474 c 0,-0.0294 -0.0034,-0.0578 -0.0083,-0.0858 l -0.737423,1.27641 h -1.153935 l 0.974101,-1.68672 H 33.84173 l -0.974617,1.68672 h -1.153902 l 0.9741,-1.68672 h -0.829923 l -0.974617,1.68672 h -1.153935 l 0.9741,-1.6867 h -0.829923 l -0.974617,1.68672 h -1.153935 l 0.9741,-1.68672 z m 7.305497,0.009 c 0.01528,0.003 0.02971,0.008 0.04444,0.0119 -0.01479,-0.004 -0.02911,-0.009 -0.04444,-0.0119 z m 0.08888,0.0258 c 0.0125,0.005 0.0242,0.0112 0.03617,0.017 -0.01199,-0.006 -0.02366,-0.0121 -0.03617,-0.017 z m 0.08423,0.0434 c 0.01031,0.007 0.0202,0.0139 0.02997,0.0212 -0.0098,-0.007 -0.0196,-0.0146 -0.02997,-0.0212 z m 0.06925,0.0537 c 0.01034,0.01 0.01997,0.0196 0.02946,0.03 -0.0095,-0.0104 -0.0191,-0.0204 -0.02946,-0.03 z m 0.05943,0.0661 c 0.0091,0.0121 0.01788,0.0243 0.02584,0.0372 -0.008,-0.0129 -0.01672,-0.0251 -0.02584,-0.0372 z m 0.04392,0.0708 c 0.0087,0.0169 0.01755,0.0337 0.02429,0.0517 -0.0068,-0.018 -0.01554,-0.0348 -0.02429,-0.0517 z m 0.03049,0.0724 c 0.0072,0.0221 0.0145,0.0444 0.0186,0.0677 -0.0041,-0.0234 -0.01133,-0.0455 -0.0186,-0.0677 z"
         id="path4632"
         inkscape:connector-curvature="0" />
      <path
         inkscape:connector-curvature="0"
         id="path4634"
         d="m 26.270649,285.37243 c -0.274836,0 -0.496094,0.22125 -0.496094,0.49609 v 1.1653 l 0.959632,-1.66139 z m 1.617989,0 -0.974617,1.68672 h -1.139466 v 4.13411 c 0,0.27484 0.221258,0.49609 0.496094,0.49609 h 1.238684 v -2.05155 a 0.61184895,0.61184895 0 0 1 -0.411861,-0.57774 0.61184895,0.61184895 0 0 1 0.611849,-0.61185 0.61184895,0.61184895 0 0 1 0.611849,0.61185 0.61184895,0.61184895 0 0 1 -0.411862,0.57774 v 2.05155 h 7.191809 c 0.274836,0 0.496094,-0.22125 0.496094,-0.49609 v -5.32474 c 0,-0.0294 -0.0034,-0.0578 -0.0083,-0.0858 l -0.737423,1.27641 h -1.153935 l 0.974101,-1.68672 H 33.84173 l -0.974617,1.68672 h -1.153902 l 0.9741,-1.68672 h -0.829923 l -0.974617,1.68672 h -1.153935 l 0.9741,-1.6867 h -0.829923 l -0.974617,1.68672 h -1.153935 l 0.9741,-1.68672 z m 7.305497,0.009 c 0.01528,0.003 0.02971,0.008 0.04444,0.0119 -0.01479,-0.004 -0.02911,-0.009 -0.04444,-0.0119 z m 0.08888,0.0258 c 0.0125,0.005 0.0242,0.0112 0.03617,0.017 -0.01199,-0.006 -0.02366,-0.0121 -0.03617,-0.017 z m 0.08423,0.0434 c 0.01031,0.007 0.0202,0.0139 0.02997,0.0212 -0.0098,-0.007 -0.0196,-0.0146 -0.02997,-0.0212 z m 0.06925,0.0537 c 0.01034,0.01 0.01997,0.0196 0.02946,0.03 -0.0095,-0.0104 -0.0191,-0.0204 -0.02946,-0.03 z m 0.05943,0.0661 c 0.0091,0.0121 0.01788,0.0243 0.02584,0.0372 -0.008,-0.0129 -0.01672,-0.0251 -0.02584,-0.0372 z m 0.04392,0.0708 c 0.0087,0.0169 0.01755,0.0337 0.02429,0.0517 -0.0068,-0.018 -0.01554,-0.0348 -0.02429,-0.0517 z m 0.03049,0.0724 c 0.0072,0.0221 0.0145,0.0444 0.0186,0.0677 -0.0041,-0.0234 -0.01133,-0.0455 -0.0186,-0.0677 z"
         style="opacity:1;fill:none;fill-opacity:1;stroke:#000000;stroke-width:1.39999998;stroke-linecap:round;stroke-linejoin:round;stroke-miterlimit:4;stroke-dasharray:none;stroke-dashoffset:0;stroke-opacity:0.00784314" />
      <path
         style="opacity:1;fill:none;fill-opacity:1;stroke:#000000;stroke-width:1.60000002;stroke-linecap:round;stroke-linejoin:round;stroke-miterlimit:4;stroke-dasharray:none;stroke-dashoffset:0;stroke-opacity:0.00784314"
         d="m 26.270649,285.37243 c -0.274836,0 -0.496094,0.22125 -0.496094,0.49609 v 1.1653 l 0.959632,-1.66139 z m 1.617989,0 -0.974617,1.68672 h -1.139466 v 4.13411 c 0,0.27484 0.221258,0.49609 0.496094,0.49609 h 1.238684 v -2.05155 a 0.61184895,0.61184895 0 0 1 -0.411861,-0.57774 0.61184895,0.61184895 0 0 1 0.611849,-0.61185 0.61184895,0.61184895 0 0 1 0.611849,0.61185 0.61184895,0.61184895 0 0 1 -0.411862,0.57774 v 2.05155 h 7.191809 c 0.274836,0 0.496094,-0.22125 0.496094,-0.49609 v -5.32474 c 0,-0.0294 -0.0034,-0.0578 -0.0083,-0.0858 l -0.737423,1.27641 h -1.153935 l 0.974101,-1.68672 H 33.84173 l -0.974617,1.68672 h -1.153902 l 0.9741,-1.68672 h -0.829923 l -0.974617,1.68672 h -1.153935 l 0.9741,-1.6867 h -0.829923 l -0.974617,1.68672 h -1.153935 l 0.9741,-1.68672 z m 7.305497,0.009 c 0.01528,0.003 0.02971,0.008 0.04444,0.0119 -0.01479,-0.004 -0.02911,-0.009 -0.04444,-0.0119 z m 0.08888,0.0258 c 0.0125,0.005 0.0242,0.0112 0.03617,0.017 -0.01199,-0.006 -0.02366,-0.0121 -0.03617,-0.017 z m 0.08423,0.0434 c 0.01031,0.007 0.0202,0.0139 0.02997,0.0212 -0.0098,-0.007 -0.0196,-0.0146 -0.02997,-0.0212 z m 0.06925,0.0537 c 0.01034,0.01 0.01997,0.0196 0.02946,0.03 -0.0095,-0.0104 -0.0191,-0.0204 -0.02946,-0.03 z m 0.05943,0.0661 c 0.0091,0.0121 0.01788,0.0243 0.02584,0.0372 -0.008,-0.0129 -0.01672,-0.0251 -0.02584,-0.0372 z m 0.04392,0.0708 c 0.0087,0.0169 0.01755,0.0337 0.02429,0.0517 -0.0068,-0.018 -0.01554,-0.0348 -0.02429,-0.0517 z m 0.03049,0.0724 c 0.0072,0.0221 0.0145,0.0444 0.0186,0.0677 -0.0041,-0.0234 -0.01133,-0.0455 -0.0186,-0.0677 z"
         id="path4636"
         inkscape:connector-curvature="0" />
      <path
         inkscape:connector-curvature="0"
         id="path4638"
         d="m 26.270649,285.37243 c -0.274836,0 -0.496094,0.22125 -0.496094,0.49609 v 1.1653 l 0.959632,-1.66139 z m 1.617989,0 -0.974617,1.68672 h -1.139466 v 4.13411 c 0,0.27484 0.221258,0.49609 0.496094,0.49609 h 1.238684 v -2.05155 a 0.61184895,0.61184895 0 0 1 -0.411861,-0.57774 0.61184895,0.61184895 0 0 1 0.611849,-0.61185 0.61184895,0.61184895 0 0 1 0.611849,0.61185 0.61184895,0.61184895 0 0 1 -0.411862,0.57774 v 2.05155 h 7.191809 c 0.274836,0 0.496094,-0.22125 0.496094,-0.49609 v -5.32474 c 0,-0.0294 -0.0034,-0.0578 -0.0083,-0.0858 l -0.737423,1.27641 h -1.153935 l 0.974101,-1.68672 H 33.84173 l -0.974617,1.68672 h -1.153902 l 0.9741,-1.68672 h -0.829923 l -0.974617,1.68672 h -1.153935 l 0.9741,-1.6867 h -0.829923 l -0.974617,1.68672 h -1.153935 l 0.9741,-1.68672 z m 7.305497,0.009 c 0.01528,0.003 0.02971,0.008 0.04444,0.0119 -0.01479,-0.004 -0.02911,-0.009 -0.04444,-0.0119 z m 0.08888,0.0258 c 0.0125,0.005 0.0242,0.0112 0.03617,0.017 -0.01199,-0.006 -0.02366,-0.0121 -0.03617,-0.017 z m 0.08423,0.0434 c 0.01031,0.007 0.0202,0.0139 0.02997,0.0212 -0.0098,-0.007 -0.0196,-0.0146 -0.02997,-0.0212 z m 0.06925,0.0537 c 0.01034,0.01 0.01997,0.0196 0.02946,0.03 -0.0095,-0.0104 -0.0191,-0.0204 -0.02946,-0.03 z m 0.05943,0.0661 c 0.0091,0.0121 0.01788,0.0243 0.02584,0.0372 -0.008,-0.0129 -0.01672,-0.0251 -0.02584,-0.0372 z m 0.04392,0.0708 c 0.0087,0.0169 0.01755,0.0337 0.02429,0.0517 -0.0068,-0.018 -0.01554,-0.0348 -0.02429,-0.0517 z m 0.03049,0.0724 c 0.0072,0.0221 0.0145,0.0444 0.0186,0.0677 -0.0041,-0.0234 -0.01133,-0.0455 -0.0186,-0.0677 z"
         style="opacity:1;fill:none;fill-opacity:1;stroke:#000000;stroke-width:1.79999995;stroke-linecap:round;stroke-linejoin:round;stroke-miterlimit:4;stroke-dasharray:none;stroke-dashoffset:0;stroke-opacity:0.00784314" />
      <path
         style="opacity:1;fill:none;fill-opacity:1;stroke:#000000;stroke-width:2;stroke-linecap:round;stroke-linejoin:round;stroke-miterlimit:4;stroke-dasharray:none;stroke-dashoffset:0;stroke-opacity:0.00784314"
         d="m 26.270649,285.37243 c -0.274836,0 -0.496094,0.22125 -0.496094,0.49609 v 1.1653 l 0.959632,-1.66139 z m 1.617989,0 -0.974617,1.68672 h -1.139466 v 4.13411 c 0,0.27484 0.221258,0.49609 0.496094,0.49609 h 1.238684 v -2.05155 a 0.61184895,0.61184895 0 0 1 -0.411861,-0.57774 0.61184895,0.61184895 0 0 1 0.611849,-0.61185 0.61184895,0.61184895 0 0 1 0.611849,0.61185 0.61184895,0.61184895 0 0 1 -0.411862,0.57774 v 2.05155 h 7.191809 c 0.274836,0 0.496094,-0.22125 0.496094,-0.49609 v -5.32474 c 0,-0.0294 -0.0034,-0.0578 -0.0083,-0.0858 l -0.737423,1.27641 h -1.153935 l 0.974101,-1.68672 H 33.84173 l -0.974617,1.68672 h -1.153902 l 0.9741,-1.68672 h -0.829923 l -0.974617,1.68672 h -1.153935 l 0.9741,-1.6867 h -0.829923 l -0.974617,1.68672 h -1.153935 l 0.9741,-1.68672 z m 7.305497,0.009 c 0.01528,0.003 0.02971,0.008 0.04444,0.0119 -0.01479,-0.004 -0.02911,-0.009 -0.04444,-0.0119 z m 0.08888,0.0258 c 0.0125,0.005 0.0242,0.0112 0.03617,0.017 -0.01199,-0.006 -0.02366,-0.0121 -0.03617,-0.017 z m 0.08423,0.0434 c 0.01031,0.007 0.0202,0.0139 0.02997,0.0212 -0.0098,-0.007 -0.0196,-0.0146 -0.02997,-0.0212 z m 0.06925,0.0537 c 0.01034,0.01 0.01997,0.0196 0.02946,0.03 -0.0095,-0.0104 -0.0191,-0.0204 -0.02946,-0.03 z m 0.05943,0.0661 c 0.0091,0.0121 0.01788,0.0243 0.02584,0.0372 -0.008,-0.0129 -0.01672,-0.0251 -0.02584,-0.0372 z m 0.04392,0.0708 c 0.0087,0.0169 0.01755,0.0337 0.02429,0.0517 -0.0068,-0.018 -0.01554,-0.0348 -0.02429,-0.0517 z m 0.03049,0.0724 c 0.0072,0.0221 0.0145,0.0444 0.0186,0.0677 -0.0041,-0.0234 -0.01133,-0.0455 -0.0186,-0.0677 z"
         id="path4640"
         inkscape:connector-curvature="0" />
      <path
         inkscape:connector-curvature="0"
         id="path4642"
         d="m 26.270649,285.37243 c -0.274836,0 -0.496094,0.22125 -0.496094,0.49609 v 1.1653 l 0.959632,-1.66139 z m 1.617989,0 -0.974617,1.68672 h -1.139466 v 4.13411 c 0,0.27484 0.221258,0.49609 0.496094,0.49609 h 1.238684 v -2.05155 a 0.61184895,0.61184895 0 0 1 -0.411861,-0.57774 0.61184895,0.61184895 0 0 1 0.611849,-0.61185 0.61184895,0.61184895 0 0 1 0.611849,0.61185 0.61184895,0.61184895 0 0 1 -0.411862,0.57774 v 2.05155 h 7.191809 c 0.274836,0 0.496094,-0.22125 0.496094,-0.49609 v -5.32474 c 0,-0.0294 -0.0034,-0.0578 -0.0083,-0.0858 l -0.737423,1.27641 h -1.153935 l 0.974101,-1.68672 H 33.84173 l -0.974617,1.68672 h -1.153902 l 0.9741,-1.68672 h -0.829923 l -0.974617,1.68672 h -1.153935 l 0.9741,-1.6867 h -0.829923 l -0.974617,1.68672 h -1.153935 l 0.9741,-1.68672 z m 7.305497,0.009 c 0.01528,0.003 0.02971,0.008 0.04444,0.0119 -0.01479,-0.004 -0.02911,-0.009 -0.04444,-0.0119 z m 0.08888,0.0258 c 0.0125,0.005 0.0242,0.0112 0.03617,0.017 -0.01199,-0.006 -0.02366,-0.0121 -0.03617,-0.017 z m 0.08423,0.0434 c 0.01031,0.007 0.0202,0.0139 0.02997,0.0212 -0.0098,-0.007 -0.0196,-0.0146 -0.02997,-0.0212 z m 0.06925,0.0537 c 0.01034,0.01 0.01997,0.0196 0.02946,0.03 -0.0095,-0.0104 -0.0191,-0.0204 -0.02946,-0.03 z m 0.05943,0.0661 c 0.0091,0.0121 0.01788,0.0243 0.02584,0.0372 -0.008,-0.0129 -0.01672,-0.0251 -0.02584,-0.0372 z m 0.04392,0.0708 c 0.0087,0.0169 0.01755,0.0337 0.02429,0.0517 -0.0068,-0.018 -0.01554,-0.0348 -0.02429,-0.0517 z m 0.03049,0.0724 c 0.0072,0.0221 0.0145,0.0444 0.0186,0.0677 -0.0041,-0.0234 -0.01133,-0.0455 -0.0186,-0.0677 z"
         style="opacity:1;fill:none;fill-opacity:1;stroke:#000000;stroke-width:2.4000001;stroke-linecap:round;stroke-linejoin:round;stroke-miterlimit:4;stroke-dasharray:none;stroke-dashoffset:0;stroke-opacity:0.00784314" />
      <path
         style="opacity:1;fill:none;fill-opacity:1;stroke:#000000;stroke-width:2.79999995;stroke-linecap:round;stroke-linejoin:round;stroke-miterlimit:4;stroke-dasharray:none;stroke-dashoffset:0;stroke-opacity:0.00784314"
         d="m 26.270649,285.37243 c -0.274836,0 -0.496094,0.22125 -0.496094,0.49609 v 1.1653 l 0.959632,-1.66139 z m 1.617989,0 -0.974617,1.68672 h -1.139466 v 4.13411 c 0,0.27484 0.221258,0.49609 0.496094,0.49609 h 1.238684 v -2.05155 a 0.61184895,0.61184895 0 0 1 -0.411861,-0.57774 0.61184895,0.61184895 0 0 1 0.611849,-0.61185 0.61184895,0.61184895 0 0 1 0.611849,0.61185 0.61184895,0.61184895 0 0 1 -0.411862,0.57774 v 2.05155 h 7.191809 c 0.274836,0 0.496094,-0.22125 0.496094,-0.49609 v -5.32474 c 0,-0.0294 -0.0034,-0.0578 -0.0083,-0.0858 l -0.737423,1.27641 h -1.153935 l 0.974101,-1.68672 H 33.84173 l -0.974617,1.68672 h -1.153902 l 0.9741,-1.68672 h -0.829923 l -0.974617,1.68672 h -1.153935 l 0.9741,-1.6867 h -0.829923 l -0.974617,1.68672 h -1.153935 l 0.9741,-1.68672 z m 7.305497,0.009 c 0.01528,0.003 0.02971,0.008 0.04444,0.0119 -0.01479,-0.004 -0.02911,-0.009 -0.04444,-0.0119 z m 0.08888,0.0258 c 0.0125,0.005 0.0242,0.0112 0.03617,0.017 -0.01199,-0.006 -0.02366,-0.0121 -0.03617,-0.017 z m 0.08423,0.0434 c 0.01031,0.007 0.0202,0.0139 0.02997,0.0212 -0.0098,-0.007 -0.0196,-0.0146 -0.02997,-0.0212 z m 0.06925,0.0537 c 0.01034,0.01 0.01997,0.0196 0.02946,0.03 -0.0095,-0.0104 -0.0191,-0.0204 -0.02946,-0.03 z m 0.05943,0.0661 c 0.0091,0.0121 0.01788,0.0243 0.02584,0.0372 -0.008,-0.0129 -0.01672,-0.0251 -0.02584,-0.0372 z m 0.04392,0.0708 c 0.0087,0.0169 0.01755,0.0337 0.02429,0.0517 -0.0068,-0.018 -0.01554,-0.0348 -0.02429,-0.0517 z m 0.03049,0.0724 c 0.0072,0.0221 0.0145,0.0444 0.0186,0.0677 -0.0041,-0.0234 -0.01133,-0.0455 -0.0186,-0.0677 z"
         id="path4644"
         inkscape:connector-curvature="0" />
      <path
         inkscape:connector-curvature="0"
         id="path4646"
         d="m 26.270649,285.37243 c -0.274836,0 -0.496094,0.22125 -0.496094,0.49609 v 1.1653 l 0.959632,-1.66139 z m 1.617989,0 -0.974617,1.68672 h -1.139466 v 4.13411 c 0,0.27484 0.221258,0.49609 0.496094,0.49609 h 1.238684 v -2.05155 c -0.246331,-0.0852 -0.411647,-0.31709 -0.411861,-0.57774 -1e-6,-0.33792 0.273934,-0.61185 0.611849,-0.61185 0.337915,0 0.61185,0.27393 0.611849,0.61185 -2.14e-4,0.26065 -0.16553,0.49255 -0.411862,0.57774 v 2.05155 h 7.191809 c 0.274836,0 0.496094,-0.22125 0.496094,-0.49609 v -5.32474 c -0.114586,-0.0441 -0.580773,0.9051 -0.745723,1.19061 h -1.153935 l 0.974101,-1.68672 H 33.84173 l -0.974617,1.68672 h -1.153902 l 0.9741,-1.68672 h -0.829923 l -0.974617,1.68672 h -1.153935 l 0.9741,-1.6867 h -0.829923 l -0.974617,1.68672 h -1.153935 l 0.9741,-1.68672 z"
         style="opacity:1;fill:none;fill-opacity:1;stroke:#000000;stroke-width:3.20000005;stroke-linecap:round;stroke-linejoin:round;stroke-miterlimit:4;stroke-dasharray:none;stroke-dashoffset:0;stroke-opacity:0.00784314"
         sodipodi:nodetypes="ssccscccsscccscccssccccccccccccccccc" />
    </g>
    <path
       style="opacity:1;fill:#e6f7fb;fill-opacity:1;stroke:none;stroke-width:0.80000001;stroke-linecap:round;stroke-linejoin:round;stroke-miterlimit:4;stroke-dasharray:0.79999998, 0.79999998000000005;stroke-dashoffset:0;stroke-opacity:0.99607843"
       d="m 4.0538695,285.37243 c -0.2748359,0 -0.4960937,0.22125 -0.4960937,0.49609 v 1.1653 l 0.9596313,-1.66139 z m 1.617989,0 -0.9746173,1.68672 H 3.5577758 v 4.13411 c 0,0.27484 0.2212578,0.49609 0.4960937,0.49609 h 1.2386842 v -2.05155 c -0.2463315,-0.0852 -0.4116473,-0.31709 -0.4118613,-0.57774 -6e-7,-0.33792 0.2739337,-0.61185 0.611849,-0.61185 0.3379152,0 0.6118495,0.27393 0.6118489,0.61185 -2.14e-4,0.26065 -0.1655298,0.49255 -0.4118613,0.57774 v 2.05155 h 7.191809 c 0.274836,0 0.496094,-0.22125 0.496094,-0.49609 v -5.32474 c -0.114586,-0.0441 -0.580773,0.9051 -0.745723,1.19061 h -1.153935 l 0.974101,-1.68672 h -0.829924 l -0.974617,1.68672 H 9.4964311 l 0.9741009,-1.68672 H 9.6406084 l -0.9746173,1.68672 H 7.5120562 l 0.9741008,-1.6867 H 7.6562334 l -0.9746173,1.68672 H 5.5276812 l 0.9741008,-1.68672 z"
       id="rect4552"
       inkscape:connector-curvature="0"
       sodipodi:nodetypes="ssccscccsscccscccssccccccccccccccccc" />
  </g>
</svg>
