<?xml version="1.0" encoding="UTF-8" standalone="no"?>
<!-- Created with Inkscape (http://www.inkscape.org/) -->

<svg
   xmlns:dc="http://purl.org/dc/elements/1.1/"
   xmlns:cc="http://creativecommons.org/ns#"
   xmlns:rdf="http://www.w3.org/1999/02/22-rdf-syntax-ns#"
   xmlns:svg="http://www.w3.org/2000/svg"
   xmlns="http://www.w3.org/2000/svg"
   xmlns:xlink="http://www.w3.org/1999/xlink"
   xmlns:sodipodi="http://sodipodi.sourceforge.net/DTD/sodipodi-0.dtd"
   xmlns:inkscape="http://www.inkscape.org/namespaces/inkscape"
   width="64"
   height="64"
   viewBox="0 0 16.933333 16.933334"
   version="1.1"
   id="svg8"
   inkscape:version="0.92.1 r15371"
   sodipodi:docname="preferences-system.svg">
  <defs
     id="defs2">
    <linearGradient
       inkscape:collect="always"
       id="linearGradient4608">
      <stop
         style="stop-color:#ffffff;stop-opacity:1"
         offset="0"
         id="stop4604" />
      <stop
         style="stop-color:#f5f5f5;stop-opacity:1"
         offset="1"
         id="stop4606" />
    </linearGradient>
    <linearGradient
       id="linearGradient4579"
       inkscape:collect="always">
      <stop
         id="stop4575"
         offset="0"
         style="stop-color:#ac2aff;stop-opacity:1" />
      <stop
         id="stop4577"
         offset="1"
         style="stop-color:#ac2aff;stop-opacity:0" />
    </linearGradient>
    <linearGradient
       inkscape:collect="always"
       id="linearGradient4561">
      <stop
         style="stop-color:#000000;stop-opacity:1;"
         offset="0"
         id="stop4557" />
      <stop
         id="stop4565"
         offset="0.34868565"
         style="stop-color:#000000;stop-opacity:0.93333333;" />
      <stop
         style="stop-color:#000000;stop-opacity:0.81568627;"
         offset="0.50021386"
         id="stop4567" />
      <stop
         id="stop4571"
         offset="0.81337225"
         style="stop-color:#000000;stop-opacity:0.68235294;" />
      <stop
         style="stop-color:#000000;stop-opacity:0.42352941;"
         offset="0.92449296"
         id="stop4573" />
      <stop
         style="stop-color:#000000;stop-opacity:0;"
         offset="1"
         id="stop4559" />
    </linearGradient>
    <linearGradient
       inkscape:collect="always"
       id="linearGradient4517">
      <stop
         style="stop-color:#ac2aff;stop-opacity:1"
         offset="0"
         id="stop4513" />
      <stop
         style="stop-color:#ac2aff;stop-opacity:0.16260162"
         offset="1"
         id="stop4515" />
    </linearGradient>
    <linearGradient
       inkscape:collect="always"
       id="linearGradient4502">
      <stop
         style="stop-color:#edf1f2;stop-opacity:0.99215686"
         offset="0"
         id="stop4498" />
      <stop
         style="stop-color:#c1c7c9;stop-opacity:0.99215686"
         offset="1"
         id="stop4500" />
    </linearGradient>
    <linearGradient
       inkscape:collect="always"
       xlink:href="#linearGradient4502"
       id="linearGradient4504"
       x1="8.915741"
       y1="281.40845"
       x2="9.1047287"
       y2="295.86603"
       gradientUnits="userSpaceOnUse"
       gradientTransform="matrix(0.95954774,0,0,0.95954774,0.38287678,11.575802)" />
    <linearGradient
       inkscape:collect="always"
       xlink:href="#linearGradient4517"
       id="linearGradient4523"
       gradientUnits="userSpaceOnUse"
       x1="25.812502"
       y1="20.964983"
       x2="34.741604"
       y2="26.782574"
       gradientTransform="matrix(0.25388034,0,0,0.25388034,0.38287678,280.31313)" />
    <radialGradient
       inkscape:collect="always"
       xlink:href="#linearGradient4561"
       id="radialGradient4563"
       cx="10.453005"
       cy="284.69232"
       fx="10.453005"
       fy="284.69232"
       r="2.3385258"
       gradientUnits="userSpaceOnUse"
       gradientTransform="matrix(0.95954774,0,0,0.95954774,0.45088044,11.983824)" />
    <radialGradient
       inkscape:collect="always"
       xlink:href="#linearGradient4608"
       id="radialGradient4610"
       cx="10.42829"
       cy="284.69409"
       fx="10.42829"
       fy="284.69409"
       r="2.3385258"
       gradientUnits="userSpaceOnUse"
       gradientTransform="matrix(0.95954063,0.00369473,-0.00343157,0.89119624,1.3609456,31.017494)" />
    <linearGradient
       inkscape:collect="always"
       xlink:href="#linearGradient4579"
       id="linearGradient4747"
       gradientUnits="userSpaceOnUse"
       gradientTransform="matrix(0.25388034,0,0,0.25388034,0.38287678,280.31313)"
       x1="30.098215"
       y1="50.786411"
       x2="49.919922"
       y2="32.393555" />
  </defs>
  <sodipodi:namedview
     id="base"
     pagecolor="#ffffff"
     bordercolor="#666666"
     borderopacity="1.0"
     inkscape:pageopacity="0.0"
     inkscape:pageshadow="2"
     inkscape:zoom="7.9195959"
     inkscape:cx="26.098416"
     inkscape:cy="18.686885"
     inkscape:document-units="mm"
     inkscape:current-layer="layer1"
     showgrid="false"
     units="px"
     inkscape:window-width="1920"
     inkscape:window-height="1040"
     inkscape:window-x="0"
     inkscape:window-y="0"
     inkscape:window-maximized="1" />
  <metadata
     id="metadata5">
    <rdf:RDF>
      <cc:Work
         rdf:about="">
        <dc:format>image/svg+xml</dc:format>
        <dc:type
           rdf:resource="http://purl.org/dc/dcmitype/StillImage" />
        <dc:title></dc:title>
      </cc:Work>
    </rdf:RDF>
  </metadata>
  <g
     inkscape:label="Capa 1"
     inkscape:groupmode="layer"
     id="layer1"
     transform="translate(0,-280.06665)">
    <g
       id="g4724"
       transform="matrix(0.95954774,0,0,0.95954774,21.282669,11.575802)"
       style="opacity:0.368">
      <path
         style="opacity:1;fill:none;fill-opacity:1;stroke:#000000;stroke-width:0.1;stroke-linecap:round;stroke-linejoin:round;stroke-miterlimit:4;stroke-dasharray:none;stroke-dashoffset:0;stroke-opacity:0.01176471"
         d="m -14.89442,280.65258 c -0.244058,0 -0.423115,0.19687 -0.440883,0.44029 l -0.126482,1.73341 a 6.1675377,6.1675377 0 0 0 -1.970721,1.14076 l -1.552726,-0.75168 c -0.219681,-0.10629 -0.480271,-0.0499 -0.602299,0.16142 l -1.486473,2.57543 c -0.12203,0.21135 -0.04994,0.47967 0.161416,0.6017 l 1.436482,0.96006 a 6.1675377,6.1675377 0 0 0 -0.107209,1.12329 6.1675377,6.1675377 0 0 0 0.111425,1.14437 l -1.440698,0.97812 c -0.211362,0.12203 -0.283444,0.39034 -0.161416,0.6017 l 1.486473,2.57543 c 0.122028,0.21137 0.383392,0.26935 0.602299,0.16142 l 1.565976,-0.77215 a 6.1675377,6.1675377 0 0 0 1.957471,1.12208 l 0.126482,1.73342 c 0,0.24406 0.196825,0.44028 0.440883,0.44028 h 2.973549 c 0.244058,0 0.424281,-0.19675 0.44028,-0.44028 l 0.113834,-1.73402 a 6.1675377,6.1675377 0 0 0 1.949641,-1.12389 l 1.571398,0.77456 c 0.218905,0.10793 0.479667,0.0499 0.601696,-0.16142 l 1.486473,-2.57543 c 0.122027,-0.21136 0.05054,-0.47967 -0.160814,-0.6017 l -1.440698,-0.97812 a 6.1675377,6.1675377 0 0 0 0.110823,-1.14437 6.1675377,6.1675377 0 0 0 -0.106607,-1.12329 l 1.436482,-0.96006 c 0.211356,-0.12203 0.282844,-0.39035 0.160814,-0.6017 l -1.486473,-2.57543 c -0.122028,-0.21136 -0.382016,-0.26771 -0.601696,-0.16142 l -1.548511,0.74926 a 6.1675377,6.1675377 0 0 0 -1.972528,-1.13714 l -0.113834,-1.73461 c 0,-0.24407 -0.196222,-0.44029 -0.44028,-0.44029 z"
         id="path4612"
         inkscape:connector-curvature="0" />
      <path
         inkscape:connector-curvature="0"
         id="path4616"
         d="m -14.89442,280.65258 c -0.244058,0 -0.423115,0.19687 -0.440883,0.44029 l -0.126482,1.73341 a 6.1675377,6.1675377 0 0 0 -1.970721,1.14076 l -1.552726,-0.75168 c -0.219681,-0.10629 -0.480271,-0.0499 -0.602299,0.16142 l -1.486473,2.57543 c -0.12203,0.21135 -0.04994,0.47967 0.161416,0.6017 l 1.436482,0.96006 a 6.1675377,6.1675377 0 0 0 -0.107209,1.12329 6.1675377,6.1675377 0 0 0 0.111425,1.14437 l -1.440698,0.97812 c -0.211362,0.12203 -0.283444,0.39034 -0.161416,0.6017 l 1.486473,2.57543 c 0.122028,0.21137 0.383392,0.26935 0.602299,0.16142 l 1.565976,-0.77215 a 6.1675377,6.1675377 0 0 0 1.957471,1.12208 l 0.126482,1.73342 c 0,0.24406 0.196825,0.44028 0.440883,0.44028 h 2.973549 c 0.244058,0 0.424281,-0.19675 0.44028,-0.44028 l 0.113834,-1.73402 a 6.1675377,6.1675377 0 0 0 1.949641,-1.12389 l 1.571398,0.77456 c 0.218905,0.10793 0.479667,0.0499 0.601696,-0.16142 l 1.486473,-2.57543 c 0.122027,-0.21136 0.05054,-0.47967 -0.160814,-0.6017 l -1.440698,-0.97812 a 6.1675377,6.1675377 0 0 0 0.110823,-1.14437 6.1675377,6.1675377 0 0 0 -0.106607,-1.12329 l 1.436482,-0.96006 c 0.211356,-0.12203 0.282844,-0.39035 0.160814,-0.6017 l -1.486473,-2.57543 c -0.122028,-0.21136 -0.382016,-0.26771 -0.601696,-0.16142 l -1.548511,0.74926 a 6.1675377,6.1675377 0 0 0 -1.972528,-1.13714 l -0.113834,-1.73461 c 0,-0.24407 -0.196222,-0.44029 -0.44028,-0.44029 z"
         style="opacity:1;fill:none;fill-opacity:1;stroke:#000000;stroke-width:0.2;stroke-linecap:round;stroke-linejoin:round;stroke-miterlimit:4;stroke-dasharray:none;stroke-dashoffset:0;stroke-opacity:0.01176471" />
      <path
         style="opacity:1;fill:none;fill-opacity:1;stroke:#000000;stroke-width:0.30000001;stroke-linecap:round;stroke-linejoin:round;stroke-miterlimit:4;stroke-dasharray:none;stroke-dashoffset:0;stroke-opacity:0.01176471"
         d="m -14.89442,280.65258 c -0.244058,0 -0.423115,0.19687 -0.440883,0.44029 l -0.126482,1.73341 a 6.1675377,6.1675377 0 0 0 -1.970721,1.14076 l -1.552726,-0.75168 c -0.219681,-0.10629 -0.480271,-0.0499 -0.602299,0.16142 l -1.486473,2.57543 c -0.12203,0.21135 -0.04994,0.47967 0.161416,0.6017 l 1.436482,0.96006 a 6.1675377,6.1675377 0 0 0 -0.107209,1.12329 6.1675377,6.1675377 0 0 0 0.111425,1.14437 l -1.440698,0.97812 c -0.211362,0.12203 -0.283444,0.39034 -0.161416,0.6017 l 1.486473,2.57543 c 0.122028,0.21137 0.383392,0.26935 0.602299,0.16142 l 1.565976,-0.77215 a 6.1675377,6.1675377 0 0 0 1.957471,1.12208 l 0.126482,1.73342 c 0,0.24406 0.196825,0.44028 0.440883,0.44028 h 2.973549 c 0.244058,0 0.424281,-0.19675 0.44028,-0.44028 l 0.113834,-1.73402 a 6.1675377,6.1675377 0 0 0 1.949641,-1.12389 l 1.571398,0.77456 c 0.218905,0.10793 0.479667,0.0499 0.601696,-0.16142 l 1.486473,-2.57543 c 0.122027,-0.21136 0.05054,-0.47967 -0.160814,-0.6017 l -1.440698,-0.97812 a 6.1675377,6.1675377 0 0 0 0.110823,-1.14437 6.1675377,6.1675377 0 0 0 -0.106607,-1.12329 l 1.436482,-0.96006 c 0.211356,-0.12203 0.282844,-0.39035 0.160814,-0.6017 l -1.486473,-2.57543 c -0.122028,-0.21136 -0.382016,-0.26771 -0.601696,-0.16142 l -1.548511,0.74926 a 6.1675377,6.1675377 0 0 0 -1.972528,-1.13714 l -0.113834,-1.73461 c 0,-0.24407 -0.196222,-0.44029 -0.44028,-0.44029 z"
         id="path4618"
         inkscape:connector-curvature="0" />
      <path
         inkscape:connector-curvature="0"
         id="path4620"
         d="m -14.89442,280.65258 c -0.244058,0 -0.423115,0.19687 -0.440883,0.44029 l -0.126482,1.73341 a 6.1675377,6.1675377 0 0 0 -1.970721,1.14076 l -1.552726,-0.75168 c -0.219681,-0.10629 -0.480271,-0.0499 -0.602299,0.16142 l -1.486473,2.57543 c -0.12203,0.21135 -0.04994,0.47967 0.161416,0.6017 l 1.436482,0.96006 a 6.1675377,6.1675377 0 0 0 -0.107209,1.12329 6.1675377,6.1675377 0 0 0 0.111425,1.14437 l -1.440698,0.97812 c -0.211362,0.12203 -0.283444,0.39034 -0.161416,0.6017 l 1.486473,2.57543 c 0.122028,0.21137 0.383392,0.26935 0.602299,0.16142 l 1.565976,-0.77215 a 6.1675377,6.1675377 0 0 0 1.957471,1.12208 l 0.126482,1.73342 c 0,0.24406 0.196825,0.44028 0.440883,0.44028 h 2.973549 c 0.244058,0 0.424281,-0.19675 0.44028,-0.44028 l 0.113834,-1.73402 a 6.1675377,6.1675377 0 0 0 1.949641,-1.12389 l 1.571398,0.77456 c 0.218905,0.10793 0.479667,0.0499 0.601696,-0.16142 l 1.486473,-2.57543 c 0.122027,-0.21136 0.05054,-0.47967 -0.160814,-0.6017 l -1.440698,-0.97812 a 6.1675377,6.1675377 0 0 0 0.110823,-1.14437 6.1675377,6.1675377 0 0 0 -0.106607,-1.12329 l 1.436482,-0.96006 c 0.211356,-0.12203 0.282844,-0.39035 0.160814,-0.6017 l -1.486473,-2.57543 c -0.122028,-0.21136 -0.382016,-0.26771 -0.601696,-0.16142 l -1.548511,0.74926 a 6.1675377,6.1675377 0 0 0 -1.972528,-1.13714 l -0.113834,-1.73461 c 0,-0.24407 -0.196222,-0.44029 -0.44028,-0.44029 z"
         style="opacity:1;fill:none;fill-opacity:1;stroke:#000000;stroke-width:0.40000001;stroke-linecap:round;stroke-linejoin:round;stroke-miterlimit:4;stroke-dasharray:none;stroke-dashoffset:0;stroke-opacity:0.01176471" />
      <path
         style="opacity:1;fill:none;fill-opacity:1;stroke:#000000;stroke-width:0.5;stroke-linecap:round;stroke-linejoin:round;stroke-miterlimit:4;stroke-dasharray:none;stroke-dashoffset:0;stroke-opacity:0.01176471"
         d="m -14.89442,280.65258 c -0.244058,0 -0.423115,0.19687 -0.440883,0.44029 l -0.126482,1.73341 a 6.1675377,6.1675377 0 0 0 -1.970721,1.14076 l -1.552726,-0.75168 c -0.219681,-0.10629 -0.480271,-0.0499 -0.602299,0.16142 l -1.486473,2.57543 c -0.12203,0.21135 -0.04994,0.47967 0.161416,0.6017 l 1.436482,0.96006 a 6.1675377,6.1675377 0 0 0 -0.107209,1.12329 6.1675377,6.1675377 0 0 0 0.111425,1.14437 l -1.440698,0.97812 c -0.211362,0.12203 -0.283444,0.39034 -0.161416,0.6017 l 1.486473,2.57543 c 0.122028,0.21137 0.383392,0.26935 0.602299,0.16142 l 1.565976,-0.77215 a 6.1675377,6.1675377 0 0 0 1.957471,1.12208 l 0.126482,1.73342 c 0,0.24406 0.196825,0.44028 0.440883,0.44028 h 2.973549 c 0.244058,0 0.424281,-0.19675 0.44028,-0.44028 l 0.113834,-1.73402 a 6.1675377,6.1675377 0 0 0 1.949641,-1.12389 l 1.571398,0.77456 c 0.218905,0.10793 0.479667,0.0499 0.601696,-0.16142 l 1.486473,-2.57543 c 0.122027,-0.21136 0.05054,-0.47967 -0.160814,-0.6017 l -1.440698,-0.97812 a 6.1675377,6.1675377 0 0 0 0.110823,-1.14437 6.1675377,6.1675377 0 0 0 -0.106607,-1.12329 l 1.436482,-0.96006 c 0.211356,-0.12203 0.282844,-0.39035 0.160814,-0.6017 l -1.486473,-2.57543 c -0.122028,-0.21136 -0.382016,-0.26771 -0.601696,-0.16142 l -1.548511,0.74926 a 6.1675377,6.1675377 0 0 0 -1.972528,-1.13714 l -0.113834,-1.73461 c 0,-0.24407 -0.196222,-0.44029 -0.44028,-0.44029 z"
         id="path4622"
         inkscape:connector-curvature="0" />
      <path
         inkscape:connector-curvature="0"
         id="path4624"
         d="m -14.89442,280.65258 c -0.244058,0 -0.423115,0.19687 -0.440883,0.44029 l -0.126482,1.73341 a 6.1675377,6.1675377 0 0 0 -1.970721,1.14076 l -1.552726,-0.75168 c -0.219681,-0.10629 -0.480271,-0.0499 -0.602299,0.16142 l -1.486473,2.57543 c -0.12203,0.21135 -0.04994,0.47967 0.161416,0.6017 l 1.436482,0.96006 a 6.1675377,6.1675377 0 0 0 -0.107209,1.12329 6.1675377,6.1675377 0 0 0 0.111425,1.14437 l -1.440698,0.97812 c -0.211362,0.12203 -0.283444,0.39034 -0.161416,0.6017 l 1.486473,2.57543 c 0.122028,0.21137 0.383392,0.26935 0.602299,0.16142 l 1.565976,-0.77215 a 6.1675377,6.1675377 0 0 0 1.957471,1.12208 l 0.126482,1.73342 c 0,0.24406 0.196825,0.44028 0.440883,0.44028 h 2.973549 c 0.244058,0 0.424281,-0.19675 0.44028,-0.44028 l 0.113834,-1.73402 a 6.1675377,6.1675377 0 0 0 1.949641,-1.12389 l 1.571398,0.77456 c 0.218905,0.10793 0.479667,0.0499 0.601696,-0.16142 l 1.486473,-2.57543 c 0.122027,-0.21136 0.05054,-0.47967 -0.160814,-0.6017 l -1.440698,-0.97812 a 6.1675377,6.1675377 0 0 0 0.110823,-1.14437 6.1675377,6.1675377 0 0 0 -0.106607,-1.12329 l 1.436482,-0.96006 c 0.211356,-0.12203 0.282844,-0.39035 0.160814,-0.6017 l -1.486473,-2.57543 c -0.122028,-0.21136 -0.382016,-0.26771 -0.601696,-0.16142 l -1.548511,0.74926 a 6.1675377,6.1675377 0 0 0 -1.972528,-1.13714 l -0.113834,-1.73461 c 0,-0.24407 -0.196222,-0.44029 -0.44028,-0.44029 z"
         style="opacity:1;fill:none;fill-opacity:1;stroke:#000000;stroke-width:0.60000002;stroke-linecap:round;stroke-linejoin:round;stroke-miterlimit:4;stroke-dasharray:none;stroke-dashoffset:0;stroke-opacity:0.01176471" />
      <path
         style="opacity:1;fill:none;fill-opacity:1;stroke:#000000;stroke-width:0.69999999;stroke-linecap:round;stroke-linejoin:round;stroke-miterlimit:4;stroke-dasharray:none;stroke-dashoffset:0;stroke-opacity:0.01176471"
         d="m -14.89442,280.65258 c -0.244058,0 -0.423115,0.19687 -0.440883,0.44029 l -0.126482,1.73341 a 6.1675377,6.1675377 0 0 0 -1.970721,1.14076 l -1.552726,-0.75168 c -0.219681,-0.10629 -0.480271,-0.0499 -0.602299,0.16142 l -1.486473,2.57543 c -0.12203,0.21135 -0.04994,0.47967 0.161416,0.6017 l 1.436482,0.96006 a 6.1675377,6.1675377 0 0 0 -0.107209,1.12329 6.1675377,6.1675377 0 0 0 0.111425,1.14437 l -1.440698,0.97812 c -0.211362,0.12203 -0.283444,0.39034 -0.161416,0.6017 l 1.486473,2.57543 c 0.122028,0.21137 0.383392,0.26935 0.602299,0.16142 l 1.565976,-0.77215 a 6.1675377,6.1675377 0 0 0 1.957471,1.12208 l 0.126482,1.73342 c 0,0.24406 0.196825,0.44028 0.440883,0.44028 h 2.973549 c 0.244058,0 0.424281,-0.19675 0.44028,-0.44028 l 0.113834,-1.73402 a 6.1675377,6.1675377 0 0 0 1.949641,-1.12389 l 1.571398,0.77456 c 0.218905,0.10793 0.479667,0.0499 0.601696,-0.16142 l 1.486473,-2.57543 c 0.122027,-0.21136 0.05054,-0.47967 -0.160814,-0.6017 l -1.440698,-0.97812 a 6.1675377,6.1675377 0 0 0 0.110823,-1.14437 6.1675377,6.1675377 0 0 0 -0.106607,-1.12329 l 1.436482,-0.96006 c 0.211356,-0.12203 0.282844,-0.39035 0.160814,-0.6017 l -1.486473,-2.57543 c -0.122028,-0.21136 -0.382016,-0.26771 -0.601696,-0.16142 l -1.548511,0.74926 a 6.1675377,6.1675377 0 0 0 -1.972528,-1.13714 l -0.113834,-1.73461 c 0,-0.24407 -0.196222,-0.44029 -0.44028,-0.44029 z"
         id="path4626"
         inkscape:connector-curvature="0" />
      <path
         inkscape:connector-curvature="0"
         id="path4628"
         d="m -14.89442,280.65258 c -0.244058,0 -0.423115,0.19687 -0.440883,0.44029 l -0.126482,1.73341 a 6.1675377,6.1675377 0 0 0 -1.970721,1.14076 l -1.552726,-0.75168 c -0.219681,-0.10629 -0.480271,-0.0499 -0.602299,0.16142 l -1.486473,2.57543 c -0.12203,0.21135 -0.04994,0.47967 0.161416,0.6017 l 1.436482,0.96006 a 6.1675377,6.1675377 0 0 0 -0.107209,1.12329 6.1675377,6.1675377 0 0 0 0.111425,1.14437 l -1.440698,0.97812 c -0.211362,0.12203 -0.283444,0.39034 -0.161416,0.6017 l 1.486473,2.57543 c 0.122028,0.21137 0.383392,0.26935 0.602299,0.16142 l 1.565976,-0.77215 a 6.1675377,6.1675377 0 0 0 1.957471,1.12208 l 0.126482,1.73342 c 0,0.24406 0.196825,0.44028 0.440883,0.44028 h 2.973549 c 0.244058,0 0.424281,-0.19675 0.44028,-0.44028 l 0.113834,-1.73402 a 6.1675377,6.1675377 0 0 0 1.949641,-1.12389 l 1.571398,0.77456 c 0.218905,0.10793 0.479667,0.0499 0.601696,-0.16142 l 1.486473,-2.57543 c 0.122027,-0.21136 0.05054,-0.47967 -0.160814,-0.6017 l -1.440698,-0.97812 a 6.1675377,6.1675377 0 0 0 0.110823,-1.14437 6.1675377,6.1675377 0 0 0 -0.106607,-1.12329 l 1.436482,-0.96006 c 0.211356,-0.12203 0.282844,-0.39035 0.160814,-0.6017 l -1.486473,-2.57543 c -0.122028,-0.21136 -0.382016,-0.26771 -0.601696,-0.16142 l -1.548511,0.74926 a 6.1675377,6.1675377 0 0 0 -1.972528,-1.13714 l -0.113834,-1.73461 c 0,-0.24407 -0.196222,-0.44029 -0.44028,-0.44029 z"
         style="opacity:1;fill:none;fill-opacity:1;stroke:#000000;stroke-width:0.80000001;stroke-linecap:round;stroke-linejoin:round;stroke-miterlimit:4;stroke-dasharray:none;stroke-dashoffset:0;stroke-opacity:0.01176471" />
      <path
         style="opacity:1;fill:none;fill-opacity:1;stroke:#000000;stroke-width:0.89999998;stroke-linecap:round;stroke-linejoin:round;stroke-miterlimit:4;stroke-dasharray:none;stroke-dashoffset:0;stroke-opacity:0.01176471"
         d="m -14.89442,280.65258 c -0.244058,0 -0.423115,0.19687 -0.440883,0.44029 l -0.126482,1.73341 a 6.1675377,6.1675377 0 0 0 -1.970721,1.14076 l -1.552726,-0.75168 c -0.219681,-0.10629 -0.480271,-0.0499 -0.602299,0.16142 l -1.486473,2.57543 c -0.12203,0.21135 -0.04994,0.47967 0.161416,0.6017 l 1.436482,0.96006 a 6.1675377,6.1675377 0 0 0 -0.107209,1.12329 6.1675377,6.1675377 0 0 0 0.111425,1.14437 l -1.440698,0.97812 c -0.211362,0.12203 -0.283444,0.39034 -0.161416,0.6017 l 1.486473,2.57543 c 0.122028,0.21137 0.383392,0.26935 0.602299,0.16142 l 1.565976,-0.77215 a 6.1675377,6.1675377 0 0 0 1.957471,1.12208 l 0.126482,1.73342 c 0,0.24406 0.196825,0.44028 0.440883,0.44028 h 2.973549 c 0.244058,0 0.424281,-0.19675 0.44028,-0.44028 l 0.113834,-1.73402 a 6.1675377,6.1675377 0 0 0 1.949641,-1.12389 l 1.571398,0.77456 c 0.218905,0.10793 0.479667,0.0499 0.601696,-0.16142 l 1.486473,-2.57543 c 0.122027,-0.21136 0.05054,-0.47967 -0.160814,-0.6017 l -1.440698,-0.97812 a 6.1675377,6.1675377 0 0 0 0.110823,-1.14437 6.1675377,6.1675377 0 0 0 -0.106607,-1.12329 l 1.436482,-0.96006 c 0.211356,-0.12203 0.282844,-0.39035 0.160814,-0.6017 l -1.486473,-2.57543 c -0.122028,-0.21136 -0.382016,-0.26771 -0.601696,-0.16142 l -1.548511,0.74926 a 6.1675377,6.1675377 0 0 0 -1.972528,-1.13714 l -0.113834,-1.73461 c 0,-0.24407 -0.196222,-0.44029 -0.44028,-0.44029 z"
         id="path4630"
         inkscape:connector-curvature="0" />
      <path
         inkscape:connector-curvature="0"
         id="path4632"
         d="m -14.89442,280.65258 c -0.244058,0 -0.423115,0.19687 -0.440883,0.44029 l -0.126482,1.73341 a 6.1675377,6.1675377 0 0 0 -1.970721,1.14076 l -1.552726,-0.75168 c -0.219681,-0.10629 -0.480271,-0.0499 -0.602299,0.16142 l -1.486473,2.57543 c -0.12203,0.21135 -0.04994,0.47967 0.161416,0.6017 l 1.436482,0.96006 a 6.1675377,6.1675377 0 0 0 -0.107209,1.12329 6.1675377,6.1675377 0 0 0 0.111425,1.14437 l -1.440698,0.97812 c -0.211362,0.12203 -0.283444,0.39034 -0.161416,0.6017 l 1.486473,2.57543 c 0.122028,0.21137 0.383392,0.26935 0.602299,0.16142 l 1.565976,-0.77215 a 6.1675377,6.1675377 0 0 0 1.957471,1.12208 l 0.126482,1.73342 c 0,0.24406 0.196825,0.44028 0.440883,0.44028 h 2.973549 c 0.244058,0 0.424281,-0.19675 0.44028,-0.44028 l 0.113834,-1.73402 a 6.1675377,6.1675377 0 0 0 1.949641,-1.12389 l 1.571398,0.77456 c 0.218905,0.10793 0.479667,0.0499 0.601696,-0.16142 l 1.486473,-2.57543 c 0.122027,-0.21136 0.05054,-0.47967 -0.160814,-0.6017 l -1.440698,-0.97812 a 6.1675377,6.1675377 0 0 0 0.110823,-1.14437 6.1675377,6.1675377 0 0 0 -0.106607,-1.12329 l 1.436482,-0.96006 c 0.211356,-0.12203 0.282844,-0.39035 0.160814,-0.6017 l -1.486473,-2.57543 c -0.122028,-0.21136 -0.382016,-0.26771 -0.601696,-0.16142 l -1.548511,0.74926 a 6.1675377,6.1675377 0 0 0 -1.972528,-1.13714 l -0.113834,-1.73461 c 0,-0.24407 -0.196222,-0.44029 -0.44028,-0.44029 z"
         style="opacity:1;fill:none;fill-opacity:1;stroke:#000000;stroke-width:1;stroke-linecap:round;stroke-linejoin:round;stroke-miterlimit:4;stroke-dasharray:none;stroke-dashoffset:0;stroke-opacity:0.01176471" />
      <path
         style="opacity:1;fill:none;fill-opacity:1;stroke:#000000;stroke-width:1.10000002;stroke-linecap:round;stroke-linejoin:round;stroke-miterlimit:4;stroke-dasharray:none;stroke-dashoffset:0;stroke-opacity:0.01176471"
         d="m -14.89442,280.65258 c -0.244058,0 -0.423115,0.19687 -0.440883,0.44029 l -0.126482,1.73341 a 6.1675377,6.1675377 0 0 0 -1.970721,1.14076 l -1.552726,-0.75168 c -0.219681,-0.10629 -0.480271,-0.0499 -0.602299,0.16142 l -1.486473,2.57543 c -0.12203,0.21135 -0.04994,0.47967 0.161416,0.6017 l 1.436482,0.96006 a 6.1675377,6.1675377 0 0 0 -0.107209,1.12329 6.1675377,6.1675377 0 0 0 0.111425,1.14437 l -1.440698,0.97812 c -0.211362,0.12203 -0.283444,0.39034 -0.161416,0.6017 l 1.486473,2.57543 c 0.122028,0.21137 0.383392,0.26935 0.602299,0.16142 l 1.565976,-0.77215 a 6.1675377,6.1675377 0 0 0 1.957471,1.12208 l 0.126482,1.73342 c 0,0.24406 0.196825,0.44028 0.440883,0.44028 h 2.973549 c 0.244058,0 0.424281,-0.19675 0.44028,-0.44028 l 0.113834,-1.73402 a 6.1675377,6.1675377 0 0 0 1.949641,-1.12389 l 1.571398,0.77456 c 0.218905,0.10793 0.479667,0.0499 0.601696,-0.16142 l 1.486473,-2.57543 c 0.122027,-0.21136 0.05054,-0.47967 -0.160814,-0.6017 l -1.440698,-0.97812 a 6.1675377,6.1675377 0 0 0 0.110823,-1.14437 6.1675377,6.1675377 0 0 0 -0.106607,-1.12329 l 1.436482,-0.96006 c 0.211356,-0.12203 0.282844,-0.39035 0.160814,-0.6017 l -1.486473,-2.57543 c -0.122028,-0.21136 -0.382016,-0.26771 -0.601696,-0.16142 l -1.548511,0.74926 a 6.1675377,6.1675377 0 0 0 -1.972528,-1.13714 l -0.113834,-1.73461 c 0,-0.24407 -0.196222,-0.44029 -0.44028,-0.44029 z"
         id="path4634"
         inkscape:connector-curvature="0" />
      <path
         inkscape:connector-curvature="0"
         id="path4636"
         d="m -14.89442,280.65258 c -0.244058,0 -0.423115,0.19687 -0.440883,0.44029 l -0.126482,1.73341 a 6.1675377,6.1675377 0 0 0 -1.970721,1.14076 l -1.552726,-0.75168 c -0.219681,-0.10629 -0.480271,-0.0499 -0.602299,0.16142 l -1.486473,2.57543 c -0.12203,0.21135 -0.04994,0.47967 0.161416,0.6017 l 1.436482,0.96006 a 6.1675377,6.1675377 0 0 0 -0.107209,1.12329 6.1675377,6.1675377 0 0 0 0.111425,1.14437 l -1.440698,0.97812 c -0.211362,0.12203 -0.283444,0.39034 -0.161416,0.6017 l 1.486473,2.57543 c 0.122028,0.21137 0.383392,0.26935 0.602299,0.16142 l 1.565976,-0.77215 a 6.1675377,6.1675377 0 0 0 1.957471,1.12208 l 0.126482,1.73342 c 0,0.24406 0.196825,0.44028 0.440883,0.44028 h 2.973549 c 0.244058,0 0.424281,-0.19675 0.44028,-0.44028 l 0.113834,-1.73402 a 6.1675377,6.1675377 0 0 0 1.949641,-1.12389 l 1.571398,0.77456 c 0.218905,0.10793 0.479667,0.0499 0.601696,-0.16142 l 1.486473,-2.57543 c 0.122027,-0.21136 0.05054,-0.47967 -0.160814,-0.6017 l -1.440698,-0.97812 a 6.1675377,6.1675377 0 0 0 0.110823,-1.14437 6.1675377,6.1675377 0 0 0 -0.106607,-1.12329 l 1.436482,-0.96006 c 0.211356,-0.12203 0.282844,-0.39035 0.160814,-0.6017 l -1.486473,-2.57543 c -0.122028,-0.21136 -0.382016,-0.26771 -0.601696,-0.16142 l -1.548511,0.74926 a 6.1675377,6.1675377 0 0 0 -1.972528,-1.13714 l -0.113834,-1.73461 c 0,-0.24407 -0.196222,-0.44029 -0.44028,-0.44029 z"
         style="opacity:1;fill:none;fill-opacity:1;stroke:#000000;stroke-width:1.20000005;stroke-linecap:round;stroke-linejoin:round;stroke-miterlimit:4;stroke-dasharray:none;stroke-dashoffset:0;stroke-opacity:0.01176471" />
      <path
         style="opacity:1;fill:none;fill-opacity:1;stroke:#000000;stroke-width:1.39999998;stroke-linecap:round;stroke-linejoin:round;stroke-miterlimit:4;stroke-dasharray:none;stroke-dashoffset:0;stroke-opacity:0.01176471"
         d="m -14.89442,280.65258 c -0.244058,0 -0.423115,0.19687 -0.440883,0.44029 l -0.126482,1.73341 a 6.1675377,6.1675377 0 0 0 -1.970721,1.14076 l -1.552726,-0.75168 c -0.219681,-0.10629 -0.480271,-0.0499 -0.602299,0.16142 l -1.486473,2.57543 c -0.12203,0.21135 -0.04994,0.47967 0.161416,0.6017 l 1.436482,0.96006 a 6.1675377,6.1675377 0 0 0 -0.107209,1.12329 6.1675377,6.1675377 0 0 0 0.111425,1.14437 l -1.440698,0.97812 c -0.211362,0.12203 -0.283444,0.39034 -0.161416,0.6017 l 1.486473,2.57543 c 0.122028,0.21137 0.383392,0.26935 0.602299,0.16142 l 1.565976,-0.77215 a 6.1675377,6.1675377 0 0 0 1.957471,1.12208 l 0.126482,1.73342 c 0,0.24406 0.196825,0.44028 0.440883,0.44028 h 2.973549 c 0.244058,0 0.424281,-0.19675 0.44028,-0.44028 l 0.113834,-1.73402 a 6.1675377,6.1675377 0 0 0 1.949641,-1.12389 l 1.571398,0.77456 c 0.218905,0.10793 0.479667,0.0499 0.601696,-0.16142 l 1.486473,-2.57543 c 0.122027,-0.21136 0.05054,-0.47967 -0.160814,-0.6017 l -1.440698,-0.97812 a 6.1675377,6.1675377 0 0 0 0.110823,-1.14437 6.1675377,6.1675377 0 0 0 -0.106607,-1.12329 l 1.436482,-0.96006 c 0.211356,-0.12203 0.282844,-0.39035 0.160814,-0.6017 l -1.486473,-2.57543 c -0.122028,-0.21136 -0.382016,-0.26771 -0.601696,-0.16142 l -1.548511,0.74926 a 6.1675377,6.1675377 0 0 0 -1.972528,-1.13714 l -0.113834,-1.73461 c 0,-0.24407 -0.196222,-0.44029 -0.44028,-0.44029 z"
         id="path4638"
         inkscape:connector-curvature="0" />
      <path
         inkscape:connector-curvature="0"
         id="path4640"
         d="m -14.89442,280.65258 c -0.244058,0 -0.423115,0.19687 -0.440883,0.44029 l -0.126482,1.73341 a 6.1675377,6.1675377 0 0 0 -1.970721,1.14076 l -1.552726,-0.75168 c -0.219681,-0.10629 -0.480271,-0.0499 -0.602299,0.16142 l -1.486473,2.57543 c -0.12203,0.21135 -0.04994,0.47967 0.161416,0.6017 l 1.436482,0.96006 a 6.1675377,6.1675377 0 0 0 -0.107209,1.12329 6.1675377,6.1675377 0 0 0 0.111425,1.14437 l -1.440698,0.97812 c -0.211362,0.12203 -0.283444,0.39034 -0.161416,0.6017 l 1.486473,2.57543 c 0.122028,0.21137 0.383392,0.26935 0.602299,0.16142 l 1.565976,-0.77215 a 6.1675377,6.1675377 0 0 0 1.957471,1.12208 l 0.126482,1.73342 c 0,0.24406 0.196825,0.44028 0.440883,0.44028 h 2.973549 c 0.244058,0 0.424281,-0.19675 0.44028,-0.44028 l 0.113834,-1.73402 a 6.1675377,6.1675377 0 0 0 1.949641,-1.12389 l 1.571398,0.77456 c 0.218905,0.10793 0.479667,0.0499 0.601696,-0.16142 l 1.486473,-2.57543 c 0.122027,-0.21136 0.05054,-0.47967 -0.160814,-0.6017 l -1.440698,-0.97812 a 6.1675377,6.1675377 0 0 0 0.110823,-1.14437 6.1675377,6.1675377 0 0 0 -0.106607,-1.12329 l 1.436482,-0.96006 c 0.211356,-0.12203 0.282844,-0.39035 0.160814,-0.6017 l -1.486473,-2.57543 c -0.122028,-0.21136 -0.382016,-0.26771 -0.601696,-0.16142 l -1.548511,0.74926 a 6.1675377,6.1675377 0 0 0 -1.972528,-1.13714 l -0.113834,-1.73461 c 0,-0.24407 -0.196222,-0.44029 -0.44028,-0.44029 z"
         style="opacity:1;fill:none;fill-opacity:1;stroke:#000000;stroke-width:1.60000002;stroke-linecap:round;stroke-linejoin:round;stroke-miterlimit:4;stroke-dasharray:none;stroke-dashoffset:0;stroke-opacity:0.01176471" />
      <path
         style="opacity:1;fill:none;fill-opacity:1;stroke:#000000;stroke-width:1.79999995;stroke-linecap:round;stroke-linejoin:round;stroke-miterlimit:4;stroke-dasharray:none;stroke-dashoffset:0;stroke-opacity:0.01176471"
         d="m -14.89442,280.65258 c -0.244058,0 -0.423115,0.19687 -0.440883,0.44029 l -0.126482,1.73341 a 6.1675377,6.1675377 0 0 0 -1.970721,1.14076 l -1.552726,-0.75168 c -0.219681,-0.10629 -0.480271,-0.0499 -0.602299,0.16142 l -1.486473,2.57543 c -0.12203,0.21135 -0.04994,0.47967 0.161416,0.6017 l 1.436482,0.96006 a 6.1675377,6.1675377 0 0 0 -0.107209,1.12329 6.1675377,6.1675377 0 0 0 0.111425,1.14437 l -1.440698,0.97812 c -0.211362,0.12203 -0.283444,0.39034 -0.161416,0.6017 l 1.486473,2.57543 c 0.122028,0.21137 0.383392,0.26935 0.602299,0.16142 l 1.565976,-0.77215 a 6.1675377,6.1675377 0 0 0 1.957471,1.12208 l 0.126482,1.73342 c 0,0.24406 0.196825,0.44028 0.440883,0.44028 h 2.973549 c 0.244058,0 0.424281,-0.19675 0.44028,-0.44028 l 0.113834,-1.73402 a 6.1675377,6.1675377 0 0 0 1.949641,-1.12389 l 1.571398,0.77456 c 0.218905,0.10793 0.479667,0.0499 0.601696,-0.16142 l 1.486473,-2.57543 c 0.122027,-0.21136 0.05054,-0.47967 -0.160814,-0.6017 l -1.440698,-0.97812 a 6.1675377,6.1675377 0 0 0 0.110823,-1.14437 6.1675377,6.1675377 0 0 0 -0.106607,-1.12329 l 1.436482,-0.96006 c 0.211356,-0.12203 0.282844,-0.39035 0.160814,-0.6017 l -1.486473,-2.57543 c -0.122028,-0.21136 -0.382016,-0.26771 -0.601696,-0.16142 l -1.548511,0.74926 a 6.1675377,6.1675377 0 0 0 -1.972528,-1.13714 l -0.113834,-1.73461 c 0,-0.24407 -0.196222,-0.44029 -0.44028,-0.44029 z"
         id="path4642"
         inkscape:connector-curvature="0" />
      <path
         inkscape:connector-curvature="0"
         id="path4644"
         d="m -14.89442,280.65258 c -0.244058,0 -0.423115,0.19687 -0.440883,0.44029 l -0.126482,1.73341 a 6.1675377,6.1675377 0 0 0 -1.970721,1.14076 l -1.552726,-0.75168 c -0.219681,-0.10629 -0.480271,-0.0499 -0.602299,0.16142 l -1.486473,2.57543 c -0.12203,0.21135 -0.04994,0.47967 0.161416,0.6017 l 1.436482,0.96006 a 6.1675377,6.1675377 0 0 0 -0.107209,1.12329 6.1675377,6.1675377 0 0 0 0.111425,1.14437 l -1.440698,0.97812 c -0.211362,0.12203 -0.283444,0.39034 -0.161416,0.6017 l 1.486473,2.57543 c 0.122028,0.21137 0.383392,0.26935 0.602299,0.16142 l 1.565976,-0.77215 a 6.1675377,6.1675377 0 0 0 1.957471,1.12208 l 0.126482,1.73342 c 0,0.24406 0.196825,0.44028 0.440883,0.44028 h 2.973549 c 0.244058,0 0.424281,-0.19675 0.44028,-0.44028 l 0.113834,-1.73402 a 6.1675377,6.1675377 0 0 0 1.949641,-1.12389 l 1.571398,0.77456 c 0.218905,0.10793 0.479667,0.0499 0.601696,-0.16142 l 1.486473,-2.57543 c 0.122027,-0.21136 0.05054,-0.47967 -0.160814,-0.6017 l -1.440698,-0.97812 a 6.1675377,6.1675377 0 0 0 0.110823,-1.14437 6.1675377,6.1675377 0 0 0 -0.106607,-1.12329 l 1.436482,-0.96006 c 0.211356,-0.12203 0.282844,-0.39035 0.160814,-0.6017 l -1.486473,-2.57543 c -0.122028,-0.21136 -0.382016,-0.26771 -0.601696,-0.16142 l -1.548511,0.74926 a 6.1675377,6.1675377 0 0 0 -1.972528,-1.13714 l -0.113834,-1.73461 c 0,-0.24407 -0.196222,-0.44029 -0.44028,-0.44029 z"
         style="opacity:1;fill:none;fill-opacity:1;stroke:#000000;stroke-width:2;stroke-linecap:round;stroke-linejoin:round;stroke-miterlimit:4;stroke-dasharray:none;stroke-dashoffset:0;stroke-opacity:0.01176471" />
      <path
         style="opacity:1;fill:none;fill-opacity:1;stroke:#000000;stroke-width:2.20000005;stroke-linecap:round;stroke-linejoin:round;stroke-miterlimit:4;stroke-dasharray:none;stroke-dashoffset:0;stroke-opacity:0.01176471"
         d="m -14.89442,280.65258 c -0.244058,0 -0.423115,0.19687 -0.440883,0.44029 l -0.126482,1.73341 a 6.1675377,6.1675377 0 0 0 -1.970721,1.14076 l -1.552726,-0.75168 c -0.219681,-0.10629 -0.480271,-0.0499 -0.602299,0.16142 l -1.486473,2.57543 c -0.12203,0.21135 -0.04994,0.47967 0.161416,0.6017 l 1.436482,0.96006 a 6.1675377,6.1675377 0 0 0 -0.107209,1.12329 6.1675377,6.1675377 0 0 0 0.111425,1.14437 l -1.440698,0.97812 c -0.211362,0.12203 -0.283444,0.39034 -0.161416,0.6017 l 1.486473,2.57543 c 0.122028,0.21137 0.383392,0.26935 0.602299,0.16142 l 1.565976,-0.77215 a 6.1675377,6.1675377 0 0 0 1.957471,1.12208 l 0.126482,1.73342 c 0,0.24406 0.196825,0.44028 0.440883,0.44028 h 2.973549 c 0.244058,0 0.424281,-0.19675 0.44028,-0.44028 l 0.113834,-1.73402 a 6.1675377,6.1675377 0 0 0 1.949641,-1.12389 l 1.571398,0.77456 c 0.218905,0.10793 0.479667,0.0499 0.601696,-0.16142 l 1.486473,-2.57543 c 0.122027,-0.21136 0.05054,-0.47967 -0.160814,-0.6017 l -1.440698,-0.97812 a 6.1675377,6.1675377 0 0 0 0.110823,-1.14437 6.1675377,6.1675377 0 0 0 -0.106607,-1.12329 l 1.436482,-0.96006 c 0.211356,-0.12203 0.282844,-0.39035 0.160814,-0.6017 l -1.486473,-2.57543 c -0.122028,-0.21136 -0.382016,-0.26771 -0.601696,-0.16142 l -1.548511,0.74926 a 6.1675377,6.1675377 0 0 0 -1.972528,-1.13714 l -0.113834,-1.73461 c 0,-0.24407 -0.196222,-0.44029 -0.44028,-0.44029 z"
         id="path4646"
         inkscape:connector-curvature="0" />
    </g>
    <path
       style="opacity:1;fill:url(#linearGradient4504);fill-opacity:1;stroke:none;stroke-width:0.02236741;stroke-linecap:round;stroke-linejoin:round;stroke-miterlimit:4;stroke-dasharray:none;stroke-dashoffset:0;stroke-opacity:0.00784314"
       d="m 6.9907621,280.87535 c -0.2341857,0 -0.4059995,0.18891 -0.4230481,0.42248 l -0.1213661,1.66329 a 5.9180469,5.9180469 0 0 0 -1.8910009,1.09462 l -1.4899147,-0.72128 c -0.2107939,-0.10199 -0.4608429,-0.0479 -0.5779342,0.15489 l -1.4263418,2.47125 c -0.11709347,0.2028 -0.04792,0.46027 0.1548864,0.57736 l 1.3783732,0.92123 a 5.9180469,5.9180469 0 0 0 -0.1028723,1.07785 5.9180469,5.9180469 0 0 0 0.1069179,1.09807 l -1.3824188,0.93856 c -0.2028124,0.11709 -0.27197839,0.37455 -0.1548864,0.57736 l 1.4263418,2.47124 c 0.1170919,0.20282 0.3678833,0.25846 0.5779342,0.15489 l 1.5026293,-0.74091 a 5.9180469,5.9180469 0 0 0 1.8782863,1.07669 l 0.1213661,1.6633 c 0,0.23419 0.1888624,0.42247 0.4230481,0.42247 h 2.8532621 c 0.2341858,0 0.4071178,-0.18879 0.4224698,-0.42247 l 0.109229,-1.66388 a 5.9180469,5.9180469 0 0 0 1.870773,-1.07842 l 1.507832,0.74322 c 0.21005,0.10357 0.460263,0.0479 0.577356,-0.15489 l 1.426342,-2.47124 c 0.11709,-0.20281 0.04849,-0.46027 -0.154309,-0.57736 l -1.382419,-0.93856 a 5.9180469,5.9180469 0 0 0 0.10634,-1.09807 5.9180469,5.9180469 0 0 0 -0.102294,-1.07785 l 1.378373,-0.92123 c 0.202806,-0.11709 0.271402,-0.37456 0.154309,-0.57736 l -1.426342,-2.47125 c -0.117092,-0.20281 -0.366563,-0.25688 -0.577356,-0.15489 l -1.48587,0.71895 a 5.9180469,5.9180469 0 0 0 -1.892735,-1.09114 l -0.109229,-1.66444 c 0,-0.23419 -0.188284,-0.42248 -0.4224698,-0.42248 z"
       id="rect4485"
       inkscape:connector-curvature="0" />
    <path
       style="opacity:1;fill:url(#linearGradient4747);fill-opacity:1;stroke:none;stroke-width:0.02197847;stroke-linecap:round;stroke-linejoin:round;stroke-miterlimit:4;stroke-dasharray:none;stroke-dashoffset:0;stroke-opacity:0.00784314"
       d="m 8.4098591,283.89026 a 4.6469165,4.6469165 0 0 0 -4.6472003,4.6467 4.6469165,4.6469165 0 0 0 4.6472003,4.6472 4.6469165,4.6469165 0 0 0 4.6467039,-4.6472 4.6469165,4.6469165 0 0 0 -4.6467039,-4.6467 z m 0,0.92924 a 3.7175332,3.7175332 0 0 1 3.7174619,3.71746 3.7175332,3.7175332 0 0 1 -3.7174619,3.71747 3.7175332,3.7175332 0 0 1 -3.7179587,-3.71747 3.7175332,3.7175332 0 0 1 3.7179587,-3.71746 z"
       id="path4508"
       inkscape:connector-curvature="0" />
    <circle
       style="opacity:1;fill:url(#radialGradient4563);fill-opacity:1;stroke:none;stroke-width:0.01919095;stroke-linecap:round;stroke-linejoin:round;stroke-miterlimit:4;stroke-dasharray:none;stroke-dashoffset:0;stroke-opacity:0.00784314"
       id="circle4555"
       cx="10.481038"
       cy="285.15973"
       r="2.2439272" />
    <path
       style="opacity:1;fill:#ffffff;fill-opacity:1;stroke:none;stroke-width:0.02243411;stroke-linecap:round;stroke-linejoin:round;stroke-miterlimit:4;stroke-dasharray:none;stroke-dashoffset:0;stroke-opacity:0.00784314"
       d="m 8.4098591,283.89026 a 4.6469165,4.6469165 0 0 0 -4.6472003,4.6467 4.6469165,4.6469165 0 0 0 4.6472003,4.6472 4.6469165,4.6469165 0 0 0 4.6467039,-4.6472 4.6469165,4.6469165 0 0 0 -4.6467039,-4.6467 z m 0,0.0397 c 2.5443489,1.1e-4 4.6069179,2.06268 4.6070349,4.60703 1.56e-4,2.54454 -2.062495,4.60742 -4.6070349,4.60754 -2.5447327,1.6e-4 -4.6076871,-2.06281 -4.6075315,-4.60754 1.163e-4,-2.54453 2.0629907,-4.60718 4.6075315,-4.60703 z"
       id="path4581"
       inkscape:connector-curvature="0" />
    <path
       style="opacity:1;fill:#00171f;fill-opacity:0.1585366;stroke:none;stroke-width:0.02197847;stroke-linecap:round;stroke-linejoin:round;stroke-miterlimit:4;stroke-dasharray:none;stroke-dashoffset:0;stroke-opacity:0.00784314"
       d="m 8.3617605,283.87886 a 4.6469165,4.6469165 0 0 0 -4.6472001,4.6467 4.6469165,4.6469165 0 0 0 3.4462273,4.48704 4.6469165,4.6469165 0 0 1 -3.3981289,-4.47564 4.6469165,4.6469165 0 0 1 4.6472003,-4.6467 4.6469165,4.6469165 0 0 1 1.1945268,0.15818 4.6469165,4.6469165 0 0 0 -1.2426254,-0.16958 z m 0.7735417,1.01254 a 3.7175332,3.7175332 0 0 1 2.9439208,3.63416 3.7175332,3.7175332 0 0 1 -3.7174625,3.71746 3.7175332,3.7175332 0 0 1 -0.7289141,-0.0724 3.7175332,3.7175332 0 0 0 0.7770127,0.0838 3.7175332,3.7175332 0 0 0 3.7174619,-3.71747 3.7175332,3.7175332 0 0 0 -2.9920188,-3.64556 z"
       id="path4589"
       inkscape:connector-curvature="0" />
    <path
       id="path4521"
       d="m 8.4098591,283.89026 a 4.6469165,4.6469165 0 0 0 -4.6472003,4.6467 4.6469165,4.6469165 0 0 0 4.6472003,4.6472 4.6469165,4.6469165 0 0 0 4.6467039,-4.6472 4.6469165,4.6469165 0 0 0 -4.6467039,-4.6467 z m 0,0.92924 a 3.7175332,3.7175332 0 0 1 3.7174619,3.71746 3.7175332,3.7175332 0 0 1 -3.7174619,3.71747 3.7175332,3.7175332 0 0 1 -3.7179587,-3.71747 3.7175332,3.7175332 0 0 1 3.7179587,-3.71746 z"
       style="opacity:1;fill:url(#linearGradient4523);fill-opacity:1;stroke:none;stroke-width:0.02197847;stroke-linecap:round;stroke-linejoin:round;stroke-miterlimit:4;stroke-dasharray:none;stroke-dashoffset:0;stroke-opacity:0.00784314"
       inkscape:connector-curvature="0" />
    <circle
       style="opacity:1;fill:url(#radialGradient4610);fill-opacity:1;stroke:none;stroke-width:0.01919095;stroke-linecap:round;stroke-linejoin:round;stroke-miterlimit:4;stroke-dasharray:none;stroke-dashoffset:0;stroke-opacity:0.00784314"
       id="path4525"
       cx="10.413034"
       cy="284.75168"
       r="2.2439272" />
  </g>
</svg>
